%FSAX25Y25*%
%MOIN*%
G70*
G01*
G75*
G04 Layer_Physical_Order=1*
G04 Layer_Color=191*
%ADD10R,0.06300X0.05000*%
%ADD11C,0.01969*%
%ADD12C,0.03937*%
%ADD13C,0.00800*%
%ADD14C,0.01000*%
%ADD15C,0.31496*%
%ADD16C,0.05512*%
%ADD17R,0.05512X0.05512*%
%ADD18R,0.05118X0.05118*%
%ADD19C,0.05118*%
%ADD20C,0.11811*%
%ADD21C,0.06000*%
%ADD22C,0.06299*%
%ADD23R,0.06299X0.06299*%
%ADD24C,0.05906*%
%ADD25R,0.05118X0.05118*%
%ADD26C,0.05315*%
%ADD27C,0.07874*%
%ADD28C,0.08700*%
%ADD29C,0.03937*%
G36*
X0341838Y0281353D02*
Y0268558D01*
X0338885Y0265605D01*
X0325106D01*
X0322153Y0268558D01*
Y0281353D01*
X0323137Y0282731D01*
X0324712Y0284306D01*
X0338885D01*
X0341838Y0281353D01*
D02*
G37*
G36*
X0433348Y0378819D02*
Y0299437D01*
X0429042Y0295132D01*
X0382192D01*
X0375302Y0302022D01*
Y0307928D01*
X0404830D01*
X0414672Y0317770D01*
Y0325546D01*
X0422546Y0333518D01*
Y0343361D01*
X0412704Y0353203D01*
Y0366983D01*
X0406798Y0372888D01*
X0394987D01*
X0390066Y0367967D01*
Y0361077D01*
X0384161Y0355172D01*
X0373334D01*
X0361523Y0366983D01*
Y0380762D01*
X0364450Y0383689D01*
X0428477D01*
X0433348Y0378819D01*
D02*
G37*
G36*
X0302468Y0274463D02*
Y0269173D01*
X0298505Y0265211D01*
X0285145D01*
X0282783Y0267573D01*
Y0276431D01*
X0300499D01*
X0302468Y0274463D01*
D02*
G37*
G36*
X0236523Y0320723D02*
X0236523D01*
Y0313323D01*
X0268019Y0281827D01*
Y0267573D01*
X0266050Y0265605D01*
X0260145D01*
X0258176Y0267573D01*
Y0276431D01*
X0227665Y0306943D01*
Y0322691D01*
X0229633Y0324660D01*
X0232586D01*
X0236523Y0320723D01*
D02*
G37*
G36*
X0411054Y0365680D02*
Y0350916D01*
X0419594Y0342376D01*
Y0332534D01*
X0412704Y0325644D01*
X0406798Y0318803D01*
X0399909D01*
X0399500Y0318434D01*
X0399323Y0318507D01*
X0398334Y0318637D01*
X0397345Y0318507D01*
X0396424Y0318126D01*
X0395633Y0317518D01*
X0395026Y0316727D01*
X0394644Y0315806D01*
X0394514Y0314817D01*
X0394619Y0314016D01*
X0390066Y0309896D01*
X0384161D01*
X0378255Y0315802D01*
Y0329384D01*
X0380486Y0331550D01*
X0401877D01*
X0402861Y0332534D01*
Y0340408D01*
X0400538Y0342731D01*
X0395110D01*
X0394987Y0342853D01*
Y0346313D01*
X0392035Y0349266D01*
Y0367967D01*
X0395972Y0371904D01*
X0404830D01*
X0411054Y0365680D01*
D02*
G37*
G36*
X0390066Y0350250D02*
Y0345329D01*
X0387113Y0342376D01*
X0384098D01*
X0382192Y0340471D01*
Y0337790D01*
X0374968Y0330565D01*
X0367428D01*
X0364476Y0333518D01*
Y0344345D01*
X0372350Y0352219D01*
X0376287D01*
X0377271Y0353203D01*
X0387113D01*
X0390066Y0350250D01*
D02*
G37*
G36*
X0327074Y0381747D02*
Y0367967D01*
X0324891Y0365784D01*
X0324483Y0365731D01*
X0323813Y0365453D01*
X0323237Y0365011D01*
X0322796Y0364436D01*
X0322518Y0363765D01*
X0322464Y0363357D01*
X0309358Y0350250D01*
X0291034D01*
X0290895Y0350277D01*
X0290775Y0350269D01*
X0290657Y0350284D01*
X0290399Y0350250D01*
X0288809D01*
X0288588Y0350699D01*
X0289044Y0351293D01*
X0289425Y0352214D01*
X0289556Y0353203D01*
X0289425Y0354192D01*
X0289044Y0355113D01*
X0288437Y0355904D01*
X0287646Y0356511D01*
X0286724Y0356893D01*
X0285735Y0357023D01*
X0284747Y0356893D01*
X0283825Y0356511D01*
X0283034Y0355904D01*
X0282427Y0355113D01*
X0282046Y0354192D01*
X0281915Y0353203D01*
X0282046Y0352214D01*
X0282427Y0351293D01*
X0282883Y0350699D01*
X0282662Y0350250D01*
X0279668D01*
Y0360093D01*
X0279530Y0360784D01*
X0279139Y0361370D01*
X0277662Y0362847D01*
X0277688Y0363046D01*
X0277594Y0363765D01*
X0277316Y0364436D01*
X0276874Y0365011D01*
X0276298Y0365453D01*
X0275628Y0365731D01*
X0274909Y0365825D01*
X0274189Y0365731D01*
X0273519Y0365453D01*
X0272943Y0365011D01*
X0272501Y0364436D01*
X0272224Y0363765D01*
X0272129Y0363046D01*
X0272224Y0362326D01*
X0272501Y0361656D01*
X0272943Y0361080D01*
X0273519Y0360638D01*
X0274189Y0360361D01*
X0274909Y0360266D01*
X0275108Y0360292D01*
X0276055Y0359345D01*
Y0348444D01*
X0275893Y0348282D01*
Y0336471D01*
X0273924Y0334502D01*
X0235539D01*
X0228649Y0341392D01*
Y0375841D01*
Y0379778D01*
X0232560Y0383689D01*
X0325131D01*
X0327074Y0381747D01*
D02*
G37*
G36*
X0308373Y0323676D02*
X0304436Y0319739D01*
X0295578D01*
X0292625Y0316786D01*
X0249318D01*
X0247350Y0318754D01*
Y0326431D01*
X0248334Y0327416D01*
X0275106D01*
X0277861Y0324660D01*
X0290657D01*
X0293609Y0327613D01*
X0304436D01*
X0308373Y0323676D01*
D02*
G37*
G36*
X0293609Y0345329D02*
X0302468Y0336471D01*
X0304436D01*
Y0330565D01*
X0298531D01*
X0289672Y0339424D01*
X0288688Y0342376D01*
X0289672Y0345329D01*
X0290657Y0346313D01*
X0293609Y0345329D01*
D02*
G37*
G54D10*
X0388098Y0344408D02*
D03*
Y0336408D02*
D03*
X0397964Y0336172D02*
D03*
Y0344172D02*
D03*
G54D11*
X0313295Y0351137D02*
X0325203Y0363046D01*
X0313295Y0312849D02*
Y0351137D01*
X0304436Y0303991D02*
X0313295Y0312849D01*
X0274909Y0363046D02*
X0277861Y0360093D01*
Y0341077D02*
X0285735Y0333203D01*
X0277861Y0341077D02*
Y0360093D01*
G54D12*
X0388098Y0336408D02*
X0397728D01*
X0397964Y0336172D01*
G54D13*
X0126900Y0073549D02*
X0130899D01*
X0128899D01*
Y0067551D01*
X0133898D02*
X0135897D01*
X0136897Y0068550D01*
Y0070550D01*
X0135897Y0071549D01*
X0133898D01*
X0132898Y0070550D01*
Y0068550D01*
X0133898Y0067551D01*
X0138896Y0065551D02*
Y0071549D01*
X0141895D01*
X0142895Y0070550D01*
Y0068550D01*
X0141895Y0067551D01*
X0138896D01*
X0150892Y0073549D02*
Y0067551D01*
X0154891D01*
X0157890Y0071549D02*
X0159889D01*
X0160889Y0070550D01*
Y0067551D01*
X0157890D01*
X0156890Y0068550D01*
X0157890Y0069550D01*
X0160889D01*
X0162888Y0071549D02*
Y0068550D01*
X0163888Y0067551D01*
X0166887D01*
Y0066551D01*
X0165887Y0065551D01*
X0164888D01*
X0166887Y0067551D02*
Y0071549D01*
X0171885Y0067551D02*
X0169886D01*
X0168886Y0068550D01*
Y0070550D01*
X0169886Y0071549D01*
X0171885D01*
X0172885Y0070550D01*
Y0069550D01*
X0168886D01*
X0174884Y0071549D02*
Y0067551D01*
Y0069550D01*
X0175884Y0070550D01*
X0176884Y0071549D01*
X0177884D01*
X0567400Y0087833D02*
Y0093831D01*
X0571399Y0087833D01*
Y0093831D01*
X0574398Y0087833D02*
X0576397D01*
X0577397Y0088833D01*
Y0090832D01*
X0576397Y0091832D01*
X0574398D01*
X0573398Y0090832D01*
Y0088833D01*
X0574398Y0087833D01*
X0580396Y0092832D02*
Y0091832D01*
X0579396D01*
X0581395D01*
X0580396D01*
Y0088833D01*
X0581395Y0087833D01*
X0590393Y0093831D02*
X0592392D01*
X0591392D01*
Y0087833D01*
X0590393D01*
X0592392D01*
X0595391D02*
Y0091832D01*
X0598390D01*
X0599390Y0090832D01*
Y0087833D01*
X0607387Y0093831D02*
Y0089833D01*
X0609386Y0087833D01*
X0611386Y0089833D01*
Y0093831D01*
X0616384Y0087833D02*
X0614385D01*
X0613385Y0088833D01*
Y0090832D01*
X0614385Y0091832D01*
X0616384D01*
X0617384Y0090832D01*
Y0089833D01*
X0613385D01*
X0619383Y0091832D02*
Y0087833D01*
Y0089833D01*
X0620383Y0090832D01*
X0621383Y0091832D01*
X0622382D01*
X0625381Y0087833D02*
X0628380D01*
X0629380Y0088833D01*
X0628380Y0089833D01*
X0626381D01*
X0625381Y0090832D01*
X0626381Y0091832D01*
X0629380D01*
X0631379Y0087833D02*
X0633379D01*
X0632379D01*
Y0091832D01*
X0631379D01*
X0637377Y0087833D02*
X0639377D01*
X0640376Y0088833D01*
Y0090832D01*
X0639377Y0091832D01*
X0637377D01*
X0636378Y0090832D01*
Y0088833D01*
X0637377Y0087833D01*
X0642376D02*
Y0091832D01*
X0645375D01*
X0646374Y0090832D01*
Y0087833D01*
X0652373Y0092832D02*
X0651373Y0093831D01*
X0649373D01*
X0648374Y0092832D01*
Y0088833D01*
X0649373Y0087833D01*
X0651373D01*
X0652373Y0088833D01*
X0655372Y0087833D02*
X0657371D01*
X0658371Y0088833D01*
Y0090832D01*
X0657371Y0091832D01*
X0655372D01*
X0654372Y0090832D01*
Y0088833D01*
X0655372Y0087833D01*
X0660370D02*
Y0091832D01*
X0663369D01*
X0664369Y0090832D01*
Y0087833D01*
X0667368Y0092832D02*
Y0091832D01*
X0666368D01*
X0668367D01*
X0667368D01*
Y0088833D01*
X0668367Y0087833D01*
X0671366Y0091832D02*
Y0087833D01*
Y0089833D01*
X0672366Y0090832D01*
X0673366Y0091832D01*
X0674365D01*
X0678364Y0087833D02*
X0680364D01*
X0681363Y0088833D01*
Y0090832D01*
X0680364Y0091832D01*
X0678364D01*
X0677364Y0090832D01*
Y0088833D01*
X0678364Y0087833D01*
X0683362D02*
X0685362D01*
X0684362D01*
Y0093831D01*
X0683362D01*
X0520799Y0092832D02*
X0519799Y0093831D01*
X0517800D01*
X0516800Y0092832D01*
Y0091832D01*
X0517800Y0090832D01*
X0519799D01*
X0520799Y0089833D01*
Y0088833D01*
X0519799Y0087833D01*
X0517800D01*
X0516800Y0088833D01*
X0522798Y0093831D02*
Y0089833D01*
X0524797Y0087833D01*
X0526797Y0089833D01*
Y0093831D01*
X0528796Y0087833D02*
Y0093831D01*
X0532795Y0087833D01*
Y0093831D01*
X0540792Y0087833D02*
Y0093831D01*
X0543791D01*
X0544791Y0092832D01*
Y0090832D01*
X0543791Y0089833D01*
X0540792D01*
X0542792D02*
X0544791Y0087833D01*
X0550789Y0093831D02*
X0546790D01*
Y0087833D01*
X0550789D01*
X0546790Y0090832D02*
X0548790D01*
X0552788Y0093831D02*
Y0089833D01*
X0554788Y0087833D01*
X0556787Y0089833D01*
Y0093831D01*
X0558786Y0091832D02*
X0559786D01*
Y0090832D01*
X0558786D01*
Y0091832D01*
Y0088833D02*
X0559786D01*
Y0087833D01*
X0558786D01*
Y0088833D01*
X0433000Y0087833D02*
Y0093831D01*
X0435999D01*
X0436999Y0092832D01*
Y0090832D01*
X0435999Y0089833D01*
X0433000D01*
X0434999D02*
X0436999Y0087833D01*
X0442997Y0093831D02*
X0438998D01*
Y0087833D01*
X0442997D01*
X0438998Y0090832D02*
X0440997D01*
X0444996Y0093831D02*
Y0089833D01*
X0446995Y0087833D01*
X0448995Y0089833D01*
Y0093831D01*
X0450994Y0091832D02*
X0451994D01*
Y0090832D01*
X0450994D01*
Y0091832D01*
Y0088833D02*
X0451994D01*
Y0087833D01*
X0450994D01*
Y0088833D01*
X0126900Y0046966D02*
Y0052965D01*
X0129899D01*
X0130899Y0051965D01*
Y0049966D01*
X0129899Y0048966D01*
X0126900D01*
X0132898Y0046966D02*
Y0052965D01*
X0134897Y0050965D01*
X0136897Y0052965D01*
Y0046966D01*
X0138896D02*
Y0052965D01*
X0141895D01*
X0142895Y0051965D01*
Y0049966D01*
X0141895Y0048966D01*
X0138896D01*
X0144894Y0047966D02*
X0145894Y0046966D01*
X0147893D01*
X0148893Y0047966D01*
Y0051965D01*
X0147893Y0052965D01*
X0145894D01*
X0144894Y0051965D01*
Y0050965D01*
X0145894Y0049966D01*
X0148893D01*
X0154891Y0052965D02*
X0150892D01*
Y0049966D01*
X0152892Y0050965D01*
X0153891D01*
X0154891Y0049966D01*
Y0047966D01*
X0153891Y0046966D01*
X0151892D01*
X0150892Y0047966D01*
X0156890Y0046966D02*
X0158890D01*
X0157890D01*
Y0052965D01*
X0156890Y0051965D01*
X0161889Y0052965D02*
X0165887D01*
Y0051965D01*
X0161889Y0047966D01*
Y0046966D01*
X0167887D02*
Y0047966D01*
X0168886D01*
Y0046966D01*
X0167887D01*
X0176884Y0051965D02*
X0175884Y0052965D01*
X0173885D01*
X0172885Y0051965D01*
Y0047966D01*
X0173885Y0046966D01*
X0175884D01*
X0176884Y0047966D01*
Y0049966D01*
X0174884D01*
X0178883Y0052965D02*
X0182882D01*
X0180883D01*
Y0046966D01*
X0184881Y0052965D02*
Y0046966D01*
X0188880D01*
X0385149D02*
X0381150D01*
X0385149Y0050965D01*
Y0051965D01*
X0384149Y0052965D01*
X0382150D01*
X0381150Y0051965D01*
X0387148Y0046966D02*
X0391147Y0050965D01*
X0397145Y0046966D02*
X0393146D01*
X0397145Y0050965D01*
Y0051965D01*
X0396145Y0052965D01*
X0394146D01*
X0393146Y0051965D01*
X0402143Y0046966D02*
Y0052965D01*
X0399144Y0049966D01*
X0403143D01*
X0405142Y0046966D02*
X0409141Y0050965D01*
X0415139Y0046966D02*
X0411140D01*
X0415139Y0050965D01*
Y0051965D01*
X0414139Y0052965D01*
X0412140D01*
X0411140Y0051965D01*
X0417138D02*
X0418138Y0052965D01*
X0420137D01*
X0421137Y0051965D01*
Y0047966D01*
X0420137Y0046966D01*
X0418138D01*
X0417138Y0047966D01*
Y0051965D01*
X0423136Y0046966D02*
X0425136D01*
X0424136D01*
Y0052965D01*
X0423136Y0051965D01*
X0431134Y0046966D02*
Y0052965D01*
X0428135Y0049966D01*
X0432133D01*
X0298199Y0051965D02*
X0297199Y0052965D01*
X0295200D01*
X0294200Y0051965D01*
Y0047966D01*
X0295200Y0046966D01*
X0297199D01*
X0298199Y0047966D01*
Y0049966D01*
X0296199D01*
X0304197Y0052965D02*
X0300198D01*
Y0046966D01*
X0304197D01*
X0300198Y0049966D02*
X0302197D01*
X0306196Y0046966D02*
Y0052965D01*
X0310195Y0046966D01*
Y0052965D01*
X0316193D02*
X0312194D01*
Y0046966D01*
X0316193D01*
X0312194Y0049966D02*
X0314194D01*
X0318192Y0046966D02*
Y0052965D01*
X0321191D01*
X0322191Y0051965D01*
Y0049966D01*
X0321191Y0048966D01*
X0318192D01*
X0320192D02*
X0322191Y0046966D01*
X0324190D02*
Y0050965D01*
X0326190Y0052965D01*
X0328189Y0050965D01*
Y0046966D01*
Y0049966D01*
X0324190D01*
X0330188Y0052965D02*
X0334187D01*
X0332188D01*
Y0046966D01*
X0340185Y0052965D02*
X0336186D01*
Y0046966D01*
X0340185D01*
X0336186Y0049966D02*
X0338186D01*
X0342184Y0052965D02*
Y0046966D01*
X0345183D01*
X0346183Y0047966D01*
Y0051965D01*
X0345183Y0052965D01*
X0342184D01*
X0372175Y0050965D02*
X0373175D01*
Y0049966D01*
X0372175D01*
Y0050965D01*
Y0047966D02*
X0373175D01*
Y0046966D01*
X0372175D01*
Y0047966D01*
X0046350Y0087833D02*
Y0091832D01*
X0048349Y0093831D01*
X0050349Y0091832D01*
Y0087833D01*
Y0090832D01*
X0046350D01*
X0052348Y0093831D02*
Y0087833D01*
X0056347D01*
X0058346Y0093831D02*
Y0087833D01*
X0062345D01*
X0070342D02*
Y0091832D01*
X0072342Y0093831D01*
X0074341Y0091832D01*
Y0087833D01*
Y0090832D01*
X0070342D01*
X0076340Y0087833D02*
Y0093831D01*
X0079339D01*
X0080339Y0092832D01*
Y0090832D01*
X0079339Y0089833D01*
X0076340D01*
X0078340D02*
X0080339Y0087833D01*
X0082338Y0093831D02*
X0086337D01*
X0084338D01*
Y0087833D01*
X0088336Y0093831D02*
Y0087833D01*
X0090336Y0089833D01*
X0092335Y0087833D01*
Y0093831D01*
X0097334D02*
X0095334D01*
X0094335Y0092832D01*
Y0088833D01*
X0095334Y0087833D01*
X0097334D01*
X0098333Y0088833D01*
Y0092832D01*
X0097334Y0093831D01*
X0100332Y0087833D02*
Y0093831D01*
X0103332D01*
X0104331Y0092832D01*
Y0090832D01*
X0103332Y0089833D01*
X0100332D01*
X0102332D02*
X0104331Y0087833D01*
X0106331Y0093831D02*
Y0087833D01*
Y0089833D01*
X0110329Y0093831D01*
X0107330Y0090832D01*
X0110329Y0087833D01*
X0118327Y0093831D02*
Y0089833D01*
X0120326Y0087833D01*
X0122325Y0089833D01*
Y0093831D01*
X0124325D02*
X0126324D01*
X0125324D01*
Y0087833D01*
X0124325D01*
X0126324D01*
X0133322Y0093831D02*
X0129323D01*
Y0087833D01*
X0133322D01*
X0129323Y0090832D02*
X0131323D01*
X0135321Y0093831D02*
Y0087833D01*
X0137321Y0089833D01*
X0139320Y0087833D01*
Y0093831D01*
X0145318D02*
X0141319D01*
Y0087833D01*
X0145318D01*
X0141319Y0090832D02*
X0143319D01*
X0147317Y0093831D02*
Y0087833D01*
X0150316D01*
X0151316Y0088833D01*
Y0092832D01*
X0150316Y0093831D01*
X0147317D01*
X0163312D02*
X0159313D01*
Y0090832D01*
X0161313D01*
X0159313D01*
Y0087833D01*
X0165312D02*
Y0093831D01*
X0168310D01*
X0169310Y0092832D01*
Y0090832D01*
X0168310Y0089833D01*
X0165312D01*
X0167311D02*
X0169310Y0087833D01*
X0174309Y0093831D02*
X0172309D01*
X0171310Y0092832D01*
Y0088833D01*
X0172309Y0087833D01*
X0174309D01*
X0175308Y0088833D01*
Y0092832D01*
X0174309Y0093831D01*
X0177308Y0087833D02*
Y0093831D01*
X0179307Y0091832D01*
X0181306Y0093831D01*
Y0087833D01*
X0189304Y0093831D02*
X0193303D01*
X0191303D01*
Y0087833D01*
X0198301Y0093831D02*
X0196301D01*
X0195302Y0092832D01*
Y0088833D01*
X0196301Y0087833D01*
X0198301D01*
X0199301Y0088833D01*
Y0092832D01*
X0198301Y0093831D01*
X0201300Y0087833D02*
Y0093831D01*
X0204299D01*
X0205299Y0092832D01*
Y0090832D01*
X0204299Y0089833D01*
X0201300D01*
X0217295Y0092832D02*
X0216295Y0093831D01*
X0214296D01*
X0213296Y0092832D01*
Y0091832D01*
X0214296Y0090832D01*
X0216295D01*
X0217295Y0089833D01*
Y0088833D01*
X0216295Y0087833D01*
X0214296D01*
X0213296Y0088833D01*
X0219294Y0093831D02*
X0221293D01*
X0220294D01*
Y0087833D01*
X0219294D01*
X0221293D01*
X0224292Y0093831D02*
Y0087833D01*
X0227291D01*
X0228291Y0088833D01*
Y0092832D01*
X0227291Y0093831D01*
X0224292D01*
X0234289D02*
X0230291D01*
Y0087833D01*
X0234289D01*
X0230291Y0090832D02*
X0232290D01*
X0466149Y0093831D02*
X0462150D01*
Y0087833D01*
X0466149D01*
X0462150Y0090832D02*
X0464149D01*
X0468148Y0087833D02*
X0470147D01*
X0469148D01*
Y0093831D01*
X0468148Y0092832D01*
X0348550Y0087833D02*
Y0093831D01*
X0351549D01*
X0352549Y0092832D01*
Y0090832D01*
X0351549Y0089833D01*
X0348550D01*
X0354548Y0087833D02*
Y0093831D01*
X0356547Y0091832D01*
X0358547Y0093831D01*
Y0087833D01*
X0360546D02*
Y0093831D01*
X0363545D01*
X0364545Y0092832D01*
Y0090832D01*
X0363545Y0089833D01*
X0360546D01*
X0366544Y0088833D02*
X0367544Y0087833D01*
X0369543D01*
X0370543Y0088833D01*
Y0092832D01*
X0369543Y0093831D01*
X0367544D01*
X0366544Y0092832D01*
Y0091832D01*
X0367544Y0090832D01*
X0370543D01*
X0376541Y0093831D02*
X0372542D01*
Y0090832D01*
X0374542Y0091832D01*
X0375541D01*
X0376541Y0090832D01*
Y0088833D01*
X0375541Y0087833D01*
X0373542D01*
X0372542Y0088833D01*
X0378540Y0087833D02*
X0380540D01*
X0379540D01*
Y0093831D01*
X0378540Y0092832D01*
X0383539Y0093831D02*
X0387537D01*
Y0092832D01*
X0383539Y0088833D01*
Y0087833D01*
X0294000Y0093831D02*
Y0087833D01*
X0296999D01*
X0297999Y0088833D01*
Y0089833D01*
X0296999Y0090832D01*
X0294000D01*
X0296999D01*
X0297999Y0091832D01*
Y0092832D01*
X0296999Y0093831D01*
X0294000D01*
X0302997D02*
X0300998D01*
X0299998Y0092832D01*
Y0088833D01*
X0300998Y0087833D01*
X0302997D01*
X0303997Y0088833D01*
Y0092832D01*
X0302997Y0093831D01*
X0305996Y0087833D02*
Y0091832D01*
X0307996Y0093831D01*
X0309995Y0091832D01*
Y0087833D01*
Y0090832D01*
X0305996D01*
X0311994Y0087833D02*
Y0093831D01*
X0314993D01*
X0315993Y0092832D01*
Y0090832D01*
X0314993Y0089833D01*
X0311994D01*
X0313994D02*
X0315993Y0087833D01*
X0317992Y0093831D02*
Y0087833D01*
X0320991D01*
X0321991Y0088833D01*
Y0092832D01*
X0320991Y0093831D01*
X0317992D01*
X0330988Y0087833D02*
Y0093831D01*
X0332987D02*
Y0087833D01*
X0329988Y0091832D02*
X0332987D01*
X0333987D01*
X0329988Y0089833D02*
X0333987D01*
X0335986Y0091832D02*
X0336986D01*
Y0090832D01*
X0335986D01*
Y0091832D01*
Y0088833D02*
X0336986D01*
Y0087833D01*
X0335986D01*
Y0088833D01*
X0046350Y0073549D02*
Y0067551D01*
X0050349D01*
X0052348D02*
Y0071549D01*
X0054347Y0073549D01*
X0056347Y0071549D01*
Y0067551D01*
Y0070550D01*
X0052348D01*
X0058346Y0073549D02*
Y0072549D01*
X0060346Y0070550D01*
X0062345Y0072549D01*
Y0073549D01*
X0060346Y0070550D02*
Y0067551D01*
X0068343Y0073549D02*
X0064344D01*
Y0067551D01*
X0068343D01*
X0064344Y0070550D02*
X0066343D01*
X0070342Y0067551D02*
Y0073549D01*
X0073341D01*
X0074341Y0072549D01*
Y0070550D01*
X0073341Y0069550D01*
X0070342D01*
X0072342D02*
X0074341Y0067551D01*
X0082338D02*
Y0073549D01*
X0086337Y0067551D01*
Y0073549D01*
X0088336Y0067551D02*
Y0071549D01*
X0090336Y0073549D01*
X0092335Y0071549D01*
Y0067551D01*
Y0070550D01*
X0088336D01*
X0094335Y0067551D02*
Y0073549D01*
X0096334Y0071549D01*
X0098333Y0073549D01*
Y0067551D01*
X0104331Y0073549D02*
X0100332D01*
Y0067551D01*
X0104331D01*
X0100332Y0070550D02*
X0102332D01*
X0112329Y0069550D02*
X0116327D01*
X0112329Y0071549D02*
X0116327D01*
X0046350Y0046966D02*
Y0052965D01*
X0049349D01*
X0050349Y0051965D01*
Y0049966D01*
X0049349Y0048966D01*
X0046350D01*
X0052348Y0052965D02*
Y0046966D01*
X0056347D01*
X0061345Y0052965D02*
X0059346D01*
X0058346Y0051965D01*
Y0047966D01*
X0059346Y0046966D01*
X0061345D01*
X0062345Y0047966D01*
Y0051965D01*
X0061345Y0052965D01*
X0064344D02*
X0068343D01*
X0066343D01*
Y0046966D01*
X0076340D02*
Y0052965D01*
X0080339Y0046966D01*
Y0052965D01*
X0082338Y0046966D02*
Y0050965D01*
X0084338Y0052965D01*
X0086337Y0050965D01*
Y0046966D01*
Y0049966D01*
X0082338D01*
X0088336Y0046966D02*
Y0052965D01*
X0090336Y0050965D01*
X0092335Y0052965D01*
Y0046966D01*
X0098333Y0052965D02*
X0094335D01*
Y0046966D01*
X0098333D01*
X0094335Y0049966D02*
X0096334D01*
X0106331Y0048966D02*
X0110329D01*
X0106331Y0050965D02*
X0110329D01*
X0454050Y0047966D02*
X0455050Y0046966D01*
X0457049D01*
X0458049Y0047966D01*
Y0051965D01*
X0457049Y0052965D01*
X0455050D01*
X0454050Y0051965D01*
Y0050965D01*
X0455050Y0049966D01*
X0458049D01*
X0460048Y0050965D02*
X0461048D01*
Y0049966D01*
X0460048D01*
Y0050965D01*
Y0047966D02*
X0461048D01*
Y0046966D01*
X0460048D01*
Y0047966D01*
X0465046Y0051965D02*
X0466046Y0052965D01*
X0468046D01*
X0469045Y0051965D01*
Y0050965D01*
X0468046Y0049966D01*
X0467046D01*
X0468046D01*
X0469045Y0048966D01*
Y0047966D01*
X0468046Y0046966D01*
X0466046D01*
X0465046Y0047966D01*
X0471044Y0052965D02*
X0475043D01*
Y0051965D01*
X0471044Y0047966D01*
Y0046966D01*
X0477043Y0050965D02*
X0478042D01*
Y0049966D01*
X0477043D01*
Y0050965D01*
Y0047966D02*
X0478042D01*
Y0046966D01*
X0477043D01*
Y0047966D01*
X0482041Y0051965D02*
X0483041Y0052965D01*
X0485040D01*
X0486040Y0051965D01*
Y0050965D01*
X0485040Y0049966D01*
X0484040D01*
X0485040D01*
X0486040Y0048966D01*
Y0047966D01*
X0485040Y0046966D01*
X0483041D01*
X0482041Y0047966D01*
X0488039Y0051965D02*
X0489039Y0052965D01*
X0491038D01*
X0492038Y0051965D01*
Y0050965D01*
X0491038Y0049966D01*
X0490038D01*
X0491038D01*
X0492038Y0048966D01*
Y0047966D01*
X0491038Y0046966D01*
X0489039D01*
X0488039Y0047966D01*
X0500035Y0046966D02*
Y0050965D01*
X0502035Y0052965D01*
X0504034Y0050965D01*
Y0046966D01*
Y0049966D01*
X0500035D01*
X0506033Y0046966D02*
Y0052965D01*
X0508033Y0050965D01*
X0510032Y0052965D01*
Y0046966D01*
X0580500Y0052965D02*
X0584499D01*
X0582499D01*
Y0046966D01*
X0590497Y0052965D02*
X0586498D01*
Y0046966D01*
X0590497D01*
X0586498Y0049966D02*
X0588497D01*
X0592496Y0052965D02*
X0596495Y0046966D01*
Y0052965D02*
X0592496Y0046966D01*
X0598494D02*
Y0050965D01*
X0600493Y0052965D01*
X0602493Y0050965D01*
Y0046966D01*
Y0049966D01*
X0598494D01*
X0608491Y0051965D02*
X0607491Y0052965D01*
X0605492D01*
X0604492Y0051965D01*
Y0050965D01*
X0605492Y0049966D01*
X0607491D01*
X0608491Y0048966D01*
Y0047966D01*
X0607491Y0046966D01*
X0605492D01*
X0604492Y0047966D01*
X0616488Y0052965D02*
X0618488D01*
X0617488D01*
Y0046966D01*
X0616488D01*
X0618488D01*
X0621487D02*
Y0052965D01*
X0625486Y0046966D01*
Y0052965D01*
X0631484Y0051965D02*
X0630484Y0052965D01*
X0628484D01*
X0627485Y0051965D01*
Y0050965D01*
X0628484Y0049966D01*
X0630484D01*
X0631484Y0048966D01*
Y0047966D01*
X0630484Y0046966D01*
X0628484D01*
X0627485Y0047966D01*
X0633483Y0052965D02*
X0637482D01*
X0635482D01*
Y0046966D01*
X0639481D02*
Y0052965D01*
X0642480D01*
X0643480Y0051965D01*
Y0049966D01*
X0642480Y0048966D01*
X0639481D01*
X0641480D02*
X0643480Y0046966D01*
X0645479Y0052965D02*
Y0047966D01*
X0646479Y0046966D01*
X0648478D01*
X0649478Y0047966D01*
Y0052965D01*
X0651477Y0046966D02*
Y0052965D01*
X0653476Y0050965D01*
X0655476Y0052965D01*
Y0046966D01*
X0661474Y0052965D02*
X0657475D01*
Y0046966D01*
X0661474D01*
X0657475Y0049966D02*
X0659474D01*
X0663473Y0046966D02*
Y0052965D01*
X0667472Y0046966D01*
Y0052965D01*
X0669471D02*
X0673470D01*
X0671471D01*
Y0046966D01*
X0679468Y0051965D02*
X0678468Y0052965D01*
X0676469D01*
X0675469Y0051965D01*
Y0050965D01*
X0676469Y0049966D01*
X0678468D01*
X0679468Y0048966D01*
Y0047966D01*
X0678468Y0046966D01*
X0676469D01*
X0675469Y0047966D01*
G54D14*
X0497200Y0080717D02*
Y0101050D01*
X0413200Y0080717D02*
Y0101050D01*
X0040000Y0080717D02*
X0700200D01*
X0040000Y0060383D02*
X0700000D01*
X0040000Y0040050D02*
X0440500D01*
X0040050Y0101050D02*
X0700200D01*
X0040050Y0040050D02*
Y0101050D01*
Y0040050D02*
X0197600D01*
X0040000D02*
Y0101050D01*
X0286500Y0040050D02*
Y0101050D01*
X0700200Y0040050D02*
Y0101050D01*
X0440500Y0040050D02*
X0700200D01*
X0559400Y0039400D02*
Y0059683D01*
G54D15*
X0189279Y0415211D02*
D03*
Y0238046D02*
D03*
X0470775Y0415211D02*
D03*
Y0238046D02*
D03*
G54D16*
X0275893Y0302022D02*
D03*
X0245381Y0274463D02*
D03*
G54D17*
X0275893Y0321707D02*
D03*
X0245381Y0294148D02*
D03*
G54D18*
X0398924Y0368951D02*
D03*
G54D19*
X0385145D02*
D03*
X0418610Y0354187D02*
D03*
G54D20*
X0428137Y0304148D02*
D03*
X0376405D02*
D03*
G54D21*
X0416050Y0314817D02*
D03*
X0406208D02*
D03*
X0398334D02*
D03*
X0388491D02*
D03*
X0285735Y0333203D02*
D03*
X0290735Y0343203D02*
D03*
X0285735Y0353203D02*
D03*
G54D22*
X0250302Y0321707D02*
D03*
G54D23*
X0230617D02*
D03*
G54D24*
X0309358Y0281353D02*
D03*
X0325106D02*
D03*
G54D25*
X0418610Y0340408D02*
D03*
G54D26*
X0333964Y0374857D02*
D03*
X0363491D02*
D03*
G54D27*
Y0306451D02*
D03*
X0379239Y0349266D02*
D03*
X0374318Y0358124D02*
D03*
X0363491Y0350743D02*
D03*
X0304436Y0353203D02*
D03*
Y0333518D02*
D03*
Y0323676D02*
D03*
Y0303991D02*
D03*
G54D28*
X0335932Y0271510D02*
D03*
X0298531D02*
D03*
G54D29*
X0266050Y0272495D02*
D03*
X0260145Y0269542D02*
D03*
X0264082Y0268558D02*
D03*
X0325203Y0363046D02*
D03*
X0254239Y0338439D02*
D03*
X0260834D02*
D03*
X0267035D02*
D03*
X0272940D02*
D03*
X0274909Y0363046D02*
D03*
X0292625Y0365014D02*
D03*
X0368413Y0341392D02*
D03*
Y0334502D02*
D03*
M02*
