%FSAX25Y25*%
%MOIN*%
G70*
G01*
G75*
G04 Layer_Color=32896*
%ADD10R,0.06300X0.05000*%
%ADD11C,0.01969*%
%ADD12C,0.03937*%
%ADD13C,0.00800*%
%ADD14C,0.01000*%
%ADD15C,0.31496*%
%ADD16C,0.05512*%
%ADD17R,0.05512X0.05512*%
%ADD18R,0.05118X0.05118*%
%ADD19C,0.05118*%
%ADD20C,0.11811*%
%ADD21C,0.06000*%
%ADD22C,0.06299*%
%ADD23R,0.06299X0.06299*%
%ADD24C,0.05906*%
%ADD25R,0.05118X0.05118*%
%ADD26C,0.05315*%
%ADD27C,0.07874*%
%ADD28C,0.08700*%
%ADD29C,0.03937*%
%ADD30R,0.05000X0.06300*%
%ADD31R,0.05512X0.05472*%
%ADD32R,0.19134X0.13228*%
%ADD33R,0.07284X0.05118*%
%ADD34R,0.03740X0.03937*%
%ADD35R,0.03937X0.03740*%
%ADD36R,0.13780X0.05906*%
%ADD37R,0.05512X0.03543*%
%ADD38R,0.05512X0.08661*%
%ADD39R,0.10630X0.05118*%
%ADD40R,0.05984X0.04724*%
%ADD41R,0.08500X0.10799*%
%ADD42R,0.04803X0.03602*%
%ADD43O,0.08661X0.02362*%
%ADD44C,0.03150*%
%ADD45C,0.00700*%
%ADD46C,0.00787*%
%ADD47C,0.00500*%
%ADD48C,0.00799*%
%ADD49C,0.01400*%
%ADD50C,0.00984*%
%ADD51C,0.00591*%
%ADD52R,0.06900X0.05600*%
%ADD53C,0.32096*%
%ADD54C,0.00600*%
%ADD55C,0.06112*%
%ADD56R,0.06112X0.06112*%
%ADD57R,0.05718X0.05718*%
%ADD58C,0.05718*%
%ADD59C,0.12411*%
%ADD60C,0.06600*%
%ADD61C,0.06899*%
%ADD62R,0.06899X0.06899*%
%ADD63C,0.06506*%
%ADD64R,0.05718X0.05718*%
%ADD65C,0.05915*%
%ADD66C,0.08268*%
%ADD67C,0.00394*%
%ADD68C,0.09300*%
%ADD69R,0.05600X0.06900*%
%ADD70R,0.06112X0.06072*%
%ADD71R,0.19734X0.13828*%
%ADD72R,0.07883X0.05718*%
%ADD73R,0.04340X0.04537*%
%ADD74R,0.04537X0.04340*%
%ADD75C,0.07874*%
%ADD76R,0.14379X0.06506*%
%ADD77R,0.06112X0.04143*%
%ADD78R,0.06112X0.09261*%
%ADD79R,0.11230X0.05718*%
%ADD80R,0.06584X0.05324*%
%ADD81R,0.09100X0.11399*%
%ADD82R,0.05403X0.04202*%
%ADD83O,0.09261X0.02962*%
%ADD84C,0.00000*%
%ADD85C,0.00709*%
%ADD86R,0.30000X0.10000*%
%ADD87R,0.08600X0.02000*%
%ADD88R,0.02000X0.01500*%
%ADD89R,0.02000X0.16400*%
%ADD90R,0.09200X0.02000*%
G36*
X0369892Y0272557D02*
Y0272484D01*
Y0272412D01*
X0369674D01*
Y0272339D01*
X0369528D01*
Y0272266D01*
X0369456D01*
Y0272194D01*
X0369383D01*
Y0272121D01*
Y0272048D01*
X0369310D01*
Y0271976D01*
Y0271903D01*
Y0271830D01*
Y0271758D01*
Y0271685D01*
Y0271612D01*
Y0271539D01*
Y0271467D01*
Y0271394D01*
Y0271321D01*
Y0271249D01*
Y0271176D01*
Y0271103D01*
Y0271030D01*
Y0270958D01*
Y0270885D01*
Y0270812D01*
Y0270740D01*
Y0270667D01*
Y0270594D01*
Y0270521D01*
Y0270449D01*
Y0270376D01*
Y0270304D01*
Y0270231D01*
Y0270158D01*
Y0270085D01*
Y0270013D01*
Y0269940D01*
Y0269867D01*
Y0269795D01*
Y0269722D01*
Y0269649D01*
Y0269577D01*
Y0269504D01*
Y0269431D01*
Y0269358D01*
Y0269286D01*
Y0269213D01*
Y0269140D01*
Y0269068D01*
Y0268995D01*
Y0268922D01*
Y0268849D01*
Y0268777D01*
Y0268704D01*
Y0268631D01*
Y0268559D01*
Y0268486D01*
Y0268413D01*
Y0268340D01*
Y0268268D01*
Y0268195D01*
Y0268122D01*
Y0268050D01*
Y0267977D01*
Y0267904D01*
Y0267832D01*
Y0267759D01*
Y0267686D01*
Y0267614D01*
Y0267541D01*
X0369383D01*
Y0267468D01*
Y0267395D01*
Y0267323D01*
X0369456D01*
Y0267250D01*
X0369601D01*
Y0267177D01*
X0369746D01*
Y0267105D01*
X0369892D01*
Y0267032D01*
Y0266959D01*
Y0266886D01*
X0365166D01*
Y0266959D01*
Y0267032D01*
X0365094D01*
Y0267105D01*
Y0267177D01*
Y0267250D01*
X0365021D01*
Y0267323D01*
Y0267395D01*
X0364948D01*
Y0267468D01*
Y0267541D01*
Y0267614D01*
X0364876D01*
Y0267686D01*
Y0267759D01*
X0364803D01*
Y0267832D01*
Y0267904D01*
Y0267977D01*
X0364730D01*
Y0268050D01*
Y0268122D01*
X0364657D01*
Y0268195D01*
Y0268268D01*
X0364730D01*
Y0268340D01*
X0364876D01*
Y0268268D01*
X0364948D01*
Y0268195D01*
X0365021D01*
Y0268122D01*
X0365094D01*
Y0268050D01*
X0365166D01*
Y0267977D01*
X0365239D01*
Y0267904D01*
X0365312D01*
Y0267832D01*
X0365457D01*
Y0267759D01*
X0365603D01*
Y0267686D01*
X0365893D01*
Y0267614D01*
X0368002D01*
Y0267686D01*
Y0267759D01*
X0368074D01*
Y0267832D01*
Y0267904D01*
Y0267977D01*
Y0268050D01*
Y0268122D01*
Y0268195D01*
Y0268268D01*
Y0268340D01*
Y0268413D01*
Y0268486D01*
Y0268559D01*
Y0268631D01*
Y0268704D01*
Y0268777D01*
Y0268849D01*
Y0268922D01*
Y0268995D01*
Y0269068D01*
Y0269140D01*
Y0269213D01*
Y0269286D01*
Y0269358D01*
Y0269431D01*
Y0269504D01*
Y0269577D01*
X0366257D01*
Y0269504D01*
X0366039D01*
Y0269431D01*
X0365966D01*
Y0269358D01*
Y0269286D01*
X0365893D01*
Y0269213D01*
Y0269140D01*
X0365675D01*
Y0269213D01*
Y0269286D01*
Y0269358D01*
Y0269431D01*
Y0269504D01*
Y0269577D01*
Y0269649D01*
Y0269722D01*
Y0269795D01*
Y0269867D01*
Y0269940D01*
Y0270013D01*
Y0270085D01*
Y0270158D01*
Y0270231D01*
Y0270304D01*
Y0270376D01*
Y0270449D01*
Y0270521D01*
Y0270594D01*
Y0270667D01*
Y0270740D01*
X0365893D01*
Y0270667D01*
Y0270594D01*
X0365966D01*
Y0270521D01*
Y0270449D01*
X0366039D01*
Y0270376D01*
X0366111D01*
Y0270304D01*
X0366330D01*
Y0270231D01*
X0368074D01*
Y0270304D01*
Y0270376D01*
Y0270449D01*
Y0270521D01*
Y0270594D01*
Y0270667D01*
Y0270740D01*
Y0270812D01*
Y0270885D01*
Y0270958D01*
Y0271030D01*
Y0271103D01*
Y0271176D01*
Y0271249D01*
Y0271321D01*
Y0271394D01*
Y0271467D01*
Y0271539D01*
Y0271612D01*
Y0271685D01*
Y0271758D01*
X0368002D01*
Y0271830D01*
Y0271903D01*
X0367784D01*
Y0271976D01*
X0366257D01*
Y0271903D01*
X0365966D01*
Y0271830D01*
X0365748D01*
Y0271758D01*
X0365603D01*
Y0271685D01*
X0365530D01*
Y0271612D01*
X0365457D01*
Y0271539D01*
X0365385D01*
Y0271467D01*
X0365239D01*
Y0271394D01*
X0365166D01*
Y0271321D01*
X0365094D01*
Y0271249D01*
X0365021D01*
Y0271321D01*
X0364948D01*
Y0271394D01*
Y0271467D01*
Y0271539D01*
X0365021D01*
Y0271612D01*
Y0271685D01*
Y0271758D01*
X0365094D01*
Y0271830D01*
Y0271903D01*
X0365166D01*
Y0271976D01*
Y0272048D01*
Y0272121D01*
X0365239D01*
Y0272194D01*
Y0272266D01*
Y0272339D01*
X0365312D01*
Y0272412D01*
Y0272484D01*
X0365385D01*
Y0272557D01*
Y0272630D01*
X0369892D01*
Y0272557D01*
D02*
G37*
G36*
X0405951D02*
Y0272484D01*
Y0272412D01*
X0405806D01*
Y0272339D01*
X0405660D01*
Y0272266D01*
X0405588D01*
Y0272194D01*
X0405515D01*
Y0272121D01*
Y0272048D01*
X0405442D01*
Y0271976D01*
Y0271903D01*
Y0271830D01*
Y0271758D01*
Y0271685D01*
Y0271612D01*
Y0271539D01*
Y0271467D01*
Y0271394D01*
Y0271321D01*
Y0271249D01*
Y0271176D01*
Y0271103D01*
Y0271030D01*
Y0270958D01*
Y0270885D01*
Y0270812D01*
Y0270740D01*
Y0270667D01*
Y0270594D01*
Y0270521D01*
Y0270449D01*
Y0270376D01*
Y0270304D01*
Y0270231D01*
Y0270158D01*
Y0270085D01*
Y0270013D01*
Y0269940D01*
Y0269867D01*
Y0269795D01*
Y0269722D01*
Y0269649D01*
Y0269577D01*
Y0269504D01*
Y0269431D01*
Y0269358D01*
Y0269286D01*
Y0269213D01*
Y0269140D01*
Y0269068D01*
Y0268995D01*
Y0268922D01*
Y0268849D01*
Y0268777D01*
Y0268704D01*
Y0268631D01*
Y0268559D01*
Y0268486D01*
Y0268413D01*
Y0268340D01*
Y0268268D01*
Y0268195D01*
Y0268122D01*
Y0268050D01*
Y0267977D01*
Y0267904D01*
Y0267832D01*
Y0267759D01*
Y0267686D01*
Y0267614D01*
Y0267541D01*
Y0267468D01*
X0405515D01*
Y0267395D01*
Y0267323D01*
X0405588D01*
Y0267250D01*
X0405660D01*
Y0267177D01*
X0405878D01*
Y0267105D01*
X0405951D01*
Y0267032D01*
Y0266959D01*
Y0266886D01*
X0404061D01*
Y0266959D01*
Y0267032D01*
Y0267105D01*
X0404134D01*
Y0267177D01*
X0404279D01*
Y0267250D01*
X0404424D01*
Y0267323D01*
X0404497D01*
Y0267395D01*
X0404570D01*
Y0267468D01*
Y0267541D01*
Y0267614D01*
X0404642D01*
Y0267686D01*
Y0267759D01*
Y0267832D01*
Y0267904D01*
Y0267977D01*
Y0268050D01*
Y0268122D01*
Y0268195D01*
Y0268268D01*
Y0268340D01*
Y0268413D01*
Y0268486D01*
Y0268559D01*
Y0268631D01*
Y0268704D01*
Y0268777D01*
Y0268849D01*
Y0268922D01*
Y0268995D01*
Y0269068D01*
Y0269140D01*
Y0269213D01*
Y0269286D01*
Y0269358D01*
Y0269431D01*
Y0269504D01*
Y0269577D01*
Y0269649D01*
Y0269722D01*
Y0269795D01*
Y0269867D01*
Y0269940D01*
Y0270013D01*
Y0270085D01*
Y0270158D01*
Y0270231D01*
Y0270304D01*
Y0270376D01*
Y0270449D01*
Y0270521D01*
Y0270594D01*
Y0270667D01*
Y0270740D01*
Y0270812D01*
Y0270885D01*
Y0270958D01*
Y0271030D01*
Y0271103D01*
Y0271176D01*
X0404570D01*
Y0271103D01*
Y0271030D01*
X0404497D01*
Y0270958D01*
X0404424D01*
Y0270885D01*
X0404352D01*
Y0270812D01*
X0404279D01*
Y0270740D01*
X0404206D01*
Y0270667D01*
X0404134D01*
Y0270594D01*
X0404061D01*
Y0270521D01*
X0403988D01*
Y0270449D01*
Y0270376D01*
X0403916D01*
Y0270304D01*
X0403843D01*
Y0270231D01*
X0403770D01*
Y0270158D01*
X0403697D01*
Y0270085D01*
X0403625D01*
Y0270013D01*
X0403552D01*
Y0269940D01*
X0403479D01*
Y0269867D01*
Y0269795D01*
X0403407D01*
Y0269722D01*
X0403334D01*
Y0269649D01*
X0403261D01*
Y0269577D01*
X0403189D01*
Y0269504D01*
X0403116D01*
Y0269431D01*
X0403043D01*
Y0269358D01*
X0402970D01*
Y0269286D01*
Y0269213D01*
X0402898D01*
Y0269140D01*
X0402825D01*
Y0269068D01*
X0402752D01*
Y0268995D01*
X0402680D01*
Y0268922D01*
X0402607D01*
Y0268849D01*
X0402534D01*
Y0268777D01*
X0402461D01*
Y0268704D01*
Y0268631D01*
X0402389D01*
Y0268559D01*
X0402316D01*
Y0268486D01*
X0402243D01*
Y0268413D01*
X0402171D01*
Y0268340D01*
X0402098D01*
Y0268268D01*
X0402025D01*
Y0268195D01*
X0401953D01*
Y0268122D01*
Y0268050D01*
X0401880D01*
Y0267977D01*
X0401807D01*
Y0267904D01*
X0401734D01*
Y0267832D01*
X0401662D01*
Y0267759D01*
X0401589D01*
Y0267686D01*
X0401516D01*
Y0267614D01*
X0401444D01*
Y0267541D01*
Y0267468D01*
X0401371D01*
Y0267395D01*
X0401298D01*
Y0267323D01*
X0401226D01*
Y0267250D01*
X0401153D01*
Y0267177D01*
X0401080D01*
Y0267105D01*
X0401008D01*
Y0267032D01*
X0400935D01*
Y0266959D01*
Y0266886D01*
X0400862D01*
Y0266814D01*
X0400644D01*
Y0266886D01*
Y0266959D01*
Y0267032D01*
Y0267105D01*
Y0267177D01*
Y0267250D01*
Y0267323D01*
Y0267395D01*
Y0267468D01*
Y0267541D01*
Y0267614D01*
Y0267686D01*
Y0267759D01*
Y0267832D01*
Y0267904D01*
Y0267977D01*
Y0268050D01*
Y0268122D01*
Y0268195D01*
Y0268268D01*
Y0268340D01*
Y0268413D01*
Y0268486D01*
Y0268559D01*
Y0268631D01*
Y0268704D01*
Y0268777D01*
Y0268849D01*
Y0268922D01*
Y0268995D01*
Y0269068D01*
Y0269140D01*
Y0269213D01*
Y0269286D01*
Y0269358D01*
Y0269431D01*
Y0269504D01*
Y0269577D01*
Y0269649D01*
Y0269722D01*
Y0269795D01*
Y0269867D01*
Y0269940D01*
Y0270013D01*
Y0270085D01*
Y0270158D01*
Y0270231D01*
Y0270304D01*
Y0270376D01*
Y0270449D01*
Y0270521D01*
Y0270594D01*
Y0270667D01*
Y0270740D01*
Y0270812D01*
Y0270885D01*
Y0270958D01*
Y0271030D01*
Y0271103D01*
Y0271176D01*
Y0271249D01*
Y0271321D01*
Y0271394D01*
Y0271467D01*
Y0271539D01*
Y0271612D01*
Y0271685D01*
Y0271758D01*
Y0271830D01*
X0400571D01*
Y0271903D01*
Y0271976D01*
Y0272048D01*
Y0272121D01*
X0400499D01*
Y0272194D01*
X0400426D01*
Y0272266D01*
X0400353D01*
Y0272339D01*
X0400281D01*
Y0272412D01*
X0400135D01*
Y0272484D01*
Y0272557D01*
Y0272630D01*
X0401880D01*
Y0272557D01*
Y0272484D01*
Y0272412D01*
X0401734D01*
Y0272339D01*
X0401589D01*
Y0272266D01*
X0401516D01*
Y0272194D01*
X0401444D01*
Y0272121D01*
Y0272048D01*
Y0271976D01*
X0401371D01*
Y0271903D01*
Y0271830D01*
Y0271758D01*
Y0271685D01*
Y0271612D01*
Y0271539D01*
Y0271467D01*
Y0271394D01*
Y0271321D01*
Y0271249D01*
Y0271176D01*
Y0271103D01*
Y0271030D01*
Y0270958D01*
Y0270885D01*
Y0270812D01*
Y0270740D01*
Y0270667D01*
Y0270594D01*
Y0270521D01*
Y0270449D01*
Y0270376D01*
Y0270304D01*
Y0270231D01*
Y0270158D01*
Y0270085D01*
Y0270013D01*
Y0269940D01*
Y0269867D01*
Y0269795D01*
Y0269722D01*
Y0269649D01*
Y0269577D01*
Y0269504D01*
Y0269431D01*
X0401516D01*
Y0269504D01*
Y0269577D01*
X0401589D01*
Y0269649D01*
X0401662D01*
Y0269722D01*
X0401734D01*
Y0269795D01*
X0401807D01*
Y0269867D01*
X0401880D01*
Y0269940D01*
X0401953D01*
Y0270013D01*
X0402025D01*
Y0270085D01*
Y0270158D01*
X0402098D01*
Y0270231D01*
X0402171D01*
Y0270304D01*
X0402243D01*
Y0270376D01*
X0402316D01*
Y0270449D01*
X0402389D01*
Y0270521D01*
X0402461D01*
Y0270594D01*
X0402534D01*
Y0270667D01*
Y0270740D01*
X0402607D01*
Y0270812D01*
X0402680D01*
Y0270885D01*
X0402752D01*
Y0270958D01*
X0402825D01*
Y0271030D01*
X0402898D01*
Y0271103D01*
X0402970D01*
Y0271176D01*
X0403043D01*
Y0271249D01*
Y0271321D01*
X0403116D01*
Y0271394D01*
X0403189D01*
Y0271467D01*
X0403261D01*
Y0271539D01*
X0403334D01*
Y0271612D01*
X0403407D01*
Y0271685D01*
X0403479D01*
Y0271758D01*
X0403552D01*
Y0271830D01*
X0403625D01*
Y0271903D01*
Y0271976D01*
X0403697D01*
Y0272048D01*
X0403770D01*
Y0272121D01*
X0403843D01*
Y0272194D01*
X0403916D01*
Y0272266D01*
X0403988D01*
Y0272339D01*
X0404061D01*
Y0272412D01*
X0404134D01*
Y0272484D01*
Y0272557D01*
X0404206D01*
Y0272630D01*
X0405951D01*
Y0272557D01*
D02*
G37*
G36*
X0358187D02*
Y0272484D01*
Y0272412D01*
X0358260D01*
Y0272339D01*
Y0272266D01*
Y0272194D01*
X0358333D01*
Y0272121D01*
Y0272048D01*
Y0271976D01*
X0358405D01*
Y0271903D01*
Y0271830D01*
Y0271758D01*
X0358478D01*
Y0271685D01*
Y0271612D01*
Y0271539D01*
Y0271467D01*
X0358551D01*
Y0271394D01*
Y0271321D01*
Y0271249D01*
X0358623D01*
Y0271176D01*
X0358551D01*
Y0271103D01*
X0358405D01*
Y0271176D01*
X0358333D01*
Y0271249D01*
X0358260D01*
Y0271321D01*
X0358187D01*
Y0271394D01*
Y0271467D01*
X0358115D01*
Y0271539D01*
X0358042D01*
Y0271612D01*
X0357969D01*
Y0271685D01*
X0357896D01*
Y0271758D01*
X0357751D01*
Y0271830D01*
X0357606D01*
Y0271903D01*
X0357315D01*
Y0271976D01*
X0356661D01*
Y0271903D01*
X0356588D01*
Y0271830D01*
X0356515D01*
Y0271758D01*
Y0271685D01*
Y0271612D01*
Y0271539D01*
Y0271467D01*
Y0271394D01*
Y0271321D01*
Y0271249D01*
Y0271176D01*
Y0271103D01*
Y0271030D01*
Y0270958D01*
Y0270885D01*
Y0270812D01*
Y0270740D01*
Y0270667D01*
Y0270594D01*
Y0270521D01*
Y0270449D01*
Y0270376D01*
Y0270304D01*
Y0270231D01*
Y0270158D01*
Y0270085D01*
Y0270013D01*
Y0269940D01*
Y0269867D01*
Y0269795D01*
Y0269722D01*
Y0269649D01*
Y0269577D01*
Y0269504D01*
Y0269431D01*
Y0269358D01*
Y0269286D01*
Y0269213D01*
Y0269140D01*
Y0269068D01*
Y0268995D01*
Y0268922D01*
Y0268849D01*
Y0268777D01*
Y0268704D01*
Y0268631D01*
Y0268559D01*
Y0268486D01*
Y0268413D01*
Y0268340D01*
Y0268268D01*
Y0268195D01*
Y0268122D01*
Y0268050D01*
Y0267977D01*
Y0267904D01*
Y0267832D01*
Y0267759D01*
Y0267686D01*
Y0267614D01*
Y0267541D01*
Y0267468D01*
X0356588D01*
Y0267395D01*
Y0267323D01*
X0356661D01*
Y0267250D01*
X0356806D01*
Y0267177D01*
X0357024D01*
Y0267105D01*
X0357097D01*
Y0267032D01*
Y0266959D01*
Y0266886D01*
X0354698D01*
Y0266959D01*
Y0267032D01*
Y0267105D01*
X0354770D01*
Y0267177D01*
X0354988D01*
Y0267250D01*
X0355134D01*
Y0267323D01*
X0355206D01*
Y0267395D01*
Y0267468D01*
X0355279D01*
Y0267541D01*
Y0267614D01*
Y0267686D01*
Y0267759D01*
Y0267832D01*
Y0267904D01*
Y0267977D01*
Y0268050D01*
Y0268122D01*
Y0268195D01*
Y0268268D01*
Y0268340D01*
Y0268413D01*
Y0268486D01*
Y0268559D01*
Y0268631D01*
Y0268704D01*
Y0268777D01*
Y0268849D01*
Y0268922D01*
Y0268995D01*
Y0269068D01*
Y0269140D01*
Y0269213D01*
Y0269286D01*
Y0269358D01*
Y0269431D01*
Y0269504D01*
Y0269577D01*
Y0269649D01*
Y0269722D01*
Y0269795D01*
Y0269867D01*
Y0269940D01*
Y0270013D01*
Y0270085D01*
Y0270158D01*
Y0270231D01*
Y0270304D01*
Y0270376D01*
Y0270449D01*
Y0270521D01*
Y0270594D01*
Y0270667D01*
Y0270740D01*
Y0270812D01*
Y0270885D01*
Y0270958D01*
Y0271030D01*
Y0271103D01*
Y0271176D01*
Y0271249D01*
Y0271321D01*
Y0271394D01*
Y0271467D01*
Y0271539D01*
Y0271612D01*
Y0271685D01*
Y0271758D01*
Y0271830D01*
X0355206D01*
Y0271903D01*
X0355134D01*
Y0271976D01*
X0354480D01*
Y0271903D01*
X0354189D01*
Y0271830D01*
X0353971D01*
Y0271758D01*
X0353898D01*
Y0271685D01*
X0353825D01*
Y0271612D01*
X0353752D01*
Y0271539D01*
X0353680D01*
Y0271467D01*
X0353607D01*
Y0271394D01*
X0353534D01*
Y0271321D01*
X0353462D01*
Y0271249D01*
X0353389D01*
Y0271176D01*
Y0271103D01*
X0353171D01*
Y0271176D01*
Y0271249D01*
Y0271321D01*
Y0271394D01*
X0353244D01*
Y0271467D01*
Y0271539D01*
Y0271612D01*
X0353316D01*
Y0271685D01*
Y0271758D01*
Y0271830D01*
Y0271903D01*
X0353389D01*
Y0271976D01*
Y0272048D01*
Y0272121D01*
X0353462D01*
Y0272194D01*
Y0272266D01*
Y0272339D01*
X0353534D01*
Y0272412D01*
Y0272484D01*
Y0272557D01*
X0353607D01*
Y0272630D01*
X0358187D01*
Y0272557D01*
D02*
G37*
G36*
X0351426Y0272630D02*
X0351717D01*
Y0272557D01*
X0351862D01*
Y0272484D01*
X0352008D01*
Y0272412D01*
X0352153D01*
Y0272339D01*
X0352226D01*
Y0272266D01*
X0352371D01*
Y0272194D01*
X0352444D01*
Y0272121D01*
Y0272048D01*
X0352517D01*
Y0271976D01*
X0352589D01*
Y0271903D01*
X0352662D01*
Y0271830D01*
Y0271758D01*
X0352735D01*
Y0271685D01*
Y0271612D01*
Y0271539D01*
X0352807D01*
Y0271467D01*
Y0271394D01*
Y0271321D01*
Y0271249D01*
Y0271176D01*
Y0271103D01*
Y0271030D01*
Y0270958D01*
Y0270885D01*
Y0270812D01*
Y0270740D01*
Y0270667D01*
Y0270594D01*
Y0270521D01*
X0352735D01*
Y0270449D01*
Y0270376D01*
Y0270304D01*
X0352662D01*
Y0270231D01*
X0352589D01*
Y0270158D01*
Y0270085D01*
X0352517D01*
Y0270013D01*
X0352444D01*
Y0269940D01*
X0352371D01*
Y0269867D01*
X0352226D01*
Y0269795D01*
X0352153D01*
Y0269722D01*
X0352008D01*
Y0269649D01*
X0351862D01*
Y0269577D01*
X0351717D01*
Y0269504D01*
X0351426D01*
Y0269431D01*
X0351135D01*
Y0269358D01*
X0350845D01*
Y0269286D01*
X0350481D01*
Y0269213D01*
X0350190D01*
Y0269140D01*
X0349972D01*
Y0269068D01*
X0349754D01*
Y0268995D01*
X0349681D01*
Y0268922D01*
X0349536D01*
Y0268849D01*
Y0268777D01*
X0349463D01*
Y0268704D01*
X0349391D01*
Y0268631D01*
Y0268559D01*
Y0268486D01*
Y0268413D01*
Y0268340D01*
Y0268268D01*
Y0268195D01*
Y0268122D01*
X0349463D01*
Y0268050D01*
Y0267977D01*
X0349536D01*
Y0267904D01*
X0349609D01*
Y0267832D01*
X0349681D01*
Y0267759D01*
X0349754D01*
Y0267686D01*
X0349972D01*
Y0267614D01*
X0350190D01*
Y0267541D01*
X0350990D01*
Y0267614D01*
X0351281D01*
Y0267686D01*
X0351499D01*
Y0267759D01*
X0351717D01*
Y0267832D01*
X0351862D01*
Y0267904D01*
X0351935D01*
Y0267977D01*
X0352080D01*
Y0268050D01*
X0352153D01*
Y0268122D01*
X0352226D01*
Y0268195D01*
X0352371D01*
Y0268268D01*
X0352444D01*
Y0268340D01*
X0352517D01*
Y0268413D01*
X0352589D01*
Y0268486D01*
X0352662D01*
Y0268559D01*
X0352735D01*
Y0268631D01*
X0352807D01*
Y0268704D01*
X0352953D01*
Y0268631D01*
Y0268559D01*
Y0268486D01*
Y0268413D01*
Y0268340D01*
X0352880D01*
Y0268268D01*
Y0268195D01*
Y0268122D01*
Y0268050D01*
X0352807D01*
Y0267977D01*
Y0267904D01*
Y0267832D01*
Y0267759D01*
X0352735D01*
Y0267686D01*
Y0267614D01*
Y0267541D01*
X0352662D01*
Y0267468D01*
Y0267395D01*
Y0267323D01*
Y0267250D01*
X0352589D01*
Y0267177D01*
Y0267105D01*
Y0267032D01*
Y0266959D01*
X0352517D01*
Y0266886D01*
X0352226D01*
Y0266959D01*
Y0267032D01*
Y0267105D01*
X0352153D01*
Y0267177D01*
X0351935D01*
Y0267105D01*
X0351790D01*
Y0267032D01*
X0351644D01*
Y0266959D01*
X0351426D01*
Y0266886D01*
X0351063D01*
Y0266814D01*
X0350045D01*
Y0266886D01*
X0349681D01*
Y0266959D01*
X0349463D01*
Y0267032D01*
X0349245D01*
Y0267105D01*
X0349100D01*
Y0267177D01*
X0349027D01*
Y0267250D01*
X0348882D01*
Y0267323D01*
X0348809D01*
Y0267395D01*
X0348736D01*
Y0267468D01*
X0348663D01*
Y0267541D01*
X0348591D01*
Y0267614D01*
X0348518D01*
Y0267686D01*
Y0267759D01*
X0348445D01*
Y0267832D01*
Y0267904D01*
X0348373D01*
Y0267977D01*
Y0268050D01*
X0348300D01*
Y0268122D01*
Y0268195D01*
Y0268268D01*
Y0268340D01*
Y0268413D01*
Y0268486D01*
X0348227D01*
Y0268559D01*
Y0268631D01*
Y0268704D01*
Y0268777D01*
X0348300D01*
Y0268849D01*
Y0268922D01*
Y0268995D01*
Y0269068D01*
Y0269140D01*
Y0269213D01*
Y0269286D01*
X0348373D01*
Y0269358D01*
Y0269431D01*
X0348445D01*
Y0269504D01*
Y0269577D01*
X0348518D01*
Y0269649D01*
X0348591D01*
Y0269722D01*
X0348663D01*
Y0269795D01*
X0348736D01*
Y0269867D01*
X0348809D01*
Y0269940D01*
X0348882D01*
Y0270013D01*
X0349027D01*
Y0270085D01*
X0349172D01*
Y0270158D01*
X0349318D01*
Y0270231D01*
X0349536D01*
Y0270304D01*
X0349754D01*
Y0270376D01*
X0350045D01*
Y0270449D01*
X0350408D01*
Y0270521D01*
X0350699D01*
Y0270594D01*
X0351063D01*
Y0270667D01*
X0351281D01*
Y0270740D01*
X0351499D01*
Y0270812D01*
X0351571D01*
Y0270885D01*
X0351644D01*
Y0270958D01*
X0351717D01*
Y0271030D01*
X0351790D01*
Y0271103D01*
Y0271176D01*
Y0271249D01*
Y0271321D01*
Y0271394D01*
Y0271467D01*
Y0271539D01*
X0351717D01*
Y0271612D01*
Y0271685D01*
X0351644D01*
Y0271758D01*
X0351571D01*
Y0271830D01*
X0351426D01*
Y0271903D01*
X0351208D01*
Y0271976D01*
X0350263D01*
Y0271903D01*
X0349972D01*
Y0271830D01*
X0349827D01*
Y0271758D01*
X0349609D01*
Y0271685D01*
X0349536D01*
Y0271612D01*
X0349391D01*
Y0271539D01*
X0349318D01*
Y0271467D01*
X0349172D01*
Y0271394D01*
X0349100D01*
Y0271321D01*
X0349027D01*
Y0271249D01*
X0348954D01*
Y0271176D01*
X0348882D01*
Y0271103D01*
X0348663D01*
Y0271176D01*
Y0271249D01*
Y0271321D01*
Y0271394D01*
X0348736D01*
Y0271467D01*
Y0271539D01*
Y0271612D01*
X0348809D01*
Y0271685D01*
Y0271758D01*
Y0271830D01*
Y0271903D01*
X0348882D01*
Y0271976D01*
Y0272048D01*
Y0272121D01*
X0348954D01*
Y0272194D01*
Y0272266D01*
Y0272339D01*
Y0272412D01*
X0349027D01*
Y0272484D01*
Y0272557D01*
Y0272630D01*
X0349318D01*
Y0272557D01*
X0349391D01*
Y0272484D01*
Y0272412D01*
X0349609D01*
Y0272484D01*
X0349754D01*
Y0272557D01*
X0349899D01*
Y0272630D01*
X0350190D01*
Y0272703D01*
X0351426D01*
Y0272630D01*
D02*
G37*
G36*
X0394901Y0272557D02*
Y0272484D01*
Y0272412D01*
X0394973D01*
Y0272339D01*
Y0272266D01*
Y0272194D01*
X0395046D01*
Y0272121D01*
Y0272048D01*
Y0271976D01*
Y0271903D01*
X0395119D01*
Y0271830D01*
Y0271758D01*
Y0271685D01*
X0395192D01*
Y0271612D01*
Y0271539D01*
Y0271467D01*
X0395264D01*
Y0271394D01*
Y0271321D01*
Y0271249D01*
X0395337D01*
Y0271176D01*
X0395264D01*
Y0271103D01*
X0395119D01*
Y0271176D01*
X0395046D01*
Y0271249D01*
X0394973D01*
Y0271321D01*
X0394901D01*
Y0271394D01*
X0394828D01*
Y0271467D01*
Y0271539D01*
X0394755D01*
Y0271612D01*
X0394683D01*
Y0271685D01*
X0394537D01*
Y0271758D01*
X0394464D01*
Y0271830D01*
X0394319D01*
Y0271903D01*
X0394028D01*
Y0271976D01*
X0393374D01*
Y0271903D01*
X0393229D01*
Y0271830D01*
Y0271758D01*
Y0271685D01*
Y0271612D01*
Y0271539D01*
Y0271467D01*
Y0271394D01*
Y0271321D01*
Y0271249D01*
Y0271176D01*
Y0271103D01*
Y0271030D01*
Y0270958D01*
Y0270885D01*
Y0270812D01*
Y0270740D01*
Y0270667D01*
Y0270594D01*
Y0270521D01*
Y0270449D01*
Y0270376D01*
Y0270304D01*
Y0270231D01*
Y0270158D01*
Y0270085D01*
Y0270013D01*
Y0269940D01*
Y0269867D01*
Y0269795D01*
Y0269722D01*
Y0269649D01*
Y0269577D01*
Y0269504D01*
Y0269431D01*
Y0269358D01*
Y0269286D01*
Y0269213D01*
Y0269140D01*
Y0269068D01*
Y0268995D01*
Y0268922D01*
Y0268849D01*
Y0268777D01*
Y0268704D01*
Y0268631D01*
Y0268559D01*
Y0268486D01*
Y0268413D01*
Y0268340D01*
Y0268268D01*
Y0268195D01*
Y0268122D01*
Y0268050D01*
Y0267977D01*
Y0267904D01*
Y0267832D01*
Y0267759D01*
Y0267686D01*
Y0267614D01*
Y0267541D01*
Y0267468D01*
X0393301D01*
Y0267395D01*
Y0267323D01*
X0393374D01*
Y0267250D01*
X0393519D01*
Y0267177D01*
X0393738D01*
Y0267105D01*
X0393810D01*
Y0267032D01*
Y0266959D01*
Y0266886D01*
X0391338D01*
Y0266959D01*
Y0267032D01*
Y0267105D01*
X0391484D01*
Y0267177D01*
X0391702D01*
Y0267250D01*
X0391847D01*
Y0267323D01*
X0391920D01*
Y0267395D01*
Y0267468D01*
Y0267541D01*
X0391993D01*
Y0267614D01*
Y0267686D01*
Y0267759D01*
Y0267832D01*
Y0267904D01*
Y0267977D01*
Y0268050D01*
Y0268122D01*
Y0268195D01*
Y0268268D01*
Y0268340D01*
Y0268413D01*
Y0268486D01*
Y0268559D01*
Y0268631D01*
Y0268704D01*
Y0268777D01*
Y0268849D01*
Y0268922D01*
Y0268995D01*
Y0269068D01*
Y0269140D01*
Y0269213D01*
Y0269286D01*
Y0269358D01*
Y0269431D01*
Y0269504D01*
Y0269577D01*
Y0269649D01*
Y0269722D01*
Y0269795D01*
Y0269867D01*
Y0269940D01*
Y0270013D01*
Y0270085D01*
Y0270158D01*
Y0270231D01*
Y0270304D01*
Y0270376D01*
Y0270449D01*
Y0270521D01*
Y0270594D01*
Y0270667D01*
Y0270740D01*
Y0270812D01*
Y0270885D01*
Y0270958D01*
Y0271030D01*
Y0271103D01*
Y0271176D01*
Y0271249D01*
Y0271321D01*
Y0271394D01*
Y0271467D01*
Y0271539D01*
Y0271612D01*
Y0271685D01*
Y0271758D01*
Y0271830D01*
X0391920D01*
Y0271903D01*
X0391847D01*
Y0271976D01*
X0391193D01*
Y0271903D01*
X0390902D01*
Y0271830D01*
X0390684D01*
Y0271758D01*
X0390611D01*
Y0271685D01*
X0390539D01*
Y0271612D01*
X0390466D01*
Y0271539D01*
X0390393D01*
Y0271467D01*
X0390321D01*
Y0271394D01*
X0390248D01*
Y0271321D01*
X0390175D01*
Y0271249D01*
X0390103D01*
Y0271176D01*
X0390030D01*
Y0271103D01*
X0389884D01*
Y0271176D01*
Y0271249D01*
Y0271321D01*
Y0271394D01*
Y0271467D01*
X0389957D01*
Y0271539D01*
Y0271612D01*
Y0271685D01*
X0390030D01*
Y0271758D01*
Y0271830D01*
Y0271903D01*
X0390103D01*
Y0271976D01*
Y0272048D01*
Y0272121D01*
X0390175D01*
Y0272194D01*
Y0272266D01*
Y0272339D01*
Y0272412D01*
X0390248D01*
Y0272484D01*
Y0272557D01*
Y0272630D01*
X0394901D01*
Y0272557D01*
D02*
G37*
G36*
X0409004Y0274302D02*
Y0274229D01*
X0408932D01*
Y0274157D01*
X0408714D01*
Y0274084D01*
X0408641D01*
Y0274011D01*
X0408496D01*
Y0273938D01*
Y0273866D01*
X0408423D01*
Y0273793D01*
Y0273720D01*
Y0273648D01*
X0408350D01*
Y0273575D01*
Y0273502D01*
Y0273430D01*
Y0273357D01*
Y0273284D01*
Y0273212D01*
Y0273139D01*
Y0273066D01*
Y0272993D01*
Y0272921D01*
Y0272848D01*
Y0272775D01*
Y0272703D01*
Y0272630D01*
Y0272557D01*
Y0272484D01*
Y0272412D01*
Y0272339D01*
Y0272266D01*
Y0272194D01*
Y0272121D01*
Y0272048D01*
Y0271976D01*
Y0271903D01*
Y0271830D01*
Y0271758D01*
Y0271685D01*
Y0271612D01*
Y0271539D01*
Y0271467D01*
Y0271394D01*
Y0271321D01*
Y0271249D01*
Y0271176D01*
Y0271103D01*
Y0271030D01*
Y0270958D01*
Y0270885D01*
Y0270812D01*
Y0270740D01*
Y0270667D01*
Y0270594D01*
Y0270521D01*
Y0270449D01*
Y0270376D01*
Y0270304D01*
Y0270231D01*
Y0270158D01*
Y0270085D01*
Y0270013D01*
Y0269940D01*
Y0269867D01*
Y0269795D01*
Y0269722D01*
Y0269649D01*
Y0269577D01*
Y0269504D01*
Y0269431D01*
Y0269358D01*
Y0269286D01*
Y0269213D01*
Y0269140D01*
Y0269068D01*
Y0268995D01*
Y0268922D01*
Y0268849D01*
Y0268777D01*
Y0268704D01*
Y0268631D01*
Y0268559D01*
Y0268486D01*
Y0268413D01*
Y0268340D01*
Y0268268D01*
Y0268195D01*
Y0268122D01*
Y0268050D01*
Y0267977D01*
Y0267904D01*
Y0267832D01*
Y0267759D01*
Y0267686D01*
X0408423D01*
Y0267614D01*
Y0267541D01*
Y0267468D01*
X0408496D01*
Y0267395D01*
Y0267323D01*
X0408568D01*
Y0267250D01*
X0408714D01*
Y0267177D01*
X0408932D01*
Y0267105D01*
X0409004D01*
Y0267032D01*
Y0266959D01*
Y0266886D01*
X0406387D01*
Y0266959D01*
Y0267032D01*
Y0267105D01*
X0406460D01*
Y0267177D01*
X0406678D01*
Y0267250D01*
X0406823D01*
Y0267323D01*
X0406896D01*
Y0267395D01*
X0406969D01*
Y0267468D01*
Y0267541D01*
Y0267614D01*
X0407042D01*
Y0267686D01*
Y0267759D01*
Y0267832D01*
Y0267904D01*
Y0267977D01*
Y0268050D01*
Y0268122D01*
Y0268195D01*
Y0268268D01*
Y0268340D01*
Y0268413D01*
Y0268486D01*
Y0268559D01*
Y0268631D01*
Y0268704D01*
Y0268777D01*
Y0268849D01*
Y0268922D01*
Y0268995D01*
Y0269068D01*
Y0269140D01*
Y0269213D01*
Y0269286D01*
Y0269358D01*
Y0269431D01*
Y0269504D01*
Y0269577D01*
Y0269649D01*
Y0269722D01*
Y0269795D01*
Y0269867D01*
Y0269940D01*
Y0270013D01*
Y0270085D01*
Y0270158D01*
Y0270231D01*
Y0270304D01*
Y0270376D01*
Y0270449D01*
Y0270521D01*
Y0270594D01*
Y0270667D01*
Y0270740D01*
Y0270812D01*
Y0270885D01*
Y0270958D01*
Y0271030D01*
Y0271103D01*
Y0271176D01*
Y0271249D01*
Y0271321D01*
Y0271394D01*
Y0271467D01*
Y0271539D01*
Y0271612D01*
Y0271685D01*
Y0271758D01*
Y0271830D01*
Y0271903D01*
Y0271976D01*
Y0272048D01*
Y0272121D01*
Y0272194D01*
Y0272266D01*
Y0272339D01*
Y0272412D01*
Y0272484D01*
Y0272557D01*
Y0272630D01*
Y0272703D01*
Y0272775D01*
Y0272848D01*
Y0272921D01*
Y0272993D01*
Y0273066D01*
Y0273139D01*
Y0273212D01*
Y0273284D01*
Y0273357D01*
Y0273430D01*
Y0273502D01*
Y0273575D01*
Y0273648D01*
Y0273720D01*
X0406969D01*
Y0273793D01*
Y0273866D01*
Y0273938D01*
X0406896D01*
Y0274011D01*
X0406823D01*
Y0274084D01*
X0406678D01*
Y0274157D01*
X0406460D01*
Y0274229D01*
X0406387D01*
Y0274302D01*
Y0274375D01*
X0409004D01*
Y0274302D01*
D02*
G37*
G36*
X0389739Y0272557D02*
Y0272484D01*
Y0272412D01*
X0389594D01*
Y0272339D01*
X0389448D01*
Y0272266D01*
X0389375D01*
Y0272194D01*
X0389303D01*
Y0272121D01*
X0389230D01*
Y0272048D01*
Y0271976D01*
Y0271903D01*
Y0271830D01*
Y0271758D01*
Y0271685D01*
Y0271612D01*
Y0271539D01*
Y0271467D01*
Y0271394D01*
Y0271321D01*
Y0271249D01*
Y0271176D01*
Y0271103D01*
Y0271030D01*
Y0270958D01*
Y0270885D01*
Y0270812D01*
Y0270740D01*
Y0270667D01*
Y0270594D01*
Y0270521D01*
Y0270449D01*
Y0270376D01*
Y0270304D01*
Y0270231D01*
Y0270158D01*
Y0270085D01*
Y0270013D01*
Y0269940D01*
Y0269867D01*
Y0269795D01*
Y0269722D01*
Y0269649D01*
Y0269577D01*
Y0269504D01*
Y0269431D01*
Y0269358D01*
Y0269286D01*
Y0269213D01*
Y0269140D01*
Y0269068D01*
Y0268995D01*
Y0268922D01*
Y0268849D01*
Y0268777D01*
Y0268704D01*
Y0268631D01*
Y0268559D01*
Y0268486D01*
Y0268413D01*
Y0268340D01*
Y0268268D01*
Y0268195D01*
Y0268122D01*
Y0268050D01*
Y0267977D01*
Y0267904D01*
Y0267832D01*
Y0267759D01*
Y0267686D01*
Y0267614D01*
Y0267541D01*
Y0267468D01*
X0389303D01*
Y0267395D01*
Y0267323D01*
X0389375D01*
Y0267250D01*
X0389448D01*
Y0267177D01*
X0389666D01*
Y0267105D01*
X0389739D01*
Y0267032D01*
Y0266959D01*
Y0266886D01*
X0387340D01*
Y0266959D01*
Y0267032D01*
Y0267105D01*
X0387413D01*
Y0267177D01*
X0387631D01*
Y0267250D01*
X0387776D01*
Y0267323D01*
X0387849D01*
Y0267395D01*
Y0267468D01*
Y0267541D01*
X0387922D01*
Y0267614D01*
Y0267686D01*
Y0267759D01*
Y0267832D01*
Y0267904D01*
Y0267977D01*
Y0268050D01*
Y0268122D01*
Y0268195D01*
Y0268268D01*
Y0268340D01*
Y0268413D01*
Y0268486D01*
Y0268559D01*
Y0268631D01*
Y0268704D01*
Y0268777D01*
Y0268849D01*
Y0268922D01*
Y0268995D01*
Y0269068D01*
Y0269140D01*
Y0269213D01*
Y0269286D01*
X0387049D01*
Y0269213D01*
X0386831D01*
Y0269140D01*
X0386758D01*
Y0269068D01*
X0386686D01*
Y0268995D01*
X0386613D01*
Y0268922D01*
X0386540D01*
Y0268849D01*
X0386468D01*
Y0268777D01*
Y0268704D01*
X0386395D01*
Y0268631D01*
Y0268559D01*
X0386322D01*
Y0268486D01*
Y0268413D01*
X0386249D01*
Y0268340D01*
Y0268268D01*
X0386177D01*
Y0268195D01*
Y0268122D01*
X0386104D01*
Y0268050D01*
Y0267977D01*
X0386031D01*
Y0267904D01*
Y0267832D01*
X0385959D01*
Y0267759D01*
Y0267686D01*
X0385886D01*
Y0267614D01*
X0385813D01*
Y0267541D01*
Y0267468D01*
X0385740D01*
Y0267395D01*
X0385668D01*
Y0267323D01*
X0385595D01*
Y0267250D01*
X0385522D01*
Y0267177D01*
X0385450D01*
Y0267105D01*
X0385304D01*
Y0267032D01*
X0385159D01*
Y0266959D01*
X0385014D01*
Y0266886D01*
X0384723D01*
Y0266814D01*
X0383850D01*
Y0266886D01*
X0383632D01*
Y0266959D01*
X0383487D01*
Y0267032D01*
Y0267105D01*
Y0267177D01*
X0383632D01*
Y0267250D01*
X0383850D01*
Y0267323D01*
X0383996D01*
Y0267395D01*
X0384068D01*
Y0267468D01*
X0384141D01*
Y0267541D01*
X0384214D01*
Y0267614D01*
X0384286D01*
Y0267686D01*
X0384359D01*
Y0267759D01*
X0384432D01*
Y0267832D01*
Y0267904D01*
X0384505D01*
Y0267977D01*
X0384577D01*
Y0268050D01*
Y0268122D01*
X0384650D01*
Y0268195D01*
Y0268268D01*
X0384723D01*
Y0268340D01*
X0384795D01*
Y0268413D01*
Y0268486D01*
X0384868D01*
Y0268559D01*
Y0268631D01*
X0384941D01*
Y0268704D01*
X0385014D01*
Y0268777D01*
Y0268849D01*
X0385086D01*
Y0268922D01*
X0385159D01*
Y0268995D01*
X0385232D01*
Y0269068D01*
X0385304D01*
Y0269140D01*
X0385377D01*
Y0269213D01*
X0385450D01*
Y0269286D01*
X0385522D01*
Y0269358D01*
X0385668D01*
Y0269431D01*
X0385813D01*
Y0269504D01*
X0385959D01*
Y0269577D01*
X0385668D01*
Y0269649D01*
X0385450D01*
Y0269722D01*
X0385304D01*
Y0269795D01*
X0385159D01*
Y0269867D01*
X0385086D01*
Y0269940D01*
X0384941D01*
Y0270013D01*
X0384868D01*
Y0270085D01*
X0384795D01*
Y0270158D01*
X0384723D01*
Y0270231D01*
Y0270304D01*
X0384650D01*
Y0270376D01*
Y0270449D01*
X0384577D01*
Y0270521D01*
Y0270594D01*
Y0270667D01*
X0384505D01*
Y0270740D01*
Y0270812D01*
Y0270885D01*
Y0270958D01*
Y0271030D01*
Y0271103D01*
Y0271176D01*
Y0271249D01*
Y0271321D01*
Y0271394D01*
Y0271467D01*
X0384577D01*
Y0271539D01*
Y0271612D01*
Y0271685D01*
X0384650D01*
Y0271758D01*
Y0271830D01*
X0384723D01*
Y0271903D01*
Y0271976D01*
X0384795D01*
Y0272048D01*
X0384868D01*
Y0272121D01*
X0384941D01*
Y0272194D01*
X0385086D01*
Y0272266D01*
X0385159D01*
Y0272339D01*
X0385304D01*
Y0272412D01*
X0385450D01*
Y0272484D01*
X0385740D01*
Y0272557D01*
X0386104D01*
Y0272630D01*
X0389739D01*
Y0272557D01*
D02*
G37*
G36*
X0383996D02*
Y0272484D01*
Y0272412D01*
X0383778D01*
Y0272339D01*
X0383632D01*
Y0272266D01*
X0383559D01*
Y0272194D01*
Y0272121D01*
X0383487D01*
Y0272048D01*
Y0271976D01*
Y0271903D01*
X0383414D01*
Y0271830D01*
Y0271758D01*
Y0271685D01*
Y0271612D01*
Y0271539D01*
Y0271467D01*
Y0271394D01*
Y0271321D01*
Y0271249D01*
Y0271176D01*
Y0271103D01*
Y0271030D01*
Y0270958D01*
Y0270885D01*
Y0270812D01*
Y0270740D01*
Y0270667D01*
Y0270594D01*
Y0270521D01*
Y0270449D01*
Y0270376D01*
Y0270304D01*
Y0270231D01*
Y0270158D01*
Y0270085D01*
Y0270013D01*
Y0269940D01*
Y0269867D01*
Y0269795D01*
Y0269722D01*
Y0269649D01*
Y0269577D01*
Y0269504D01*
Y0269431D01*
Y0269358D01*
Y0269286D01*
Y0269213D01*
Y0269140D01*
Y0269068D01*
Y0268995D01*
Y0268922D01*
Y0268849D01*
Y0268777D01*
Y0268704D01*
Y0268631D01*
Y0268559D01*
Y0268486D01*
Y0268413D01*
Y0268340D01*
Y0268268D01*
Y0268195D01*
X0383341D01*
Y0268122D01*
Y0268050D01*
Y0267977D01*
X0383269D01*
Y0267904D01*
Y0267832D01*
X0383196D01*
Y0267759D01*
X0383123D01*
Y0267686D01*
Y0267614D01*
X0383051D01*
Y0267541D01*
X0382978D01*
Y0267468D01*
X0382905D01*
Y0267395D01*
X0382833D01*
Y0267323D01*
X0382687D01*
Y0267250D01*
X0382614D01*
Y0267177D01*
X0382469D01*
Y0267105D01*
X0382324D01*
Y0267032D01*
X0382105D01*
Y0266959D01*
X0381887D01*
Y0266886D01*
X0381451D01*
Y0266814D01*
X0380288D01*
Y0266886D01*
X0379852D01*
Y0266959D01*
X0379634D01*
Y0267032D01*
X0379416D01*
Y0267105D01*
X0379270D01*
Y0267177D01*
X0379198D01*
Y0267250D01*
X0379052D01*
Y0267323D01*
X0378979D01*
Y0267395D01*
X0378907D01*
Y0267468D01*
Y0267541D01*
X0378834D01*
Y0267614D01*
X0378761D01*
Y0267686D01*
Y0267759D01*
X0378689D01*
Y0267832D01*
Y0267904D01*
X0378616D01*
Y0267977D01*
Y0268050D01*
X0378543D01*
Y0268122D01*
Y0268195D01*
Y0268268D01*
Y0268340D01*
Y0268413D01*
X0378470D01*
Y0268486D01*
Y0268559D01*
Y0268631D01*
Y0268704D01*
Y0268777D01*
Y0268849D01*
Y0268922D01*
Y0268995D01*
Y0269068D01*
Y0269140D01*
Y0269213D01*
Y0269286D01*
Y0269358D01*
Y0269431D01*
Y0269504D01*
Y0269577D01*
Y0269649D01*
Y0269722D01*
Y0269795D01*
Y0269867D01*
Y0269940D01*
Y0270013D01*
Y0270085D01*
Y0270158D01*
Y0270231D01*
Y0270304D01*
Y0270376D01*
Y0270449D01*
Y0270521D01*
Y0270594D01*
Y0270667D01*
Y0270740D01*
Y0270812D01*
Y0270885D01*
Y0270958D01*
Y0271030D01*
Y0271103D01*
Y0271176D01*
Y0271249D01*
Y0271321D01*
Y0271394D01*
Y0271467D01*
Y0271539D01*
Y0271612D01*
Y0271685D01*
Y0271758D01*
Y0271830D01*
Y0271903D01*
Y0271976D01*
Y0272048D01*
X0378398D01*
Y0272121D01*
Y0272194D01*
X0378325D01*
Y0272266D01*
X0378252D01*
Y0272339D01*
X0378180D01*
Y0272412D01*
X0377962D01*
Y0272484D01*
Y0272557D01*
Y0272630D01*
X0379852D01*
Y0272557D01*
Y0272484D01*
Y0272412D01*
X0379634D01*
Y0272339D01*
X0379488D01*
Y0272266D01*
X0379416D01*
Y0272194D01*
Y0272121D01*
X0379343D01*
Y0272048D01*
Y0271976D01*
Y0271903D01*
X0379270D01*
Y0271830D01*
Y0271758D01*
Y0271685D01*
Y0271612D01*
Y0271539D01*
Y0271467D01*
Y0271394D01*
Y0271321D01*
Y0271249D01*
Y0271176D01*
Y0271103D01*
Y0271030D01*
Y0270958D01*
Y0270885D01*
Y0270812D01*
Y0270740D01*
Y0270667D01*
Y0270594D01*
Y0270521D01*
Y0270449D01*
Y0270376D01*
Y0270304D01*
Y0270231D01*
Y0270158D01*
Y0270085D01*
Y0270013D01*
Y0269940D01*
Y0269867D01*
Y0269795D01*
Y0269722D01*
Y0269649D01*
Y0269577D01*
Y0269504D01*
Y0269431D01*
Y0269358D01*
Y0269286D01*
Y0269213D01*
Y0269140D01*
Y0269068D01*
Y0268995D01*
Y0268922D01*
Y0268849D01*
Y0268777D01*
Y0268704D01*
Y0268631D01*
Y0268559D01*
X0379343D01*
Y0268486D01*
Y0268413D01*
Y0268340D01*
Y0268268D01*
X0379416D01*
Y0268195D01*
Y0268122D01*
Y0268050D01*
X0379488D01*
Y0267977D01*
X0379561D01*
Y0267904D01*
X0379634D01*
Y0267832D01*
X0379706D01*
Y0267759D01*
X0379779D01*
Y0267686D01*
X0379925D01*
Y0267614D01*
X0380215D01*
Y0267541D01*
X0381233D01*
Y0267614D01*
X0381524D01*
Y0267686D01*
X0381669D01*
Y0267759D01*
X0381815D01*
Y0267832D01*
X0381887D01*
Y0267904D01*
X0381960D01*
Y0267977D01*
X0382033D01*
Y0268050D01*
Y0268122D01*
X0382105D01*
Y0268195D01*
Y0268268D01*
Y0268340D01*
X0382178D01*
Y0268413D01*
Y0268486D01*
Y0268559D01*
Y0268631D01*
Y0268704D01*
X0382251D01*
Y0268777D01*
Y0268849D01*
Y0268922D01*
Y0268995D01*
Y0269068D01*
Y0269140D01*
Y0269213D01*
Y0269286D01*
Y0269358D01*
Y0269431D01*
Y0269504D01*
Y0269577D01*
Y0269649D01*
Y0269722D01*
Y0269795D01*
Y0269867D01*
Y0269940D01*
Y0270013D01*
Y0270085D01*
Y0270158D01*
Y0270231D01*
Y0270304D01*
Y0270376D01*
Y0270449D01*
Y0270521D01*
Y0270594D01*
Y0270667D01*
Y0270740D01*
Y0270812D01*
Y0270885D01*
Y0270958D01*
Y0271030D01*
Y0271103D01*
Y0271176D01*
Y0271249D01*
Y0271321D01*
Y0271394D01*
Y0271467D01*
Y0271539D01*
Y0271612D01*
Y0271685D01*
Y0271758D01*
Y0271830D01*
X0382178D01*
Y0271903D01*
Y0271976D01*
Y0272048D01*
Y0272121D01*
X0382105D01*
Y0272194D01*
Y0272266D01*
X0382033D01*
Y0272339D01*
X0381887D01*
Y0272412D01*
X0381669D01*
Y0272484D01*
Y0272557D01*
Y0272630D01*
X0383996D01*
Y0272557D01*
D02*
G37*
G36*
X0364512D02*
Y0272484D01*
Y0272412D01*
X0364367D01*
Y0272339D01*
X0364221D01*
Y0272266D01*
X0364149D01*
Y0272194D01*
X0364076D01*
Y0272121D01*
Y0272048D01*
X0364003D01*
Y0271976D01*
Y0271903D01*
Y0271830D01*
Y0271758D01*
X0363931D01*
Y0271685D01*
Y0271612D01*
Y0271539D01*
Y0271467D01*
Y0271394D01*
Y0271321D01*
Y0271249D01*
Y0271176D01*
Y0271103D01*
Y0271030D01*
Y0270958D01*
Y0270885D01*
Y0270812D01*
Y0270740D01*
Y0270667D01*
Y0270594D01*
Y0270521D01*
Y0270449D01*
Y0270376D01*
Y0270304D01*
Y0270231D01*
Y0270158D01*
Y0270085D01*
Y0270013D01*
Y0269940D01*
Y0269867D01*
Y0269795D01*
Y0269722D01*
Y0269649D01*
Y0269577D01*
Y0269504D01*
Y0269431D01*
Y0269358D01*
Y0269286D01*
Y0269213D01*
Y0269140D01*
Y0269068D01*
Y0268995D01*
Y0268922D01*
Y0268849D01*
Y0268777D01*
Y0268704D01*
Y0268631D01*
Y0268559D01*
Y0268486D01*
Y0268413D01*
Y0268340D01*
Y0268268D01*
Y0268195D01*
Y0268122D01*
Y0268050D01*
Y0267977D01*
Y0267904D01*
Y0267832D01*
X0364003D01*
Y0267759D01*
Y0267686D01*
Y0267614D01*
Y0267541D01*
Y0267468D01*
X0364076D01*
Y0267395D01*
Y0267323D01*
X0364149D01*
Y0267250D01*
X0364221D01*
Y0267177D01*
X0364439D01*
Y0267105D01*
X0364512D01*
Y0267032D01*
Y0266959D01*
Y0266886D01*
X0362622D01*
Y0266959D01*
Y0267032D01*
Y0267105D01*
X0362695D01*
Y0267177D01*
X0362840D01*
Y0267250D01*
X0362985D01*
Y0267323D01*
X0363058D01*
Y0267395D01*
X0363131D01*
Y0267468D01*
Y0267541D01*
Y0267614D01*
X0363204D01*
Y0267686D01*
Y0267759D01*
Y0267832D01*
Y0267904D01*
Y0267977D01*
Y0268050D01*
Y0268122D01*
Y0268195D01*
Y0268268D01*
Y0268340D01*
Y0268413D01*
Y0268486D01*
Y0268559D01*
Y0268631D01*
Y0268704D01*
Y0268777D01*
Y0268849D01*
Y0268922D01*
Y0268995D01*
Y0269068D01*
Y0269140D01*
Y0269213D01*
Y0269286D01*
Y0269358D01*
Y0269431D01*
Y0269504D01*
Y0269577D01*
Y0269649D01*
Y0269722D01*
Y0269795D01*
Y0269867D01*
Y0269940D01*
Y0270013D01*
Y0270085D01*
Y0270158D01*
Y0270231D01*
Y0270304D01*
Y0270376D01*
Y0270449D01*
Y0270521D01*
Y0270594D01*
Y0270667D01*
Y0270740D01*
Y0270812D01*
Y0270885D01*
Y0270958D01*
Y0271030D01*
Y0271103D01*
Y0271176D01*
X0363131D01*
Y0271103D01*
X0363058D01*
Y0271030D01*
Y0270958D01*
X0362985D01*
Y0270885D01*
X0362913D01*
Y0270812D01*
X0362840D01*
Y0270740D01*
X0362767D01*
Y0270667D01*
X0362695D01*
Y0270594D01*
X0362622D01*
Y0270521D01*
X0362549D01*
Y0270449D01*
Y0270376D01*
X0362476D01*
Y0270304D01*
X0362404D01*
Y0270231D01*
X0362331D01*
Y0270158D01*
X0362258D01*
Y0270085D01*
X0362186D01*
Y0270013D01*
X0362113D01*
Y0269940D01*
X0362040D01*
Y0269867D01*
Y0269795D01*
X0361968D01*
Y0269722D01*
X0361895D01*
Y0269649D01*
X0361822D01*
Y0269577D01*
X0361750D01*
Y0269504D01*
X0361677D01*
Y0269431D01*
X0361604D01*
Y0269358D01*
X0361531D01*
Y0269286D01*
Y0269213D01*
X0361459D01*
Y0269140D01*
X0361386D01*
Y0269068D01*
X0361313D01*
Y0268995D01*
X0361241D01*
Y0268922D01*
X0361168D01*
Y0268849D01*
X0361095D01*
Y0268777D01*
X0361022D01*
Y0268704D01*
Y0268631D01*
X0360950D01*
Y0268559D01*
X0360877D01*
Y0268486D01*
X0360804D01*
Y0268413D01*
X0360732D01*
Y0268340D01*
X0360659D01*
Y0268268D01*
X0360586D01*
Y0268195D01*
X0360514D01*
Y0268122D01*
Y0268050D01*
X0360441D01*
Y0267977D01*
X0360368D01*
Y0267904D01*
X0360296D01*
Y0267832D01*
X0360223D01*
Y0267759D01*
X0360150D01*
Y0267686D01*
X0360077D01*
Y0267614D01*
X0360005D01*
Y0267541D01*
Y0267468D01*
X0359932D01*
Y0267395D01*
X0359859D01*
Y0267323D01*
X0359787D01*
Y0267250D01*
X0359714D01*
Y0267177D01*
X0359641D01*
Y0267105D01*
X0359569D01*
Y0267032D01*
X0359496D01*
Y0266959D01*
Y0266886D01*
X0359423D01*
Y0266814D01*
X0359205D01*
Y0266886D01*
Y0266959D01*
Y0267032D01*
Y0267105D01*
Y0267177D01*
Y0267250D01*
Y0267323D01*
Y0267395D01*
Y0267468D01*
Y0267541D01*
Y0267614D01*
Y0267686D01*
Y0267759D01*
Y0267832D01*
Y0267904D01*
Y0267977D01*
Y0268050D01*
Y0268122D01*
Y0268195D01*
Y0268268D01*
Y0268340D01*
Y0268413D01*
Y0268486D01*
Y0268559D01*
Y0268631D01*
Y0268704D01*
Y0268777D01*
Y0268849D01*
Y0268922D01*
Y0268995D01*
Y0269068D01*
Y0269140D01*
Y0269213D01*
Y0269286D01*
Y0269358D01*
Y0269431D01*
Y0269504D01*
Y0269577D01*
Y0269649D01*
Y0269722D01*
Y0269795D01*
Y0269867D01*
Y0269940D01*
Y0270013D01*
Y0270085D01*
Y0270158D01*
Y0270231D01*
Y0270304D01*
Y0270376D01*
Y0270449D01*
Y0270521D01*
Y0270594D01*
Y0270667D01*
Y0270740D01*
Y0270812D01*
Y0270885D01*
Y0270958D01*
Y0271030D01*
Y0271103D01*
Y0271176D01*
Y0271249D01*
Y0271321D01*
Y0271394D01*
Y0271467D01*
Y0271539D01*
Y0271612D01*
Y0271685D01*
Y0271758D01*
X0359132D01*
Y0271830D01*
Y0271903D01*
Y0271976D01*
Y0272048D01*
Y0272121D01*
X0359060D01*
Y0272194D01*
X0358987D01*
Y0272266D01*
X0358914D01*
Y0272339D01*
X0358841D01*
Y0272412D01*
X0358696D01*
Y0272484D01*
Y0272557D01*
Y0272630D01*
X0360441D01*
Y0272557D01*
Y0272484D01*
Y0272412D01*
X0360296D01*
Y0272339D01*
X0360150D01*
Y0272266D01*
X0360077D01*
Y0272194D01*
X0360005D01*
Y0272121D01*
Y0272048D01*
X0359932D01*
Y0271976D01*
Y0271903D01*
Y0271830D01*
Y0271758D01*
Y0271685D01*
Y0271612D01*
Y0271539D01*
Y0271467D01*
Y0271394D01*
Y0271321D01*
Y0271249D01*
Y0271176D01*
Y0271103D01*
Y0271030D01*
Y0270958D01*
Y0270885D01*
Y0270812D01*
Y0270740D01*
Y0270667D01*
Y0270594D01*
Y0270521D01*
Y0270449D01*
Y0270376D01*
Y0270304D01*
Y0270231D01*
Y0270158D01*
Y0270085D01*
Y0270013D01*
Y0269940D01*
Y0269867D01*
Y0269795D01*
Y0269722D01*
Y0269649D01*
Y0269577D01*
Y0269504D01*
Y0269431D01*
Y0269358D01*
X0360005D01*
Y0269431D01*
X0360077D01*
Y0269504D01*
Y0269577D01*
X0360150D01*
Y0269649D01*
X0360223D01*
Y0269722D01*
X0360296D01*
Y0269795D01*
X0360368D01*
Y0269867D01*
X0360441D01*
Y0269940D01*
X0360514D01*
Y0270013D01*
X0360586D01*
Y0270085D01*
Y0270158D01*
X0360659D01*
Y0270231D01*
X0360732D01*
Y0270304D01*
X0360804D01*
Y0270376D01*
X0360877D01*
Y0270449D01*
X0360950D01*
Y0270521D01*
X0361022D01*
Y0270594D01*
X0361095D01*
Y0270667D01*
Y0270740D01*
X0361168D01*
Y0270812D01*
X0361241D01*
Y0270885D01*
X0361313D01*
Y0270958D01*
X0361386D01*
Y0271030D01*
X0361459D01*
Y0271103D01*
X0361531D01*
Y0271176D01*
X0361604D01*
Y0271249D01*
Y0271321D01*
X0361677D01*
Y0271394D01*
X0361750D01*
Y0271467D01*
X0361822D01*
Y0271539D01*
X0361895D01*
Y0271612D01*
X0361968D01*
Y0271685D01*
X0362040D01*
Y0271758D01*
X0362113D01*
Y0271830D01*
Y0271903D01*
X0362186D01*
Y0271976D01*
X0362258D01*
Y0272048D01*
X0362331D01*
Y0272121D01*
X0362404D01*
Y0272194D01*
X0362476D01*
Y0272266D01*
X0362549D01*
Y0272339D01*
X0362622D01*
Y0272412D01*
Y0272484D01*
X0362695D01*
Y0272557D01*
X0362767D01*
Y0272630D01*
X0364512D01*
Y0272557D01*
D02*
G37*
G36*
X0377598D02*
Y0272484D01*
Y0272412D01*
X0377453D01*
Y0272339D01*
X0377307D01*
Y0272266D01*
X0377235D01*
Y0272194D01*
X0377162D01*
Y0272121D01*
X0377089D01*
Y0272048D01*
Y0271976D01*
Y0271903D01*
Y0271830D01*
Y0271758D01*
Y0271685D01*
Y0271612D01*
Y0271539D01*
Y0271467D01*
Y0271394D01*
Y0271321D01*
Y0271249D01*
Y0271176D01*
Y0271103D01*
Y0271030D01*
Y0270958D01*
Y0270885D01*
Y0270812D01*
Y0270740D01*
Y0270667D01*
Y0270594D01*
Y0270521D01*
Y0270449D01*
Y0270376D01*
Y0270304D01*
Y0270231D01*
Y0270158D01*
Y0270085D01*
Y0270013D01*
Y0269940D01*
Y0269867D01*
Y0269795D01*
Y0269722D01*
Y0269649D01*
Y0269577D01*
Y0269504D01*
Y0269431D01*
Y0269358D01*
Y0269286D01*
Y0269213D01*
Y0269140D01*
Y0269068D01*
Y0268995D01*
Y0268922D01*
Y0268849D01*
Y0268777D01*
Y0268704D01*
Y0268631D01*
Y0268559D01*
Y0268486D01*
Y0268413D01*
Y0268340D01*
Y0268268D01*
Y0268195D01*
Y0268122D01*
Y0268050D01*
Y0267977D01*
Y0267904D01*
Y0267832D01*
Y0267759D01*
Y0267686D01*
Y0267614D01*
Y0267541D01*
X0377162D01*
Y0267468D01*
Y0267395D01*
X0377235D01*
Y0267323D01*
X0377307D01*
Y0267250D01*
X0377380D01*
Y0267177D01*
X0377598D01*
Y0267105D01*
Y0267032D01*
Y0266959D01*
Y0266886D01*
X0375781D01*
Y0266959D01*
Y0267032D01*
Y0267105D01*
X0375853D01*
Y0267177D01*
X0376071D01*
Y0267250D01*
X0376144D01*
Y0267323D01*
X0376217D01*
Y0267395D01*
X0376290D01*
Y0267468D01*
Y0267541D01*
Y0267614D01*
X0376362D01*
Y0267686D01*
Y0267759D01*
Y0267832D01*
Y0267904D01*
Y0267977D01*
Y0268050D01*
Y0268122D01*
Y0268195D01*
Y0268268D01*
Y0268340D01*
Y0268413D01*
Y0268486D01*
Y0268559D01*
Y0268631D01*
Y0268704D01*
Y0268777D01*
Y0268849D01*
Y0268922D01*
Y0268995D01*
Y0269068D01*
Y0269140D01*
Y0269213D01*
Y0269286D01*
Y0269358D01*
Y0269431D01*
Y0269504D01*
Y0269577D01*
Y0269649D01*
Y0269722D01*
Y0269795D01*
Y0269867D01*
Y0269940D01*
Y0270013D01*
Y0270085D01*
Y0270158D01*
Y0270231D01*
Y0270304D01*
Y0270376D01*
Y0270449D01*
Y0270521D01*
Y0270594D01*
Y0270667D01*
Y0270740D01*
Y0270812D01*
Y0270885D01*
Y0270958D01*
Y0271030D01*
Y0271103D01*
Y0271176D01*
Y0271249D01*
Y0271321D01*
X0376290D01*
Y0271249D01*
Y0271176D01*
X0376217D01*
Y0271103D01*
Y0271030D01*
X0376144D01*
Y0270958D01*
Y0270885D01*
X0376071D01*
Y0270812D01*
Y0270740D01*
X0375999D01*
Y0270667D01*
Y0270594D01*
Y0270521D01*
X0375926D01*
Y0270449D01*
Y0270376D01*
X0375853D01*
Y0270304D01*
Y0270231D01*
X0375781D01*
Y0270158D01*
Y0270085D01*
X0375708D01*
Y0270013D01*
Y0269940D01*
X0375635D01*
Y0269867D01*
Y0269795D01*
Y0269722D01*
X0375563D01*
Y0269649D01*
Y0269577D01*
X0375490D01*
Y0269504D01*
Y0269431D01*
X0375417D01*
Y0269358D01*
Y0269286D01*
X0375344D01*
Y0269213D01*
Y0269140D01*
Y0269068D01*
X0375272D01*
Y0268995D01*
Y0268922D01*
X0375199D01*
Y0268849D01*
Y0268777D01*
X0375126D01*
Y0268704D01*
Y0268631D01*
X0375054D01*
Y0268559D01*
Y0268486D01*
Y0268413D01*
X0374981D01*
Y0268340D01*
Y0268268D01*
X0374908D01*
Y0268195D01*
Y0268122D01*
X0374835D01*
Y0268050D01*
Y0267977D01*
X0374763D01*
Y0267904D01*
Y0267832D01*
Y0267759D01*
X0374690D01*
Y0267686D01*
Y0267614D01*
X0374617D01*
Y0267541D01*
Y0267468D01*
X0374545D01*
Y0267395D01*
Y0267323D01*
X0374472D01*
Y0267250D01*
Y0267177D01*
Y0267105D01*
X0374399D01*
Y0267032D01*
Y0266959D01*
X0374327D01*
Y0266886D01*
Y0266814D01*
X0374109D01*
Y0266886D01*
Y0266959D01*
X0374036D01*
Y0267032D01*
Y0267105D01*
X0373963D01*
Y0267177D01*
Y0267250D01*
X0373890D01*
Y0267323D01*
Y0267395D01*
Y0267468D01*
X0373818D01*
Y0267541D01*
Y0267614D01*
X0373745D01*
Y0267686D01*
Y0267759D01*
X0373672D01*
Y0267832D01*
Y0267904D01*
Y0267977D01*
X0373600D01*
Y0268050D01*
Y0268122D01*
X0373527D01*
Y0268195D01*
Y0268268D01*
X0373454D01*
Y0268340D01*
Y0268413D01*
X0373381D01*
Y0268486D01*
Y0268559D01*
Y0268631D01*
X0373309D01*
Y0268704D01*
Y0268777D01*
X0373236D01*
Y0268849D01*
Y0268922D01*
X0373163D01*
Y0268995D01*
Y0269068D01*
Y0269140D01*
X0373091D01*
Y0269213D01*
Y0269286D01*
X0373018D01*
Y0269358D01*
Y0269431D01*
X0372945D01*
Y0269504D01*
Y0269577D01*
Y0269649D01*
X0372873D01*
Y0269722D01*
Y0269795D01*
X0372800D01*
Y0269867D01*
Y0269940D01*
X0372727D01*
Y0270013D01*
Y0270085D01*
X0372655D01*
Y0270158D01*
Y0270231D01*
Y0270304D01*
X0372582D01*
Y0270376D01*
Y0270449D01*
X0372509D01*
Y0270521D01*
Y0270594D01*
X0372436D01*
Y0270667D01*
Y0270740D01*
Y0270812D01*
X0372364D01*
Y0270885D01*
Y0270958D01*
X0372291D01*
Y0271030D01*
Y0271103D01*
X0372218D01*
Y0271176D01*
Y0271249D01*
Y0271321D01*
X0372146D01*
Y0271249D01*
Y0271176D01*
Y0271103D01*
Y0271030D01*
Y0270958D01*
Y0270885D01*
Y0270812D01*
Y0270740D01*
Y0270667D01*
Y0270594D01*
Y0270521D01*
Y0270449D01*
Y0270376D01*
Y0270304D01*
Y0270231D01*
Y0270158D01*
Y0270085D01*
Y0270013D01*
Y0269940D01*
Y0269867D01*
Y0269795D01*
Y0269722D01*
Y0269649D01*
Y0269577D01*
Y0269504D01*
Y0269431D01*
Y0269358D01*
Y0269286D01*
Y0269213D01*
Y0269140D01*
Y0269068D01*
Y0268995D01*
Y0268922D01*
Y0268849D01*
Y0268777D01*
Y0268704D01*
Y0268631D01*
Y0268559D01*
Y0268486D01*
Y0268413D01*
Y0268340D01*
Y0268268D01*
Y0268195D01*
Y0268122D01*
Y0268050D01*
Y0267977D01*
Y0267904D01*
Y0267832D01*
Y0267759D01*
Y0267686D01*
Y0267614D01*
Y0267541D01*
Y0267468D01*
X0372218D01*
Y0267395D01*
Y0267323D01*
X0372291D01*
Y0267250D01*
X0372436D01*
Y0267177D01*
X0372582D01*
Y0267105D01*
X0372655D01*
Y0267032D01*
Y0266959D01*
Y0266886D01*
X0370328D01*
Y0266959D01*
Y0267032D01*
Y0267105D01*
X0370401D01*
Y0267177D01*
X0370619D01*
Y0267250D01*
X0370692D01*
Y0267323D01*
X0370764D01*
Y0267395D01*
Y0267468D01*
X0370837D01*
Y0267541D01*
Y0267614D01*
Y0267686D01*
Y0267759D01*
Y0267832D01*
Y0267904D01*
Y0267977D01*
Y0268050D01*
Y0268122D01*
Y0268195D01*
Y0268268D01*
Y0268340D01*
Y0268413D01*
Y0268486D01*
Y0268559D01*
Y0268631D01*
Y0268704D01*
Y0268777D01*
Y0268849D01*
Y0268922D01*
Y0268995D01*
Y0269068D01*
Y0269140D01*
Y0269213D01*
Y0269286D01*
Y0269358D01*
Y0269431D01*
Y0269504D01*
Y0269577D01*
Y0269649D01*
Y0269722D01*
Y0269795D01*
Y0269867D01*
Y0269940D01*
Y0270013D01*
Y0270085D01*
Y0270158D01*
Y0270231D01*
Y0270304D01*
Y0270376D01*
Y0270449D01*
Y0270521D01*
Y0270594D01*
Y0270667D01*
Y0270740D01*
Y0270812D01*
Y0270885D01*
Y0270958D01*
Y0271030D01*
Y0271103D01*
Y0271176D01*
Y0271249D01*
Y0271321D01*
Y0271394D01*
Y0271467D01*
Y0271539D01*
Y0271612D01*
Y0271685D01*
Y0271758D01*
Y0271830D01*
Y0271903D01*
Y0271976D01*
Y0272048D01*
Y0272121D01*
X0370764D01*
Y0272194D01*
X0370692D01*
Y0272266D01*
X0370619D01*
Y0272339D01*
X0370474D01*
Y0272412D01*
X0370328D01*
Y0272484D01*
Y0272557D01*
Y0272630D01*
X0372364D01*
Y0272557D01*
Y0272484D01*
X0372436D01*
Y0272412D01*
Y0272339D01*
X0372509D01*
Y0272266D01*
Y0272194D01*
Y0272121D01*
X0372582D01*
Y0272048D01*
Y0271976D01*
X0372655D01*
Y0271903D01*
Y0271830D01*
X0372727D01*
Y0271758D01*
Y0271685D01*
Y0271612D01*
X0372800D01*
Y0271539D01*
Y0271467D01*
X0372873D01*
Y0271394D01*
Y0271321D01*
X0372945D01*
Y0271249D01*
Y0271176D01*
Y0271103D01*
X0373018D01*
Y0271030D01*
Y0270958D01*
X0373091D01*
Y0270885D01*
Y0270812D01*
X0373163D01*
Y0270740D01*
Y0270667D01*
Y0270594D01*
X0373236D01*
Y0270521D01*
Y0270449D01*
X0373309D01*
Y0270376D01*
Y0270304D01*
X0373381D01*
Y0270231D01*
Y0270158D01*
Y0270085D01*
X0373454D01*
Y0270013D01*
Y0269940D01*
X0373527D01*
Y0269867D01*
Y0269795D01*
X0373600D01*
Y0269722D01*
Y0269649D01*
Y0269577D01*
X0373672D01*
Y0269504D01*
Y0269431D01*
X0373745D01*
Y0269358D01*
Y0269286D01*
X0373818D01*
Y0269213D01*
Y0269140D01*
Y0269068D01*
X0373890D01*
Y0268995D01*
X0373963D01*
Y0269068D01*
Y0269140D01*
X0374036D01*
Y0269213D01*
Y0269286D01*
X0374109D01*
Y0269358D01*
Y0269431D01*
X0374181D01*
Y0269504D01*
Y0269577D01*
Y0269649D01*
X0374254D01*
Y0269722D01*
Y0269795D01*
X0374327D01*
Y0269867D01*
Y0269940D01*
X0374399D01*
Y0270013D01*
Y0270085D01*
X0374472D01*
Y0270158D01*
Y0270231D01*
Y0270304D01*
X0374545D01*
Y0270376D01*
Y0270449D01*
X0374617D01*
Y0270521D01*
Y0270594D01*
X0374690D01*
Y0270667D01*
Y0270740D01*
X0374763D01*
Y0270812D01*
Y0270885D01*
Y0270958D01*
X0374835D01*
Y0271030D01*
Y0271103D01*
X0374908D01*
Y0271176D01*
Y0271249D01*
X0374981D01*
Y0271321D01*
Y0271394D01*
X0375054D01*
Y0271467D01*
Y0271539D01*
Y0271612D01*
X0375126D01*
Y0271685D01*
Y0271758D01*
X0375199D01*
Y0271830D01*
Y0271903D01*
X0375272D01*
Y0271976D01*
Y0272048D01*
X0375344D01*
Y0272121D01*
Y0272194D01*
Y0272266D01*
X0375417D01*
Y0272339D01*
Y0272412D01*
X0375490D01*
Y0272484D01*
Y0272557D01*
X0375563D01*
Y0272630D01*
X0377598D01*
Y0272557D01*
D02*
G37*
G36*
X0387122Y0281354D02*
X0387485D01*
Y0281281D01*
X0387703D01*
Y0281208D01*
X0387849D01*
Y0281136D01*
X0387994D01*
Y0281063D01*
X0388067D01*
Y0280990D01*
X0388140D01*
Y0280918D01*
X0388212D01*
Y0280845D01*
X0388285D01*
Y0280772D01*
X0388358D01*
Y0280699D01*
X0388430D01*
Y0280627D01*
X0388503D01*
Y0280554D01*
Y0280481D01*
X0388576D01*
Y0280409D01*
Y0280336D01*
X0388649D01*
Y0280263D01*
Y0280191D01*
Y0280118D01*
Y0280045D01*
X0388721D01*
Y0279973D01*
Y0279900D01*
Y0279827D01*
Y0279754D01*
Y0279682D01*
Y0279609D01*
Y0279536D01*
Y0279464D01*
X0388649D01*
Y0279391D01*
Y0279318D01*
Y0279246D01*
Y0279173D01*
X0388576D01*
Y0279100D01*
Y0279027D01*
X0388503D01*
Y0278955D01*
Y0278882D01*
X0388430D01*
Y0278809D01*
X0388358D01*
Y0278737D01*
Y0278664D01*
X0388212D01*
Y0278591D01*
X0388140D01*
Y0278519D01*
X0388067D01*
Y0278446D01*
X0387922D01*
Y0278373D01*
X0387776D01*
Y0278300D01*
X0387631D01*
Y0278228D01*
X0387413D01*
Y0278155D01*
X0387122D01*
Y0278082D01*
X0386831D01*
Y0278010D01*
X0386468D01*
Y0277937D01*
X0386177D01*
Y0277864D01*
X0385886D01*
Y0277792D01*
X0385668D01*
Y0277719D01*
X0385522D01*
Y0277646D01*
X0385450D01*
Y0277573D01*
X0385377D01*
Y0277501D01*
X0385304D01*
Y0277428D01*
Y0277355D01*
Y0277283D01*
X0385232D01*
Y0277210D01*
Y0277137D01*
Y0277065D01*
Y0276992D01*
Y0276919D01*
X0385304D01*
Y0276847D01*
Y0276774D01*
Y0276701D01*
X0385377D01*
Y0276628D01*
X0385450D01*
Y0276556D01*
X0385522D01*
Y0276483D01*
X0385595D01*
Y0276410D01*
X0385740D01*
Y0276338D01*
X0385959D01*
Y0276265D01*
X0386976D01*
Y0276338D01*
X0387267D01*
Y0276410D01*
X0387413D01*
Y0276483D01*
X0387631D01*
Y0276556D01*
X0387703D01*
Y0276628D01*
X0387849D01*
Y0276701D01*
X0387994D01*
Y0276774D01*
X0388067D01*
Y0276847D01*
X0388140D01*
Y0276919D01*
X0388212D01*
Y0276992D01*
X0388285D01*
Y0277065D01*
X0388358D01*
Y0277137D01*
X0388430D01*
Y0277210D01*
X0388503D01*
Y0277283D01*
X0388576D01*
Y0277355D01*
X0388649D01*
Y0277428D01*
X0388794D01*
Y0277355D01*
X0388867D01*
Y0277283D01*
Y0277210D01*
X0388794D01*
Y0277137D01*
Y0277065D01*
Y0276992D01*
X0388721D01*
Y0276919D01*
Y0276847D01*
Y0276774D01*
Y0276701D01*
X0388649D01*
Y0276628D01*
Y0276556D01*
Y0276483D01*
Y0276410D01*
X0388576D01*
Y0276338D01*
Y0276265D01*
Y0276192D01*
Y0276119D01*
X0388503D01*
Y0276047D01*
Y0275974D01*
Y0275901D01*
X0388430D01*
Y0275829D01*
Y0275756D01*
Y0275683D01*
Y0275611D01*
X0388067D01*
Y0275683D01*
Y0275756D01*
Y0275829D01*
X0387994D01*
Y0275901D01*
X0387849D01*
Y0275829D01*
X0387703D01*
Y0275756D01*
X0387558D01*
Y0275683D01*
X0387340D01*
Y0275611D01*
X0387049D01*
Y0275538D01*
X0385740D01*
Y0275611D01*
X0385450D01*
Y0275683D01*
X0385232D01*
Y0275756D01*
X0385086D01*
Y0275829D01*
X0384941D01*
Y0275901D01*
X0384795D01*
Y0275974D01*
X0384723D01*
Y0276047D01*
X0384650D01*
Y0276119D01*
X0384577D01*
Y0276192D01*
X0384505D01*
Y0276265D01*
X0384432D01*
Y0276338D01*
X0384359D01*
Y0276410D01*
Y0276483D01*
X0384286D01*
Y0276556D01*
Y0276628D01*
X0384214D01*
Y0276701D01*
Y0276774D01*
Y0276847D01*
X0384141D01*
Y0276919D01*
Y0276992D01*
Y0277065D01*
Y0277137D01*
Y0277210D01*
Y0277283D01*
Y0277355D01*
Y0277428D01*
Y0277501D01*
Y0277573D01*
Y0277646D01*
Y0277719D01*
Y0277792D01*
Y0277864D01*
X0384214D01*
Y0277937D01*
Y0278010D01*
Y0278082D01*
X0384286D01*
Y0278155D01*
Y0278228D01*
X0384359D01*
Y0278300D01*
Y0278373D01*
X0384432D01*
Y0278446D01*
X0384505D01*
Y0278519D01*
X0384577D01*
Y0278591D01*
X0384650D01*
Y0278664D01*
X0384795D01*
Y0278737D01*
X0384941D01*
Y0278809D01*
X0385086D01*
Y0278882D01*
X0385232D01*
Y0278955D01*
X0385450D01*
Y0279027D01*
X0385740D01*
Y0279100D01*
X0386031D01*
Y0279173D01*
X0386395D01*
Y0279246D01*
X0386686D01*
Y0279318D01*
X0386976D01*
Y0279391D01*
X0387194D01*
Y0279464D01*
X0387413D01*
Y0279536D01*
X0387485D01*
Y0279609D01*
X0387558D01*
Y0279682D01*
X0387631D01*
Y0279754D01*
Y0279827D01*
Y0279900D01*
Y0279973D01*
Y0280045D01*
Y0280118D01*
Y0280191D01*
Y0280263D01*
X0387558D01*
Y0280336D01*
Y0280409D01*
X0387485D01*
Y0280481D01*
X0387340D01*
Y0280554D01*
X0387194D01*
Y0280627D01*
X0386904D01*
Y0280699D01*
X0386249D01*
Y0280627D01*
X0385959D01*
Y0280554D01*
X0385740D01*
Y0280481D01*
X0385522D01*
Y0280409D01*
X0385377D01*
Y0280336D01*
X0385304D01*
Y0280263D01*
X0385159D01*
Y0280191D01*
X0385086D01*
Y0280118D01*
X0385014D01*
Y0280045D01*
X0384941D01*
Y0279973D01*
X0384868D01*
Y0279900D01*
X0384795D01*
Y0279827D01*
X0384723D01*
Y0279754D01*
X0384577D01*
Y0279827D01*
X0384505D01*
Y0279900D01*
Y0279973D01*
X0384577D01*
Y0280045D01*
Y0280118D01*
Y0280191D01*
Y0280263D01*
X0384650D01*
Y0280336D01*
Y0280409D01*
Y0280481D01*
X0384723D01*
Y0280554D01*
Y0280627D01*
Y0280699D01*
Y0280772D01*
X0384795D01*
Y0280845D01*
Y0280918D01*
Y0280990D01*
X0384868D01*
Y0281063D01*
Y0281136D01*
Y0281208D01*
Y0281281D01*
X0384941D01*
Y0281354D01*
X0385232D01*
Y0281281D01*
Y0281208D01*
Y0281136D01*
X0385304D01*
Y0281063D01*
X0385377D01*
Y0281136D01*
X0385522D01*
Y0281208D01*
X0385668D01*
Y0281281D01*
X0385886D01*
Y0281354D01*
X0386177D01*
Y0281427D01*
X0387122D01*
Y0281354D01*
D02*
G37*
G36*
X0400426Y0281281D02*
Y0281208D01*
Y0281136D01*
X0400281D01*
Y0281063D01*
X0400135D01*
Y0280990D01*
X0399990D01*
Y0280918D01*
X0399917D01*
Y0280845D01*
X0399844D01*
Y0280772D01*
X0399772D01*
Y0280699D01*
X0399699D01*
Y0280627D01*
X0399626D01*
Y0280554D01*
X0399553D01*
Y0280481D01*
Y0280409D01*
X0399481D01*
Y0280336D01*
X0399408D01*
Y0280263D01*
Y0280191D01*
X0399335D01*
Y0280118D01*
X0399263D01*
Y0280045D01*
X0399190D01*
Y0279973D01*
Y0279900D01*
X0399117D01*
Y0279827D01*
X0399045D01*
Y0279754D01*
Y0279682D01*
X0398972D01*
Y0279609D01*
X0398899D01*
Y0279536D01*
X0398827D01*
Y0279464D01*
Y0279391D01*
X0398754D01*
Y0279318D01*
X0398681D01*
Y0279246D01*
Y0279173D01*
X0398608D01*
Y0279100D01*
X0398536D01*
Y0279027D01*
Y0278955D01*
X0398463D01*
Y0278882D01*
X0398390D01*
Y0278809D01*
X0398318D01*
Y0278737D01*
Y0278664D01*
X0398245D01*
Y0278591D01*
X0398172D01*
Y0278519D01*
Y0278446D01*
Y0278373D01*
X0398245D01*
Y0278300D01*
Y0278228D01*
X0398318D01*
Y0278155D01*
X0398390D01*
Y0278082D01*
X0398463D01*
Y0278010D01*
Y0277937D01*
X0398536D01*
Y0277864D01*
X0398608D01*
Y0277792D01*
Y0277719D01*
X0398681D01*
Y0277646D01*
X0398754D01*
Y0277573D01*
Y0277501D01*
X0398827D01*
Y0277428D01*
X0398899D01*
Y0277355D01*
X0398972D01*
Y0277283D01*
Y0277210D01*
X0399045D01*
Y0277137D01*
X0399117D01*
Y0277065D01*
Y0276992D01*
X0399190D01*
Y0276919D01*
X0399263D01*
Y0276847D01*
X0399335D01*
Y0276774D01*
Y0276701D01*
X0399408D01*
Y0276628D01*
X0399481D01*
Y0276556D01*
Y0276483D01*
X0399553D01*
Y0276410D01*
X0399626D01*
Y0276338D01*
X0399699D01*
Y0276265D01*
X0399772D01*
Y0276192D01*
X0399844D01*
Y0276119D01*
X0399917D01*
Y0276047D01*
X0399990D01*
Y0275974D01*
X0400135D01*
Y0275901D01*
X0400353D01*
Y0275829D01*
X0400499D01*
Y0275756D01*
Y0275683D01*
Y0275611D01*
X0398318D01*
Y0275683D01*
Y0275756D01*
Y0275829D01*
X0398536D01*
Y0275901D01*
X0398681D01*
Y0275974D01*
X0398754D01*
Y0276047D01*
Y0276119D01*
Y0276192D01*
Y0276265D01*
Y0276338D01*
X0398681D01*
Y0276410D01*
Y0276483D01*
X0398608D01*
Y0276556D01*
X0398536D01*
Y0276628D01*
Y0276701D01*
X0398463D01*
Y0276774D01*
Y0276847D01*
X0398390D01*
Y0276919D01*
X0398318D01*
Y0276992D01*
Y0277065D01*
X0398245D01*
Y0277137D01*
X0398172D01*
Y0277210D01*
Y0277283D01*
X0398099D01*
Y0277355D01*
X0398027D01*
Y0277428D01*
Y0277501D01*
X0397954D01*
Y0277573D01*
X0397881D01*
Y0277646D01*
Y0277719D01*
X0397809D01*
Y0277792D01*
Y0277864D01*
X0397736D01*
Y0277937D01*
X0397663D01*
Y0277864D01*
Y0277792D01*
X0397591D01*
Y0277719D01*
X0397518D01*
Y0277646D01*
Y0277573D01*
X0397445D01*
Y0277501D01*
X0397373D01*
Y0277428D01*
X0397300D01*
Y0277355D01*
Y0277283D01*
X0397227D01*
Y0277210D01*
X0397154D01*
Y0277137D01*
Y0277065D01*
X0397082D01*
Y0276992D01*
X0397009D01*
Y0276919D01*
Y0276847D01*
X0396936D01*
Y0276774D01*
X0396864D01*
Y0276701D01*
Y0276628D01*
X0396791D01*
Y0276556D01*
X0396718D01*
Y0276483D01*
X0396645D01*
Y0276410D01*
Y0276338D01*
X0396573D01*
Y0276265D01*
Y0276192D01*
Y0276119D01*
Y0276047D01*
X0396645D01*
Y0275974D01*
X0396718D01*
Y0275901D01*
X0396864D01*
Y0275829D01*
X0397082D01*
Y0275756D01*
Y0275683D01*
Y0275611D01*
X0393156D01*
Y0275683D01*
Y0275756D01*
Y0275829D01*
X0393374D01*
Y0275901D01*
X0393519D01*
Y0275974D01*
X0393592D01*
Y0276047D01*
Y0276119D01*
Y0276192D01*
Y0276265D01*
Y0276338D01*
Y0276410D01*
X0393519D01*
Y0276483D01*
Y0276556D01*
Y0276628D01*
X0393447D01*
Y0276701D01*
Y0276774D01*
Y0276847D01*
X0393374D01*
Y0276919D01*
Y0276992D01*
X0393301D01*
Y0277065D01*
Y0277137D01*
Y0277210D01*
X0390902D01*
Y0277137D01*
Y0277065D01*
Y0276992D01*
X0390829D01*
Y0276919D01*
Y0276847D01*
Y0276774D01*
X0390757D01*
Y0276701D01*
Y0276628D01*
X0390684D01*
Y0276556D01*
Y0276483D01*
Y0276410D01*
X0390611D01*
Y0276338D01*
Y0276265D01*
Y0276192D01*
Y0276119D01*
Y0276047D01*
X0390684D01*
Y0275974D01*
X0390757D01*
Y0275901D01*
X0390829D01*
Y0275829D01*
X0391048D01*
Y0275756D01*
Y0275683D01*
Y0275611D01*
X0388649D01*
Y0275683D01*
Y0275756D01*
Y0275829D01*
X0388721D01*
Y0275901D01*
X0388867D01*
Y0275974D01*
X0388939D01*
Y0276047D01*
X0389012D01*
Y0276119D01*
X0389085D01*
Y0276192D01*
X0389157D01*
Y0276265D01*
X0389230D01*
Y0276338D01*
Y0276410D01*
X0389303D01*
Y0276483D01*
Y0276556D01*
Y0276628D01*
X0389375D01*
Y0276701D01*
Y0276774D01*
X0389448D01*
Y0276847D01*
Y0276919D01*
Y0276992D01*
X0389521D01*
Y0277065D01*
Y0277137D01*
Y0277210D01*
X0389594D01*
Y0277283D01*
Y0277355D01*
X0389666D01*
Y0277428D01*
Y0277501D01*
Y0277573D01*
X0389739D01*
Y0277646D01*
Y0277719D01*
X0389812D01*
Y0277792D01*
Y0277864D01*
Y0277937D01*
X0389884D01*
Y0278010D01*
Y0278082D01*
Y0278155D01*
X0389957D01*
Y0278228D01*
Y0278300D01*
X0390030D01*
Y0278373D01*
Y0278446D01*
Y0278519D01*
X0390103D01*
Y0278591D01*
Y0278664D01*
Y0278737D01*
X0390175D01*
Y0278809D01*
Y0278882D01*
X0390248D01*
Y0278955D01*
Y0279027D01*
Y0279100D01*
X0390321D01*
Y0279173D01*
Y0279246D01*
X0390393D01*
Y0279318D01*
Y0279391D01*
Y0279464D01*
X0390466D01*
Y0279536D01*
Y0279609D01*
Y0279682D01*
X0390539D01*
Y0279754D01*
Y0279827D01*
X0390611D01*
Y0279900D01*
Y0279973D01*
Y0280045D01*
X0390684D01*
Y0280118D01*
Y0280191D01*
Y0280263D01*
X0390757D01*
Y0280336D01*
Y0280409D01*
X0390829D01*
Y0280481D01*
Y0280554D01*
Y0280627D01*
X0390902D01*
Y0280699D01*
Y0280772D01*
X0390975D01*
Y0280845D01*
Y0280918D01*
Y0280990D01*
X0391048D01*
Y0281063D01*
Y0281136D01*
Y0281208D01*
X0391120D01*
Y0281281D01*
Y0281354D01*
X0392429D01*
Y0281281D01*
X0392502D01*
Y0281208D01*
Y0281136D01*
Y0281063D01*
X0392574D01*
Y0280990D01*
Y0280918D01*
X0392647D01*
Y0280845D01*
Y0280772D01*
Y0280699D01*
X0392720D01*
Y0280627D01*
Y0280554D01*
Y0280481D01*
X0392792D01*
Y0280409D01*
Y0280336D01*
X0392865D01*
Y0280263D01*
Y0280191D01*
Y0280118D01*
X0392938D01*
Y0280045D01*
Y0279973D01*
X0393010D01*
Y0279900D01*
Y0279827D01*
Y0279754D01*
X0393083D01*
Y0279682D01*
Y0279609D01*
X0393156D01*
Y0279536D01*
Y0279464D01*
Y0279391D01*
X0393229D01*
Y0279318D01*
Y0279246D01*
X0393301D01*
Y0279173D01*
Y0279100D01*
Y0279027D01*
X0393374D01*
Y0278955D01*
Y0278882D01*
X0393447D01*
Y0278809D01*
Y0278737D01*
Y0278664D01*
X0393519D01*
Y0278591D01*
Y0278519D01*
Y0278446D01*
X0393592D01*
Y0278373D01*
Y0278300D01*
X0393665D01*
Y0278228D01*
Y0278155D01*
Y0278082D01*
X0393738D01*
Y0278010D01*
Y0277937D01*
X0393810D01*
Y0277864D01*
Y0277792D01*
Y0277719D01*
X0393883D01*
Y0277646D01*
Y0277573D01*
X0393956D01*
Y0277501D01*
Y0277428D01*
Y0277355D01*
X0394028D01*
Y0277283D01*
Y0277210D01*
X0394101D01*
Y0277137D01*
Y0277065D01*
Y0276992D01*
X0394174D01*
Y0276919D01*
Y0276847D01*
Y0276774D01*
X0394246D01*
Y0276701D01*
Y0276628D01*
X0394319D01*
Y0276556D01*
Y0276483D01*
X0394392D01*
Y0276410D01*
Y0276338D01*
X0394464D01*
Y0276265D01*
X0394537D01*
Y0276192D01*
Y0276119D01*
X0394610D01*
Y0276047D01*
X0394683D01*
Y0275974D01*
X0394828D01*
Y0276047D01*
X0394901D01*
Y0276119D01*
X0394973D01*
Y0276192D01*
X0395046D01*
Y0276265D01*
X0395119D01*
Y0276338D01*
Y0276410D01*
X0395192D01*
Y0276483D01*
X0395264D01*
Y0276556D01*
X0395337D01*
Y0276628D01*
Y0276701D01*
X0395410D01*
Y0276774D01*
X0395482D01*
Y0276847D01*
Y0276919D01*
X0395555D01*
Y0276992D01*
X0395628D01*
Y0277065D01*
X0395700D01*
Y0277137D01*
Y0277210D01*
X0395773D01*
Y0277283D01*
X0395846D01*
Y0277355D01*
Y0277428D01*
X0395918D01*
Y0277501D01*
X0395991D01*
Y0277573D01*
Y0277646D01*
X0396064D01*
Y0277719D01*
X0396137D01*
Y0277792D01*
X0396209D01*
Y0277864D01*
Y0277937D01*
X0396282D01*
Y0278010D01*
X0396355D01*
Y0278082D01*
Y0278155D01*
X0396427D01*
Y0278228D01*
X0396500D01*
Y0278300D01*
X0396573D01*
Y0278373D01*
Y0278446D01*
X0396645D01*
Y0278519D01*
X0396718D01*
Y0278591D01*
Y0278664D01*
X0396791D01*
Y0278737D01*
X0396718D01*
Y0278809D01*
X0396645D01*
Y0278882D01*
X0396573D01*
Y0278955D01*
Y0279027D01*
X0396500D01*
Y0279100D01*
X0396427D01*
Y0279173D01*
Y0279246D01*
X0396355D01*
Y0279318D01*
X0396282D01*
Y0279391D01*
X0396209D01*
Y0279464D01*
Y0279536D01*
X0396137D01*
Y0279609D01*
X0396064D01*
Y0279682D01*
Y0279754D01*
X0395991D01*
Y0279827D01*
X0395918D01*
Y0279900D01*
Y0279973D01*
X0395846D01*
Y0280045D01*
X0395773D01*
Y0280118D01*
X0395700D01*
Y0280191D01*
Y0280263D01*
X0395628D01*
Y0280336D01*
X0395555D01*
Y0280409D01*
Y0280481D01*
X0395482D01*
Y0280554D01*
X0395410D01*
Y0280627D01*
X0395337D01*
Y0280699D01*
X0395264D01*
Y0280772D01*
X0395192D01*
Y0280845D01*
X0395119D01*
Y0280918D01*
X0395046D01*
Y0280990D01*
X0394901D01*
Y0281063D01*
X0394683D01*
Y0281136D01*
X0394610D01*
Y0281208D01*
Y0281281D01*
Y0281354D01*
X0396645D01*
Y0281281D01*
Y0281208D01*
Y0281136D01*
X0396427D01*
Y0281063D01*
X0396282D01*
Y0280990D01*
X0396209D01*
Y0280918D01*
Y0280845D01*
Y0280772D01*
Y0280699D01*
Y0280627D01*
X0396282D01*
Y0280554D01*
X0396355D01*
Y0280481D01*
Y0280409D01*
X0396427D01*
Y0280336D01*
X0396500D01*
Y0280263D01*
Y0280191D01*
X0396573D01*
Y0280118D01*
X0396645D01*
Y0280045D01*
Y0279973D01*
X0396718D01*
Y0279900D01*
X0396791D01*
Y0279827D01*
Y0279754D01*
X0396864D01*
Y0279682D01*
X0396936D01*
Y0279609D01*
Y0279536D01*
X0397009D01*
Y0279464D01*
X0397082D01*
Y0279391D01*
Y0279318D01*
X0397154D01*
Y0279246D01*
X0397227D01*
Y0279318D01*
X0397300D01*
Y0279391D01*
X0397373D01*
Y0279464D01*
Y0279536D01*
X0397445D01*
Y0279609D01*
X0397518D01*
Y0279682D01*
Y0279754D01*
X0397591D01*
Y0279827D01*
X0397663D01*
Y0279900D01*
Y0279973D01*
X0397736D01*
Y0280045D01*
X0397809D01*
Y0280118D01*
Y0280191D01*
X0397881D01*
Y0280263D01*
X0397954D01*
Y0280336D01*
Y0280409D01*
X0398027D01*
Y0280481D01*
Y0280554D01*
X0398099D01*
Y0280627D01*
Y0280699D01*
X0398172D01*
Y0280772D01*
Y0280845D01*
X0398099D01*
Y0280918D01*
Y0280990D01*
X0398027D01*
Y0281063D01*
X0397881D01*
Y0281136D01*
X0397736D01*
Y0281208D01*
Y0281281D01*
Y0281354D01*
X0400426D01*
Y0281281D01*
D02*
G37*
G36*
X0410749Y0283026D02*
Y0282953D01*
X0410822D01*
Y0282880D01*
Y0282808D01*
Y0282735D01*
X0410895D01*
Y0282662D01*
Y0282590D01*
Y0282517D01*
X0410967D01*
Y0282444D01*
Y0282372D01*
Y0282299D01*
X0411040D01*
Y0282226D01*
Y0282154D01*
Y0282081D01*
X0411113D01*
Y0282008D01*
Y0281935D01*
X0411186D01*
Y0281863D01*
Y0281790D01*
Y0281717D01*
X0411113D01*
Y0281645D01*
X0411040D01*
Y0281717D01*
X0410967D01*
Y0281790D01*
X0410895D01*
Y0281863D01*
X0410822D01*
Y0281935D01*
X0410749D01*
Y0282008D01*
X0410604D01*
Y0282081D01*
X0410531D01*
Y0282154D01*
X0410313D01*
Y0282226D01*
X0410022D01*
Y0282299D01*
X0408568D01*
Y0282226D01*
X0408423D01*
Y0282154D01*
Y0282081D01*
Y0282008D01*
X0408350D01*
Y0281935D01*
Y0281863D01*
Y0281790D01*
Y0281717D01*
Y0281645D01*
Y0281572D01*
Y0281499D01*
Y0281427D01*
Y0281354D01*
Y0281281D01*
Y0281208D01*
Y0281136D01*
Y0281063D01*
Y0280990D01*
Y0280918D01*
Y0280845D01*
Y0280772D01*
Y0280699D01*
Y0280627D01*
Y0280554D01*
Y0280481D01*
Y0280409D01*
Y0280336D01*
Y0280263D01*
Y0280191D01*
Y0280118D01*
Y0280045D01*
Y0279973D01*
Y0279900D01*
Y0279827D01*
Y0279754D01*
Y0279682D01*
Y0279609D01*
Y0279536D01*
Y0279464D01*
Y0279391D01*
Y0279318D01*
Y0279246D01*
Y0279173D01*
Y0279100D01*
Y0279027D01*
Y0278955D01*
Y0278882D01*
Y0278809D01*
Y0278737D01*
Y0278664D01*
Y0278591D01*
Y0278519D01*
Y0278446D01*
Y0278373D01*
Y0278300D01*
Y0278228D01*
Y0278155D01*
Y0278082D01*
Y0278010D01*
Y0277937D01*
Y0277864D01*
Y0277792D01*
Y0277719D01*
Y0277646D01*
Y0277573D01*
Y0277501D01*
Y0277428D01*
Y0277355D01*
Y0277283D01*
Y0277210D01*
Y0277137D01*
Y0277065D01*
Y0276992D01*
Y0276919D01*
Y0276847D01*
Y0276774D01*
Y0276701D01*
Y0276628D01*
Y0276556D01*
Y0276483D01*
Y0276410D01*
X0408423D01*
Y0276338D01*
Y0276265D01*
Y0276192D01*
Y0276119D01*
X0408496D01*
Y0276047D01*
X0408568D01*
Y0275974D01*
X0408641D01*
Y0275901D01*
X0408786D01*
Y0275829D01*
X0408932D01*
Y0275756D01*
Y0275683D01*
Y0275611D01*
X0406460D01*
Y0275683D01*
Y0275756D01*
Y0275829D01*
X0406605D01*
Y0275901D01*
X0406751D01*
Y0275974D01*
X0406823D01*
Y0276047D01*
X0406896D01*
Y0276119D01*
X0406969D01*
Y0276192D01*
Y0276265D01*
Y0276338D01*
X0407042D01*
Y0276410D01*
Y0276483D01*
Y0276556D01*
Y0276628D01*
Y0276701D01*
Y0276774D01*
Y0276847D01*
Y0276919D01*
Y0276992D01*
Y0277065D01*
Y0277137D01*
Y0277210D01*
Y0277283D01*
Y0277355D01*
Y0277428D01*
Y0277501D01*
Y0277573D01*
Y0277646D01*
Y0277719D01*
Y0277792D01*
Y0277864D01*
Y0277937D01*
Y0278010D01*
Y0278082D01*
Y0278155D01*
Y0278228D01*
Y0278300D01*
Y0278373D01*
Y0278446D01*
Y0278519D01*
Y0278591D01*
Y0278664D01*
Y0278737D01*
Y0278809D01*
Y0278882D01*
Y0278955D01*
Y0279027D01*
Y0279100D01*
Y0279173D01*
Y0279246D01*
Y0279318D01*
Y0279391D01*
Y0279464D01*
Y0279536D01*
Y0279609D01*
Y0279682D01*
Y0279754D01*
Y0279827D01*
Y0279900D01*
Y0279973D01*
Y0280045D01*
Y0280118D01*
Y0280191D01*
Y0280263D01*
Y0280336D01*
Y0280409D01*
Y0280481D01*
Y0280554D01*
Y0280627D01*
Y0280699D01*
Y0280772D01*
Y0280845D01*
Y0280918D01*
Y0280990D01*
Y0281063D01*
Y0281136D01*
Y0281208D01*
Y0281281D01*
Y0281354D01*
Y0281427D01*
Y0281499D01*
Y0281572D01*
Y0281645D01*
Y0281717D01*
Y0281790D01*
Y0281863D01*
Y0281935D01*
Y0282008D01*
Y0282081D01*
X0406969D01*
Y0282154D01*
Y0282226D01*
X0406896D01*
Y0282299D01*
X0405370D01*
Y0282226D01*
X0405079D01*
Y0282154D01*
X0404861D01*
Y0282081D01*
X0404788D01*
Y0282008D01*
X0404642D01*
Y0281935D01*
X0404570D01*
Y0281863D01*
X0404497D01*
Y0281790D01*
X0404424D01*
Y0281717D01*
Y0281645D01*
X0404279D01*
Y0281717D01*
X0404206D01*
Y0281790D01*
X0404279D01*
Y0281863D01*
Y0281935D01*
Y0282008D01*
X0404352D01*
Y0282081D01*
Y0282154D01*
Y0282226D01*
X0404424D01*
Y0282299D01*
Y0282372D01*
Y0282444D01*
X0404497D01*
Y0282517D01*
Y0282590D01*
Y0282662D01*
X0404570D01*
Y0282735D01*
Y0282808D01*
Y0282880D01*
X0404642D01*
Y0282953D01*
Y0283026D01*
Y0283099D01*
X0410749D01*
Y0283026D01*
D02*
G37*
G36*
X0292679Y0297544D02*
X0288979Y0298744D01*
X0289979Y0295444D01*
X0290479Y0295844D01*
X0290179Y0293744D01*
X0288579Y0295544D01*
X0289379Y0295344D01*
X0287379Y0299944D01*
X0291179Y0298844D01*
X0288479Y0304144D01*
X0289979D01*
X0292679Y0297544D01*
D02*
G37*
G36*
X0420273Y0285425D02*
X0420346D01*
Y0285352D01*
Y0285280D01*
Y0285207D01*
Y0285134D01*
Y0285062D01*
X0420418D01*
Y0284989D01*
Y0284916D01*
Y0284843D01*
Y0284771D01*
Y0284698D01*
X0420491D01*
Y0284625D01*
Y0284553D01*
Y0284480D01*
Y0284407D01*
Y0284334D01*
X0420564D01*
Y0284262D01*
Y0284189D01*
Y0284116D01*
Y0284044D01*
Y0283971D01*
X0420637D01*
Y0283898D01*
Y0283826D01*
X0418892D01*
Y0283898D01*
Y0283971D01*
Y0284044D01*
Y0284116D01*
X0418819D01*
Y0284189D01*
Y0284262D01*
Y0284334D01*
Y0284407D01*
Y0284480D01*
X0418746D01*
Y0284553D01*
Y0284625D01*
Y0284698D01*
Y0284771D01*
Y0284843D01*
X0418674D01*
Y0284916D01*
Y0284989D01*
Y0285062D01*
Y0285134D01*
Y0285207D01*
X0418601D01*
Y0285280D01*
Y0285352D01*
Y0285425D01*
Y0285498D01*
X0420273D01*
Y0285425D01*
D02*
G37*
G36*
X0405588Y0281281D02*
Y0281208D01*
Y0281136D01*
X0405442D01*
Y0281063D01*
X0405224D01*
Y0280990D01*
X0405151D01*
Y0280918D01*
X0405079D01*
Y0280845D01*
Y0280772D01*
X0405006D01*
Y0280699D01*
Y0280627D01*
Y0280554D01*
Y0280481D01*
Y0280409D01*
Y0280336D01*
Y0280263D01*
Y0280191D01*
Y0280118D01*
Y0280045D01*
Y0279973D01*
Y0279900D01*
Y0279827D01*
Y0279754D01*
Y0279682D01*
Y0279609D01*
Y0279536D01*
Y0279464D01*
Y0279391D01*
Y0279318D01*
Y0279246D01*
Y0279173D01*
Y0279100D01*
Y0279027D01*
Y0278955D01*
Y0278882D01*
Y0278809D01*
Y0278737D01*
Y0278664D01*
Y0278591D01*
Y0278519D01*
Y0278446D01*
Y0278373D01*
Y0278300D01*
Y0278228D01*
Y0278155D01*
Y0278082D01*
Y0278010D01*
Y0277937D01*
Y0277864D01*
Y0277792D01*
Y0277719D01*
Y0277646D01*
Y0277573D01*
Y0277501D01*
Y0277428D01*
Y0277355D01*
Y0277283D01*
Y0277210D01*
Y0277137D01*
Y0277065D01*
Y0276992D01*
Y0276919D01*
Y0276847D01*
Y0276774D01*
Y0276701D01*
Y0276628D01*
Y0276556D01*
Y0276483D01*
Y0276410D01*
Y0276338D01*
Y0276265D01*
Y0276192D01*
X0405079D01*
Y0276119D01*
Y0276047D01*
X0405151D01*
Y0275974D01*
X0405224D01*
Y0275901D01*
X0405370D01*
Y0275829D01*
X0405588D01*
Y0275756D01*
Y0275683D01*
Y0275611D01*
X0400862D01*
Y0275683D01*
Y0275756D01*
X0400789D01*
Y0275829D01*
Y0275901D01*
X0400717D01*
Y0275974D01*
Y0276047D01*
Y0276119D01*
X0400644D01*
Y0276192D01*
Y0276265D01*
X0400571D01*
Y0276338D01*
Y0276410D01*
Y0276483D01*
X0400499D01*
Y0276556D01*
Y0276628D01*
X0400426D01*
Y0276701D01*
Y0276774D01*
Y0276847D01*
X0400353D01*
Y0276919D01*
Y0276992D01*
X0400426D01*
Y0277065D01*
X0400499D01*
Y0276992D01*
X0400571D01*
Y0276919D01*
X0400644D01*
Y0276847D01*
X0400717D01*
Y0276774D01*
X0400789D01*
Y0276701D01*
X0400862D01*
Y0276628D01*
X0401008D01*
Y0276556D01*
X0401080D01*
Y0276483D01*
X0401226D01*
Y0276410D01*
X0401444D01*
Y0276338D01*
X0401953D01*
Y0276265D01*
X0403479D01*
Y0276338D01*
X0403697D01*
Y0276410D01*
Y0276483D01*
X0403770D01*
Y0276556D01*
Y0276628D01*
Y0276701D01*
Y0276774D01*
Y0276847D01*
Y0276919D01*
Y0276992D01*
Y0277065D01*
Y0277137D01*
Y0277210D01*
Y0277283D01*
Y0277355D01*
Y0277428D01*
Y0277501D01*
Y0277573D01*
Y0277646D01*
Y0277719D01*
Y0277792D01*
Y0277864D01*
Y0277937D01*
Y0278010D01*
Y0278082D01*
Y0278155D01*
Y0278228D01*
Y0278300D01*
X0402025D01*
Y0278228D01*
X0401807D01*
Y0278155D01*
X0401734D01*
Y0278082D01*
X0401662D01*
Y0278010D01*
X0401589D01*
Y0277937D01*
Y0277864D01*
Y0277792D01*
X0401371D01*
Y0277864D01*
Y0277937D01*
Y0278010D01*
Y0278082D01*
Y0278155D01*
Y0278228D01*
Y0278300D01*
Y0278373D01*
Y0278446D01*
Y0278519D01*
Y0278591D01*
Y0278664D01*
Y0278737D01*
Y0278809D01*
Y0278882D01*
Y0278955D01*
Y0279027D01*
Y0279100D01*
Y0279173D01*
Y0279246D01*
Y0279318D01*
Y0279391D01*
X0401589D01*
Y0279318D01*
Y0279246D01*
X0401662D01*
Y0279173D01*
Y0279100D01*
X0401734D01*
Y0279027D01*
X0401880D01*
Y0278955D01*
X0403770D01*
Y0279027D01*
Y0279100D01*
Y0279173D01*
Y0279246D01*
Y0279318D01*
Y0279391D01*
Y0279464D01*
Y0279536D01*
Y0279609D01*
Y0279682D01*
Y0279754D01*
Y0279827D01*
Y0279900D01*
Y0279973D01*
Y0280045D01*
Y0280118D01*
Y0280191D01*
Y0280263D01*
Y0280336D01*
Y0280409D01*
Y0280481D01*
X0403697D01*
Y0280554D01*
X0403625D01*
Y0280627D01*
X0401734D01*
Y0280554D01*
X0401516D01*
Y0280481D01*
X0401371D01*
Y0280409D01*
X0401226D01*
Y0280336D01*
X0401153D01*
Y0280263D01*
X0401080D01*
Y0280191D01*
X0401008D01*
Y0280118D01*
X0400935D01*
Y0280045D01*
X0400862D01*
Y0279973D01*
X0400644D01*
Y0280045D01*
Y0280118D01*
Y0280191D01*
Y0280263D01*
X0400717D01*
Y0280336D01*
Y0280409D01*
X0400789D01*
Y0280481D01*
Y0280554D01*
Y0280627D01*
X0400862D01*
Y0280699D01*
Y0280772D01*
Y0280845D01*
X0400935D01*
Y0280918D01*
Y0280990D01*
Y0281063D01*
X0401008D01*
Y0281136D01*
Y0281208D01*
X0401080D01*
Y0281281D01*
Y0281354D01*
X0405588D01*
Y0281281D01*
D02*
G37*
G36*
X0426889Y0286370D02*
Y0286297D01*
Y0286225D01*
Y0286152D01*
Y0286079D01*
Y0286007D01*
Y0285934D01*
Y0285861D01*
Y0285788D01*
Y0285716D01*
Y0285643D01*
Y0285570D01*
Y0285498D01*
Y0285425D01*
Y0285352D01*
Y0285280D01*
Y0285207D01*
Y0285134D01*
Y0285062D01*
Y0284989D01*
Y0284916D01*
Y0284843D01*
Y0284771D01*
Y0284698D01*
Y0284625D01*
Y0284553D01*
Y0284480D01*
Y0284407D01*
Y0284334D01*
Y0284262D01*
Y0284189D01*
Y0284116D01*
Y0284044D01*
Y0283971D01*
Y0283898D01*
Y0283826D01*
Y0283753D01*
Y0283680D01*
Y0283608D01*
Y0283535D01*
Y0283462D01*
Y0283389D01*
Y0283317D01*
Y0283244D01*
Y0283171D01*
Y0283099D01*
Y0283026D01*
Y0282953D01*
Y0282880D01*
Y0282808D01*
Y0282735D01*
Y0282662D01*
Y0282590D01*
Y0282517D01*
Y0282444D01*
Y0282372D01*
Y0282299D01*
Y0282226D01*
Y0282154D01*
Y0282081D01*
Y0282008D01*
Y0281935D01*
Y0281863D01*
Y0281790D01*
Y0281717D01*
Y0281645D01*
Y0281572D01*
Y0281499D01*
Y0281427D01*
Y0281354D01*
Y0281281D01*
Y0281208D01*
Y0281136D01*
Y0281063D01*
Y0280990D01*
Y0280918D01*
Y0280845D01*
Y0280772D01*
Y0280699D01*
Y0280627D01*
Y0280554D01*
Y0280481D01*
Y0280409D01*
Y0280336D01*
Y0280263D01*
Y0280191D01*
Y0280118D01*
Y0280045D01*
Y0279973D01*
Y0279900D01*
Y0279827D01*
Y0279754D01*
Y0279682D01*
X0431905D01*
Y0279609D01*
Y0279536D01*
Y0279464D01*
Y0279391D01*
Y0279318D01*
X0431832D01*
Y0279246D01*
Y0279173D01*
Y0279100D01*
Y0279027D01*
X0431760D01*
Y0278955D01*
Y0278882D01*
X0431687D01*
Y0278809D01*
Y0278737D01*
X0431614D01*
Y0278664D01*
Y0278591D01*
X0431541D01*
Y0278519D01*
Y0278446D01*
X0431469D01*
Y0278373D01*
X0431396D01*
Y0278300D01*
Y0278228D01*
X0431323D01*
Y0278155D01*
X0431251D01*
Y0278082D01*
X0431178D01*
Y0278010D01*
X0431105D01*
Y0277937D01*
X0431033D01*
Y0277864D01*
X0430960D01*
Y0277792D01*
X0430887D01*
Y0277719D01*
X0430815D01*
Y0277646D01*
X0430669D01*
Y0277573D01*
X0430596D01*
Y0277501D01*
X0430524D01*
Y0277428D01*
X0430451D01*
Y0277355D01*
X0430378D01*
Y0277283D01*
X0430306D01*
Y0277210D01*
X0430233D01*
Y0277137D01*
X0430160D01*
Y0277065D01*
X0430088D01*
Y0276992D01*
X0430015D01*
Y0276919D01*
X0429942D01*
Y0276847D01*
Y0276774D01*
X0429869D01*
Y0276701D01*
X0429797D01*
Y0276628D01*
Y0276556D01*
X0429724D01*
Y0276483D01*
X0429651D01*
Y0276410D01*
Y0276338D01*
Y0276265D01*
X0429579D01*
Y0276192D01*
Y0276119D01*
X0429506D01*
Y0276047D01*
Y0275974D01*
Y0275901D01*
X0429433D01*
Y0275829D01*
Y0275756D01*
X0429360D01*
Y0275683D01*
Y0275611D01*
Y0275538D01*
X0429288D01*
Y0275465D01*
Y0275393D01*
X0429215D01*
Y0275320D01*
Y0275247D01*
X0429142D01*
Y0275174D01*
Y0275102D01*
X0429070D01*
Y0275029D01*
Y0274956D01*
X0428997D01*
Y0274884D01*
Y0274811D01*
X0428924D01*
Y0274738D01*
Y0274665D01*
X0428852D01*
Y0274593D01*
X0428779D01*
Y0274520D01*
X0428706D01*
Y0274447D01*
Y0274375D01*
X0428561D01*
Y0274302D01*
X0428488D01*
Y0274229D01*
X0428415D01*
Y0274157D01*
X0428270D01*
Y0274084D01*
X0428052D01*
Y0274011D01*
X0427470D01*
Y0274084D01*
X0427325D01*
Y0274157D01*
X0427252D01*
Y0274229D01*
X0427179D01*
Y0274302D01*
X0427107D01*
Y0274375D01*
X0427034D01*
Y0274447D01*
X0426961D01*
Y0274520D01*
X0426889D01*
Y0274593D01*
X0426816D01*
Y0274665D01*
X0426743D01*
Y0274738D01*
X0426671D01*
Y0274811D01*
X0426598D01*
Y0274884D01*
X0426525D01*
Y0274956D01*
X0426380D01*
Y0275029D01*
X0426234D01*
Y0275102D01*
X0425871D01*
Y0275174D01*
X0425726D01*
Y0275102D01*
X0425435D01*
Y0275029D01*
X0425289D01*
Y0274956D01*
X0425217D01*
Y0274884D01*
X0425144D01*
Y0274811D01*
X0425071D01*
Y0274738D01*
X0424999D01*
Y0274665D01*
X0424926D01*
Y0274593D01*
X0424853D01*
Y0274520D01*
X0424780D01*
Y0274447D01*
Y0274375D01*
X0424708D01*
Y0274302D01*
X0424635D01*
Y0274229D01*
Y0274157D01*
X0424562D01*
Y0274084D01*
Y0274011D01*
X0424490D01*
Y0273938D01*
Y0273866D01*
X0424417D01*
Y0273793D01*
Y0273720D01*
X0424344D01*
Y0273648D01*
Y0273575D01*
X0424271D01*
Y0273502D01*
Y0273430D01*
X0424199D01*
Y0273357D01*
Y0273284D01*
X0424126D01*
Y0273212D01*
Y0273139D01*
X0424053D01*
Y0273066D01*
Y0272993D01*
X0423981D01*
Y0272921D01*
Y0272848D01*
X0423908D01*
Y0272775D01*
Y0272703D01*
Y0272630D01*
X0423835D01*
Y0272557D01*
Y0272484D01*
X0423763D01*
Y0272412D01*
Y0272339D01*
X0423690D01*
Y0272266D01*
Y0272194D01*
X0423617D01*
Y0272121D01*
Y0272048D01*
X0423545D01*
Y0271976D01*
Y0271903D01*
X0423472D01*
Y0271830D01*
Y0271758D01*
X0423399D01*
Y0271685D01*
Y0271612D01*
X0423326D01*
Y0271539D01*
Y0271467D01*
X0423254D01*
Y0271394D01*
Y0271321D01*
X0423181D01*
Y0271249D01*
Y0271176D01*
X0423108D01*
Y0271103D01*
X0423036D01*
Y0271030D01*
Y0270958D01*
X0422963D01*
Y0270885D01*
Y0270812D01*
X0422890D01*
Y0270740D01*
X0422818D01*
Y0270667D01*
Y0270594D01*
X0422745D01*
Y0270521D01*
X0422672D01*
Y0270449D01*
X0422599D01*
Y0270376D01*
X0422527D01*
Y0270304D01*
Y0270231D01*
X0422454D01*
Y0270158D01*
X0422381D01*
Y0270085D01*
X0422309D01*
Y0270013D01*
X0422236D01*
Y0269940D01*
X0422163D01*
Y0269867D01*
X0422090D01*
Y0269795D01*
X0422018D01*
Y0269722D01*
X0421872D01*
Y0269649D01*
X0421800D01*
Y0269577D01*
X0421727D01*
Y0269504D01*
X0421582D01*
Y0269431D01*
X0421509D01*
Y0269358D01*
X0421363D01*
Y0269286D01*
X0421291D01*
Y0269213D01*
X0421145D01*
Y0269140D01*
X0421000D01*
Y0269068D01*
X0420782D01*
Y0268995D01*
X0420564D01*
Y0268922D01*
X0420200D01*
Y0268849D01*
X0419401D01*
Y0268922D01*
X0419037D01*
Y0268995D01*
X0418819D01*
Y0269068D01*
X0418674D01*
Y0269140D01*
Y0269213D01*
X0418746D01*
Y0269286D01*
Y0269358D01*
X0418819D01*
Y0269431D01*
Y0269504D01*
Y0269577D01*
X0418892D01*
Y0269649D01*
Y0269722D01*
Y0269795D01*
Y0269867D01*
X0418964D01*
Y0269940D01*
Y0270013D01*
Y0270085D01*
Y0270158D01*
Y0270231D01*
X0419037D01*
Y0270304D01*
Y0270376D01*
Y0270449D01*
Y0270521D01*
Y0270594D01*
Y0270667D01*
Y0270740D01*
Y0270812D01*
Y0270885D01*
Y0270958D01*
Y0271030D01*
Y0271103D01*
Y0271176D01*
Y0271249D01*
Y0271321D01*
X0418964D01*
Y0271394D01*
Y0271467D01*
Y0271539D01*
Y0271612D01*
X0418892D01*
Y0271685D01*
Y0271758D01*
Y0271830D01*
X0418819D01*
Y0271903D01*
Y0271976D01*
X0418746D01*
Y0272048D01*
Y0272121D01*
X0418674D01*
Y0272194D01*
Y0272266D01*
X0418601D01*
Y0272339D01*
Y0272412D01*
X0418528D01*
Y0272484D01*
X0418456D01*
Y0272557D01*
Y0272630D01*
X0418383D01*
Y0272703D01*
X0418310D01*
Y0272775D01*
X0418237D01*
Y0272848D01*
Y0272921D01*
X0418165D01*
Y0272993D01*
X0418092D01*
Y0273066D01*
X0418019D01*
Y0273139D01*
X0417947D01*
Y0273212D01*
X0417874D01*
Y0273284D01*
X0417801D01*
Y0273357D01*
X0417729D01*
Y0273430D01*
X0417656D01*
Y0273502D01*
X0417583D01*
Y0273575D01*
X0417510D01*
Y0273648D01*
X0417438D01*
Y0273720D01*
X0417292D01*
Y0273793D01*
X0417220D01*
Y0273866D01*
X0417147D01*
Y0273938D01*
X0417001D01*
Y0274011D01*
X0416929D01*
Y0274084D01*
X0416856D01*
Y0274157D01*
X0416711D01*
Y0274229D01*
X0416565D01*
Y0274302D01*
X0416493D01*
Y0274375D01*
X0416347D01*
Y0274447D01*
X0416202D01*
Y0274520D01*
X0416056D01*
Y0274593D01*
X0415911D01*
Y0274665D01*
X0415766D01*
Y0274738D01*
X0415620D01*
Y0274811D01*
X0415475D01*
Y0274884D01*
X0415257D01*
Y0274956D01*
X0415111D01*
Y0275029D01*
X0414893D01*
Y0275102D01*
X0414675D01*
Y0275174D01*
X0414457D01*
Y0275247D01*
X0414166D01*
Y0275320D01*
X0413948D01*
Y0275393D01*
X0413803D01*
Y0275465D01*
Y0275538D01*
Y0275611D01*
Y0275683D01*
Y0275756D01*
Y0275829D01*
Y0275901D01*
Y0275974D01*
Y0276047D01*
Y0276119D01*
Y0276192D01*
Y0276265D01*
Y0276338D01*
Y0276410D01*
Y0276483D01*
Y0276556D01*
Y0276628D01*
Y0276701D01*
Y0276774D01*
Y0276847D01*
Y0276919D01*
Y0276992D01*
Y0277065D01*
Y0277137D01*
Y0277210D01*
Y0277283D01*
Y0277355D01*
Y0277428D01*
Y0277501D01*
Y0277573D01*
Y0277646D01*
Y0277719D01*
Y0277792D01*
Y0277864D01*
Y0277937D01*
Y0278010D01*
Y0278082D01*
Y0278155D01*
Y0278228D01*
Y0278300D01*
Y0278373D01*
Y0278446D01*
Y0278519D01*
Y0278591D01*
Y0278664D01*
Y0278737D01*
Y0278809D01*
Y0278882D01*
Y0278955D01*
X0413875D01*
Y0279027D01*
X0414021D01*
Y0279100D01*
X0414093D01*
Y0279173D01*
X0414166D01*
Y0279246D01*
X0414239D01*
Y0279318D01*
X0414312D01*
Y0279391D01*
Y0279464D01*
X0414384D01*
Y0279536D01*
X0414457D01*
Y0279609D01*
Y0279682D01*
X0414530D01*
Y0279754D01*
Y0279827D01*
X0414602D01*
Y0279900D01*
Y0279973D01*
X0414675D01*
Y0280045D01*
Y0280118D01*
Y0280191D01*
Y0280263D01*
X0414748D01*
Y0280336D01*
Y0280409D01*
Y0280481D01*
Y0280554D01*
Y0280627D01*
X0414820D01*
Y0280699D01*
Y0280772D01*
Y0280845D01*
Y0280918D01*
Y0280990D01*
Y0281063D01*
Y0281136D01*
Y0281208D01*
Y0281281D01*
Y0281354D01*
Y0281427D01*
Y0281499D01*
Y0281572D01*
Y0281645D01*
Y0281717D01*
Y0281790D01*
Y0281863D01*
Y0281935D01*
Y0282008D01*
Y0282081D01*
Y0282154D01*
Y0282226D01*
Y0282299D01*
Y0282372D01*
Y0282444D01*
Y0282517D01*
Y0282590D01*
Y0282662D01*
Y0282735D01*
Y0282808D01*
Y0282880D01*
Y0282953D01*
Y0283026D01*
Y0283099D01*
X0418310D01*
Y0283026D01*
Y0282953D01*
X0418383D01*
Y0282880D01*
Y0282808D01*
Y0282735D01*
Y0282662D01*
Y0282590D01*
X0418456D01*
Y0282517D01*
Y0282444D01*
Y0282372D01*
Y0282299D01*
Y0282226D01*
X0418528D01*
Y0282154D01*
Y0282081D01*
Y0282008D01*
Y0281935D01*
Y0281863D01*
X0418601D01*
Y0281790D01*
Y0281717D01*
Y0281645D01*
Y0281572D01*
Y0281499D01*
X0418674D01*
Y0281427D01*
Y0281354D01*
Y0281281D01*
Y0281208D01*
Y0281136D01*
X0418746D01*
Y0281063D01*
Y0280990D01*
Y0280918D01*
X0417510D01*
Y0280845D01*
Y0280772D01*
Y0280699D01*
X0417583D01*
Y0280627D01*
Y0280554D01*
Y0280481D01*
Y0280409D01*
Y0280336D01*
X0417656D01*
Y0280263D01*
Y0280191D01*
Y0280118D01*
Y0280045D01*
Y0279973D01*
X0417729D01*
Y0279900D01*
Y0279827D01*
Y0279754D01*
Y0279682D01*
Y0279609D01*
X0417801D01*
Y0279536D01*
Y0279464D01*
Y0279391D01*
Y0279318D01*
Y0279246D01*
X0417874D01*
Y0279173D01*
Y0279100D01*
Y0279027D01*
Y0278955D01*
Y0278882D01*
X0419182D01*
Y0278809D01*
Y0278737D01*
Y0278664D01*
Y0278591D01*
X0419255D01*
Y0278519D01*
Y0278446D01*
Y0278373D01*
Y0278300D01*
Y0278228D01*
X0419328D01*
Y0278155D01*
Y0278082D01*
Y0278010D01*
Y0277937D01*
Y0277864D01*
X0419401D01*
Y0277792D01*
Y0277719D01*
Y0277646D01*
Y0277573D01*
Y0277501D01*
X0419473D01*
Y0277428D01*
Y0277355D01*
Y0277283D01*
Y0277210D01*
Y0277137D01*
X0419546D01*
Y0277065D01*
Y0276992D01*
Y0276919D01*
Y0276847D01*
Y0276774D01*
X0419619D01*
Y0276701D01*
Y0276628D01*
Y0276556D01*
Y0276483D01*
X0419691D01*
Y0276410D01*
Y0276338D01*
Y0276265D01*
Y0276192D01*
Y0276119D01*
Y0276047D01*
Y0275974D01*
Y0275901D01*
Y0275829D01*
X0419619D01*
Y0275756D01*
X0419473D01*
Y0275683D01*
X0418528D01*
Y0275611D01*
Y0275538D01*
X0418601D01*
Y0275465D01*
Y0275393D01*
Y0275320D01*
Y0275247D01*
Y0275174D01*
X0418674D01*
Y0275102D01*
Y0275029D01*
Y0274956D01*
Y0274884D01*
Y0274811D01*
X0418746D01*
Y0274738D01*
Y0274665D01*
Y0274593D01*
Y0274520D01*
Y0274447D01*
X0418819D01*
Y0274375D01*
Y0274302D01*
Y0274229D01*
Y0274157D01*
Y0274084D01*
X0418892D01*
Y0274011D01*
Y0273938D01*
Y0273866D01*
Y0273793D01*
Y0273720D01*
X0418964D01*
Y0273648D01*
Y0273575D01*
Y0273502D01*
X0421800D01*
Y0273575D01*
X0422236D01*
Y0273648D01*
X0422527D01*
Y0273720D01*
X0422672D01*
Y0273793D01*
X0422818D01*
Y0273866D01*
X0422890D01*
Y0273938D01*
X0422963D01*
Y0274011D01*
X0423036D01*
Y0274084D01*
Y0274157D01*
X0423108D01*
Y0274229D01*
Y0274302D01*
Y0274375D01*
X0423181D01*
Y0274447D01*
Y0274520D01*
Y0274593D01*
Y0274665D01*
Y0274738D01*
Y0274811D01*
Y0274884D01*
Y0274956D01*
X0423108D01*
Y0275029D01*
Y0275102D01*
Y0275174D01*
Y0275247D01*
Y0275320D01*
X0423036D01*
Y0275393D01*
Y0275465D01*
Y0275538D01*
Y0275611D01*
Y0275683D01*
X0422963D01*
Y0275756D01*
Y0275829D01*
Y0275901D01*
Y0275974D01*
Y0276047D01*
X0422890D01*
Y0276119D01*
Y0276192D01*
Y0276265D01*
Y0276338D01*
Y0276410D01*
X0422818D01*
Y0276483D01*
Y0276556D01*
Y0276628D01*
Y0276701D01*
Y0276774D01*
X0422745D01*
Y0276847D01*
Y0276919D01*
Y0276992D01*
Y0277065D01*
Y0277137D01*
X0422672D01*
Y0277210D01*
Y0277283D01*
Y0277355D01*
Y0277428D01*
Y0277501D01*
X0422599D01*
Y0277573D01*
Y0277646D01*
Y0277719D01*
Y0277792D01*
Y0277864D01*
X0422527D01*
Y0277937D01*
Y0278010D01*
Y0278082D01*
Y0278155D01*
Y0278228D01*
X0422454D01*
Y0278300D01*
Y0278373D01*
Y0278446D01*
Y0278519D01*
Y0278591D01*
X0422381D01*
Y0278664D01*
Y0278737D01*
Y0278809D01*
Y0278882D01*
X0423545D01*
Y0278955D01*
Y0279027D01*
Y0279100D01*
Y0279173D01*
Y0279246D01*
X0423472D01*
Y0279318D01*
Y0279391D01*
Y0279464D01*
Y0279536D01*
Y0279609D01*
X0423399D01*
Y0279682D01*
Y0279754D01*
Y0279827D01*
Y0279900D01*
Y0279973D01*
X0423326D01*
Y0280045D01*
Y0280118D01*
Y0280191D01*
Y0280263D01*
Y0280336D01*
X0423254D01*
Y0280409D01*
Y0280481D01*
Y0280554D01*
Y0280627D01*
Y0280699D01*
X0423181D01*
Y0280772D01*
Y0280845D01*
Y0280918D01*
X0421945D01*
Y0280990D01*
Y0281063D01*
Y0281136D01*
Y0281208D01*
X0421872D01*
Y0281281D01*
Y0281354D01*
Y0281427D01*
Y0281499D01*
Y0281572D01*
X0421800D01*
Y0281645D01*
Y0281717D01*
Y0281790D01*
Y0281863D01*
Y0281935D01*
X0421727D01*
Y0282008D01*
Y0282081D01*
Y0282154D01*
Y0282226D01*
Y0282299D01*
X0421654D01*
Y0282372D01*
Y0282444D01*
Y0282517D01*
Y0282590D01*
Y0282662D01*
X0421582D01*
Y0282735D01*
Y0282808D01*
Y0282880D01*
Y0282953D01*
Y0283026D01*
X0421509D01*
Y0283099D01*
X0422672D01*
Y0283171D01*
Y0283244D01*
Y0283317D01*
Y0283389D01*
Y0283462D01*
Y0283535D01*
Y0283608D01*
Y0283680D01*
Y0283753D01*
Y0283826D01*
Y0283898D01*
Y0283971D01*
Y0284044D01*
Y0284116D01*
Y0284189D01*
Y0284262D01*
Y0284334D01*
Y0284407D01*
Y0284480D01*
Y0284553D01*
Y0284625D01*
Y0284698D01*
Y0284771D01*
Y0284843D01*
Y0284916D01*
Y0284989D01*
Y0285062D01*
Y0285134D01*
Y0285207D01*
Y0285280D01*
Y0285352D01*
Y0285425D01*
Y0285498D01*
Y0285570D01*
Y0285643D01*
Y0285716D01*
Y0285788D01*
Y0285861D01*
Y0285934D01*
Y0286007D01*
Y0286079D01*
Y0286152D01*
Y0286225D01*
Y0286297D01*
Y0286370D01*
Y0286443D01*
X0426889D01*
Y0286370D01*
D02*
G37*
G36*
X0398390Y0272630D02*
X0398608D01*
Y0272557D01*
X0398827D01*
Y0272484D01*
X0398972D01*
Y0272412D01*
X0399045D01*
Y0272339D01*
X0399190D01*
Y0272266D01*
X0399263D01*
Y0272194D01*
X0399335D01*
Y0272121D01*
X0399408D01*
Y0272048D01*
X0399481D01*
Y0271976D01*
Y0271903D01*
X0399553D01*
Y0271830D01*
X0399626D01*
Y0271758D01*
Y0271685D01*
X0399699D01*
Y0271612D01*
Y0271539D01*
Y0271467D01*
Y0271394D01*
X0399772D01*
Y0271321D01*
Y0271249D01*
Y0271176D01*
Y0271103D01*
Y0271030D01*
Y0270958D01*
Y0270885D01*
Y0270812D01*
Y0270740D01*
Y0270667D01*
X0399699D01*
Y0270594D01*
Y0270521D01*
Y0270449D01*
X0399626D01*
Y0270376D01*
Y0270304D01*
X0399553D01*
Y0270231D01*
Y0270158D01*
X0399481D01*
Y0270085D01*
X0399408D01*
Y0270013D01*
X0399335D01*
Y0269940D01*
X0399263D01*
Y0269867D01*
X0399190D01*
Y0269795D01*
X0399045D01*
Y0269722D01*
X0398972D01*
Y0269649D01*
X0398827D01*
Y0269577D01*
X0398608D01*
Y0269504D01*
X0398390D01*
Y0269431D01*
X0398027D01*
Y0269358D01*
X0397736D01*
Y0269286D01*
X0397445D01*
Y0269213D01*
X0397082D01*
Y0269140D01*
X0396864D01*
Y0269068D01*
X0396718D01*
Y0268995D01*
X0396573D01*
Y0268922D01*
X0396500D01*
Y0268849D01*
X0396427D01*
Y0268777D01*
X0396355D01*
Y0268704D01*
Y0268631D01*
Y0268559D01*
X0396282D01*
Y0268486D01*
Y0268413D01*
Y0268340D01*
Y0268268D01*
X0396355D01*
Y0268195D01*
Y0268122D01*
Y0268050D01*
X0396427D01*
Y0267977D01*
Y0267904D01*
X0396500D01*
Y0267832D01*
X0396573D01*
Y0267759D01*
X0396718D01*
Y0267686D01*
X0396864D01*
Y0267614D01*
X0397154D01*
Y0267541D01*
X0397881D01*
Y0267614D01*
X0398245D01*
Y0267686D01*
X0398463D01*
Y0267759D01*
X0398608D01*
Y0267832D01*
X0398754D01*
Y0267904D01*
X0398899D01*
Y0267977D01*
X0398972D01*
Y0268050D01*
X0399117D01*
Y0268122D01*
X0399190D01*
Y0268195D01*
X0399263D01*
Y0268268D01*
X0399335D01*
Y0268340D01*
X0399408D01*
Y0268413D01*
X0399481D01*
Y0268486D01*
X0399553D01*
Y0268559D01*
X0399626D01*
Y0268631D01*
X0399699D01*
Y0268704D01*
X0399844D01*
Y0268631D01*
X0399917D01*
Y0268559D01*
Y0268486D01*
X0399844D01*
Y0268413D01*
Y0268340D01*
Y0268268D01*
Y0268195D01*
X0399772D01*
Y0268122D01*
Y0268050D01*
Y0267977D01*
Y0267904D01*
X0399699D01*
Y0267832D01*
Y0267759D01*
Y0267686D01*
X0399626D01*
Y0267614D01*
Y0267541D01*
Y0267468D01*
Y0267395D01*
X0399553D01*
Y0267323D01*
Y0267250D01*
Y0267177D01*
Y0267105D01*
X0399481D01*
Y0267032D01*
Y0266959D01*
Y0266886D01*
X0399190D01*
Y0266959D01*
X0399117D01*
Y0267032D01*
Y0267105D01*
X0399045D01*
Y0267177D01*
X0398899D01*
Y0267105D01*
X0398754D01*
Y0267032D01*
X0398536D01*
Y0266959D01*
X0398318D01*
Y0266886D01*
X0397954D01*
Y0266814D01*
X0396936D01*
Y0266886D01*
X0396573D01*
Y0266959D01*
X0396355D01*
Y0267032D01*
X0396209D01*
Y0267105D01*
X0396064D01*
Y0267177D01*
X0395918D01*
Y0267250D01*
X0395846D01*
Y0267323D01*
X0395700D01*
Y0267395D01*
X0395628D01*
Y0267468D01*
X0395555D01*
Y0267541D01*
Y0267614D01*
X0395482D01*
Y0267686D01*
X0395410D01*
Y0267759D01*
Y0267832D01*
X0395337D01*
Y0267904D01*
Y0267977D01*
X0395264D01*
Y0268050D01*
Y0268122D01*
Y0268195D01*
X0395192D01*
Y0268268D01*
Y0268340D01*
Y0268413D01*
Y0268486D01*
Y0268559D01*
Y0268631D01*
Y0268704D01*
Y0268777D01*
Y0268849D01*
Y0268922D01*
Y0268995D01*
Y0269068D01*
Y0269140D01*
X0395264D01*
Y0269213D01*
Y0269286D01*
Y0269358D01*
X0395337D01*
Y0269431D01*
Y0269504D01*
X0395410D01*
Y0269577D01*
Y0269649D01*
X0395482D01*
Y0269722D01*
X0395555D01*
Y0269795D01*
X0395628D01*
Y0269867D01*
X0395700D01*
Y0269940D01*
X0395846D01*
Y0270013D01*
X0395918D01*
Y0270085D01*
X0396064D01*
Y0270158D01*
X0396209D01*
Y0270231D01*
X0396427D01*
Y0270304D01*
X0396718D01*
Y0270376D01*
X0397009D01*
Y0270449D01*
X0397300D01*
Y0270521D01*
X0397663D01*
Y0270594D01*
X0397954D01*
Y0270667D01*
X0398245D01*
Y0270740D01*
X0398390D01*
Y0270812D01*
X0398536D01*
Y0270885D01*
X0398608D01*
Y0270958D01*
X0398681D01*
Y0271030D01*
Y0271103D01*
Y0271176D01*
X0398754D01*
Y0271249D01*
Y0271321D01*
Y0271394D01*
X0398681D01*
Y0271467D01*
Y0271539D01*
Y0271612D01*
X0398608D01*
Y0271685D01*
X0398536D01*
Y0271758D01*
X0398463D01*
Y0271830D01*
X0398318D01*
Y0271903D01*
X0398099D01*
Y0271976D01*
X0397154D01*
Y0271903D01*
X0396936D01*
Y0271830D01*
X0396718D01*
Y0271758D01*
X0396573D01*
Y0271685D01*
X0396427D01*
Y0271612D01*
X0396282D01*
Y0271539D01*
X0396209D01*
Y0271467D01*
X0396137D01*
Y0271394D01*
X0396064D01*
Y0271321D01*
X0395918D01*
Y0271249D01*
X0395846D01*
Y0271176D01*
X0395773D01*
Y0271103D01*
X0395628D01*
Y0271176D01*
X0395555D01*
Y0271249D01*
X0395628D01*
Y0271321D01*
Y0271394D01*
Y0271467D01*
Y0271539D01*
X0395700D01*
Y0271612D01*
Y0271685D01*
Y0271758D01*
X0395773D01*
Y0271830D01*
Y0271903D01*
Y0271976D01*
Y0272048D01*
X0395846D01*
Y0272121D01*
Y0272194D01*
Y0272266D01*
X0395918D01*
Y0272339D01*
Y0272412D01*
Y0272484D01*
X0395991D01*
Y0272557D01*
Y0272630D01*
X0396282D01*
Y0272557D01*
Y0272484D01*
X0396355D01*
Y0272412D01*
X0396573D01*
Y0272484D01*
X0396718D01*
Y0272557D01*
X0396864D01*
Y0272630D01*
X0397082D01*
Y0272703D01*
X0398390D01*
Y0272630D01*
D02*
G37*
G36*
X0420782Y0283026D02*
Y0282953D01*
Y0282880D01*
Y0282808D01*
X0420855D01*
Y0282735D01*
Y0282662D01*
Y0282590D01*
Y0282517D01*
Y0282444D01*
X0420927D01*
Y0282372D01*
Y0282299D01*
Y0282226D01*
Y0282154D01*
Y0282081D01*
X0421000D01*
Y0282008D01*
Y0281935D01*
Y0281863D01*
Y0281790D01*
Y0281717D01*
X0421073D01*
Y0281645D01*
Y0281572D01*
Y0281499D01*
Y0281427D01*
Y0281354D01*
X0421145D01*
Y0281281D01*
Y0281208D01*
Y0281136D01*
Y0281063D01*
Y0280990D01*
X0421218D01*
Y0280918D01*
Y0280845D01*
Y0280772D01*
Y0280699D01*
Y0280627D01*
X0421291D01*
Y0280554D01*
Y0280481D01*
Y0280409D01*
Y0280336D01*
Y0280263D01*
X0421363D01*
Y0280191D01*
Y0280118D01*
Y0280045D01*
Y0279973D01*
Y0279900D01*
X0421436D01*
Y0279827D01*
Y0279754D01*
Y0279682D01*
Y0279609D01*
Y0279536D01*
X0421509D01*
Y0279464D01*
Y0279391D01*
Y0279318D01*
Y0279246D01*
Y0279173D01*
X0421582D01*
Y0279100D01*
Y0279027D01*
Y0278955D01*
Y0278882D01*
Y0278809D01*
X0421654D01*
Y0278737D01*
Y0278664D01*
Y0278591D01*
Y0278519D01*
Y0278446D01*
X0421727D01*
Y0278373D01*
Y0278300D01*
Y0278228D01*
Y0278155D01*
Y0278082D01*
X0421800D01*
Y0278010D01*
Y0277937D01*
Y0277864D01*
Y0277792D01*
Y0277719D01*
X0421872D01*
Y0277646D01*
Y0277573D01*
Y0277501D01*
Y0277428D01*
Y0277355D01*
X0421945D01*
Y0277283D01*
Y0277210D01*
Y0277137D01*
Y0277065D01*
Y0276992D01*
X0422018D01*
Y0276919D01*
Y0276847D01*
Y0276774D01*
Y0276701D01*
Y0276628D01*
X0422090D01*
Y0276556D01*
Y0276483D01*
Y0276410D01*
Y0276338D01*
Y0276265D01*
X0422163D01*
Y0276192D01*
Y0276119D01*
Y0276047D01*
Y0275974D01*
Y0275901D01*
X0422236D01*
Y0275829D01*
Y0275756D01*
Y0275683D01*
X0420491D01*
Y0275756D01*
Y0275829D01*
Y0275901D01*
Y0275974D01*
Y0276047D01*
X0420418D01*
Y0276119D01*
Y0276192D01*
Y0276265D01*
Y0276338D01*
Y0276410D01*
X0420346D01*
Y0276483D01*
Y0276556D01*
Y0276628D01*
Y0276701D01*
Y0276774D01*
X0420273D01*
Y0276847D01*
Y0276919D01*
Y0276992D01*
Y0277065D01*
Y0277137D01*
X0420200D01*
Y0277210D01*
Y0277283D01*
Y0277355D01*
Y0277428D01*
Y0277501D01*
X0420128D01*
Y0277573D01*
Y0277646D01*
Y0277719D01*
Y0277792D01*
Y0277864D01*
X0420055D01*
Y0277937D01*
Y0278010D01*
Y0278082D01*
Y0278155D01*
Y0278228D01*
X0419982D01*
Y0278300D01*
Y0278373D01*
Y0278446D01*
Y0278519D01*
Y0278591D01*
X0419909D01*
Y0278664D01*
Y0278737D01*
Y0278809D01*
Y0278882D01*
Y0278955D01*
X0419837D01*
Y0279027D01*
Y0279100D01*
Y0279173D01*
Y0279246D01*
Y0279318D01*
X0419764D01*
Y0279391D01*
Y0279464D01*
Y0279536D01*
Y0279609D01*
Y0279682D01*
X0419691D01*
Y0279754D01*
Y0279827D01*
Y0279900D01*
Y0279973D01*
Y0280045D01*
X0419619D01*
Y0280118D01*
Y0280191D01*
Y0280263D01*
Y0280336D01*
Y0280409D01*
X0419546D01*
Y0280481D01*
Y0280554D01*
Y0280627D01*
Y0280699D01*
Y0280772D01*
X0419473D01*
Y0280845D01*
Y0280918D01*
Y0280990D01*
Y0281063D01*
Y0281136D01*
X0419401D01*
Y0281208D01*
Y0281281D01*
Y0281354D01*
Y0281427D01*
Y0281499D01*
X0419328D01*
Y0281572D01*
Y0281645D01*
Y0281717D01*
Y0281790D01*
Y0281863D01*
X0419255D01*
Y0281935D01*
Y0282008D01*
Y0282081D01*
Y0282154D01*
Y0282226D01*
X0419182D01*
Y0282299D01*
Y0282372D01*
Y0282444D01*
Y0282517D01*
Y0282590D01*
X0419110D01*
Y0282662D01*
Y0282735D01*
Y0282808D01*
Y0282880D01*
Y0282953D01*
X0419037D01*
Y0283026D01*
Y0283099D01*
X0420782D01*
Y0283026D01*
D02*
G37*
%LPC*%
G36*
X0387849Y0271903D02*
X0386468D01*
Y0271830D01*
X0386249D01*
Y0271758D01*
X0386177D01*
Y0271685D01*
X0386104D01*
Y0271612D01*
X0386031D01*
Y0271539D01*
X0385959D01*
Y0271467D01*
Y0271394D01*
X0385886D01*
Y0271321D01*
Y0271249D01*
Y0271176D01*
Y0271103D01*
X0385813D01*
Y0271030D01*
Y0270958D01*
X0385886D01*
Y0270885D01*
Y0270812D01*
Y0270740D01*
Y0270667D01*
Y0270594D01*
X0385959D01*
Y0270522D01*
Y0270449D01*
X0386031D01*
Y0270376D01*
Y0270304D01*
X0386104D01*
Y0270231D01*
X0386177D01*
Y0270158D01*
X0386322D01*
Y0270085D01*
X0386468D01*
Y0270013D01*
X0386686D01*
Y0269940D01*
X0387922D01*
Y0270013D01*
Y0270085D01*
Y0270158D01*
Y0270231D01*
Y0270304D01*
Y0270376D01*
Y0270449D01*
Y0270522D01*
Y0270594D01*
Y0270667D01*
Y0270740D01*
Y0270812D01*
Y0270885D01*
Y0270958D01*
Y0271030D01*
Y0271103D01*
Y0271176D01*
Y0271249D01*
Y0271321D01*
Y0271394D01*
Y0271467D01*
Y0271539D01*
Y0271612D01*
Y0271685D01*
Y0271758D01*
X0387849D01*
Y0271830D01*
Y0271903D01*
D02*
G37*
G36*
X0392138Y0280263D02*
X0392065D01*
Y0280191D01*
X0391993D01*
Y0280118D01*
Y0280045D01*
Y0279973D01*
X0391920D01*
Y0279900D01*
Y0279827D01*
Y0279754D01*
X0391847D01*
Y0279682D01*
Y0279609D01*
X0391775D01*
Y0279536D01*
Y0279464D01*
Y0279391D01*
X0391702D01*
Y0279318D01*
Y0279246D01*
Y0279173D01*
X0391629D01*
Y0279100D01*
Y0279028D01*
Y0278955D01*
X0391557D01*
Y0278882D01*
Y0278809D01*
X0391484D01*
Y0278737D01*
Y0278664D01*
Y0278591D01*
X0391411D01*
Y0278519D01*
Y0278446D01*
Y0278373D01*
X0391338D01*
Y0278300D01*
Y0278228D01*
X0391266D01*
Y0278155D01*
Y0278082D01*
Y0278010D01*
X0391193D01*
Y0277937D01*
Y0277864D01*
X0393010D01*
Y0277937D01*
X0392938D01*
Y0278010D01*
Y0278082D01*
Y0278155D01*
X0392865D01*
Y0278228D01*
Y0278300D01*
Y0278373D01*
X0392792D01*
Y0278446D01*
Y0278519D01*
X0392720D01*
Y0278591D01*
Y0278664D01*
Y0278737D01*
X0392647D01*
Y0278809D01*
Y0278882D01*
X0392574D01*
Y0278955D01*
Y0279028D01*
Y0279100D01*
X0392502D01*
Y0279173D01*
Y0279246D01*
Y0279318D01*
X0392429D01*
Y0279391D01*
Y0279464D01*
X0392356D01*
Y0279536D01*
Y0279609D01*
Y0279682D01*
X0392284D01*
Y0279754D01*
Y0279827D01*
Y0279900D01*
X0392211D01*
Y0279973D01*
Y0280045D01*
X0392138D01*
Y0280118D01*
Y0280191D01*
Y0280263D01*
D02*
G37*
%LPD*%
G54D13*
X0126900Y0073549D02*
Y0067551D01*
X0129899D01*
X0130899Y0068550D01*
Y0069550D01*
X0129899Y0070550D01*
X0126900D01*
X0129899D01*
X0130899Y0071549D01*
Y0072549D01*
X0129899Y0073549D01*
X0126900D01*
X0133898Y0067551D02*
X0135897D01*
X0136897Y0068550D01*
Y0070550D01*
X0135897Y0071549D01*
X0133898D01*
X0132898Y0070550D01*
Y0068550D01*
X0133898Y0067551D01*
X0139896Y0072549D02*
Y0071549D01*
X0138896D01*
X0140895D01*
X0139896D01*
Y0068550D01*
X0140895Y0067551D01*
X0144894Y0072549D02*
Y0071549D01*
X0143895D01*
X0145894D01*
X0144894D01*
Y0068550D01*
X0145894Y0067551D01*
X0149893D02*
X0151892D01*
X0152892Y0068550D01*
Y0070550D01*
X0151892Y0071549D01*
X0149893D01*
X0148893Y0070550D01*
Y0068550D01*
X0149893Y0067551D01*
X0154891D02*
Y0071549D01*
X0155891D01*
X0156890Y0070550D01*
Y0067551D01*
Y0070550D01*
X0157890Y0071549D01*
X0158890Y0070550D01*
Y0067551D01*
X0169886Y0073549D02*
X0167887D01*
X0166887Y0072549D01*
Y0068550D01*
X0167887Y0067551D01*
X0169886D01*
X0170886Y0068550D01*
Y0072549D01*
X0169886Y0073549D01*
X0172885Y0071549D02*
X0174884Y0067551D01*
X0176884Y0071549D01*
X0181882Y0067551D02*
X0179883D01*
X0178883Y0068550D01*
Y0070550D01*
X0179883Y0071549D01*
X0181882D01*
X0182882Y0070550D01*
Y0069550D01*
X0178883D01*
X0184881Y0071549D02*
Y0067551D01*
Y0069550D01*
X0185881Y0070550D01*
X0186881Y0071549D01*
X0187880D01*
X0190879Y0067551D02*
X0192879D01*
X0191879D01*
Y0073549D01*
X0190879D01*
X0196877Y0071549D02*
X0198877D01*
X0199876Y0070550D01*
Y0067551D01*
X0196877D01*
X0195878Y0068550D01*
X0196877Y0069550D01*
X0199876D01*
X0201876Y0071549D02*
Y0068550D01*
X0202875Y0067551D01*
X0205874D01*
Y0066551D01*
X0204875Y0065551D01*
X0203875D01*
X0205874Y0067551D02*
Y0071549D01*
X0567400Y0087833D02*
Y0093831D01*
X0571399Y0087833D01*
Y0093831D01*
X0574398Y0087833D02*
X0576397D01*
X0577397Y0088833D01*
Y0090832D01*
X0576397Y0091832D01*
X0574398D01*
X0573398Y0090832D01*
Y0088833D01*
X0574398Y0087833D01*
X0580396Y0092832D02*
Y0091832D01*
X0579396D01*
X0581395D01*
X0580396D01*
Y0088833D01*
X0581395Y0087833D01*
X0590393Y0093831D02*
X0592392D01*
X0591392D01*
Y0087833D01*
X0590393D01*
X0592392D01*
X0595391D02*
Y0091832D01*
X0598390D01*
X0599390Y0090832D01*
Y0087833D01*
X0607387Y0093831D02*
Y0089833D01*
X0609386Y0087833D01*
X0611386Y0089833D01*
Y0093831D01*
X0616384Y0087833D02*
X0614385D01*
X0613385Y0088833D01*
Y0090832D01*
X0614385Y0091832D01*
X0616384D01*
X0617384Y0090832D01*
Y0089833D01*
X0613385D01*
X0619383Y0091832D02*
Y0087833D01*
Y0089833D01*
X0620383Y0090832D01*
X0621383Y0091832D01*
X0622382D01*
X0625381Y0087833D02*
X0628380D01*
X0629380Y0088833D01*
X0628380Y0089833D01*
X0626381D01*
X0625381Y0090832D01*
X0626381Y0091832D01*
X0629380D01*
X0631379Y0087833D02*
X0633379D01*
X0632379D01*
Y0091832D01*
X0631379D01*
X0637377Y0087833D02*
X0639377D01*
X0640376Y0088833D01*
Y0090832D01*
X0639377Y0091832D01*
X0637377D01*
X0636378Y0090832D01*
Y0088833D01*
X0637377Y0087833D01*
X0642376D02*
Y0091832D01*
X0645375D01*
X0646374Y0090832D01*
Y0087833D01*
X0652373Y0092832D02*
X0651373Y0093831D01*
X0649373D01*
X0648374Y0092832D01*
Y0088833D01*
X0649373Y0087833D01*
X0651373D01*
X0652373Y0088833D01*
X0655372Y0087833D02*
X0657371D01*
X0658371Y0088833D01*
Y0090832D01*
X0657371Y0091832D01*
X0655372D01*
X0654372Y0090832D01*
Y0088833D01*
X0655372Y0087833D01*
X0660370D02*
Y0091832D01*
X0663369D01*
X0664369Y0090832D01*
Y0087833D01*
X0667368Y0092832D02*
Y0091832D01*
X0666368D01*
X0668367D01*
X0667368D01*
Y0088833D01*
X0668367Y0087833D01*
X0671366Y0091832D02*
Y0087833D01*
Y0089833D01*
X0672366Y0090832D01*
X0673366Y0091832D01*
X0674365D01*
X0678364Y0087833D02*
X0680364D01*
X0681363Y0088833D01*
Y0090832D01*
X0680364Y0091832D01*
X0678364D01*
X0677364Y0090832D01*
Y0088833D01*
X0678364Y0087833D01*
X0683362D02*
X0685362D01*
X0684362D01*
Y0093831D01*
X0683362D01*
X0520799Y0092832D02*
X0519799Y0093831D01*
X0517800D01*
X0516800Y0092832D01*
Y0091832D01*
X0517800Y0090832D01*
X0519799D01*
X0520799Y0089833D01*
Y0088833D01*
X0519799Y0087833D01*
X0517800D01*
X0516800Y0088833D01*
X0522798Y0093831D02*
Y0089833D01*
X0524797Y0087833D01*
X0526797Y0089833D01*
Y0093831D01*
X0528796Y0087833D02*
Y0093831D01*
X0532795Y0087833D01*
Y0093831D01*
X0540792Y0087833D02*
Y0093831D01*
X0543791D01*
X0544791Y0092832D01*
Y0090832D01*
X0543791Y0089833D01*
X0540792D01*
X0542792D02*
X0544791Y0087833D01*
X0550789Y0093831D02*
X0546790D01*
Y0087833D01*
X0550789D01*
X0546790Y0090832D02*
X0548790D01*
X0552788Y0093831D02*
Y0089833D01*
X0554788Y0087833D01*
X0556787Y0089833D01*
Y0093831D01*
X0558786Y0091832D02*
X0559786D01*
Y0090832D01*
X0558786D01*
Y0091832D01*
Y0088833D02*
X0559786D01*
Y0087833D01*
X0558786D01*
Y0088833D01*
X0433000Y0087833D02*
Y0093831D01*
X0435999D01*
X0436999Y0092832D01*
Y0090832D01*
X0435999Y0089833D01*
X0433000D01*
X0434999D02*
X0436999Y0087833D01*
X0442997Y0093831D02*
X0438998D01*
Y0087833D01*
X0442997D01*
X0438998Y0090832D02*
X0440997D01*
X0444996Y0093831D02*
Y0089833D01*
X0446995Y0087833D01*
X0448995Y0089833D01*
Y0093831D01*
X0450994Y0091832D02*
X0451994D01*
Y0090832D01*
X0450994D01*
Y0091832D01*
Y0088833D02*
X0451994D01*
Y0087833D01*
X0450994D01*
Y0088833D01*
X0126900Y0046966D02*
Y0052965D01*
X0129899D01*
X0130899Y0051965D01*
Y0049966D01*
X0129899Y0048966D01*
X0126900D01*
X0132898Y0046966D02*
Y0052965D01*
X0134897Y0050965D01*
X0136897Y0052965D01*
Y0046966D01*
X0138896D02*
Y0052965D01*
X0141895D01*
X0142895Y0051965D01*
Y0049966D01*
X0141895Y0048966D01*
X0138896D01*
X0144894Y0047966D02*
X0145894Y0046966D01*
X0147893D01*
X0148893Y0047966D01*
Y0051965D01*
X0147893Y0052965D01*
X0145894D01*
X0144894Y0051965D01*
Y0050965D01*
X0145894Y0049966D01*
X0148893D01*
X0154891Y0052965D02*
X0150892D01*
Y0049966D01*
X0152892Y0050965D01*
X0153891D01*
X0154891Y0049966D01*
Y0047966D01*
X0153891Y0046966D01*
X0151892D01*
X0150892Y0047966D01*
X0156890Y0046966D02*
X0158890D01*
X0157890D01*
Y0052965D01*
X0156890Y0051965D01*
X0161889Y0052965D02*
X0165887D01*
Y0051965D01*
X0161889Y0047966D01*
Y0046966D01*
X0167887D02*
Y0047966D01*
X0168886D01*
Y0046966D01*
X0167887D01*
X0176884Y0051965D02*
X0175884Y0052965D01*
X0173885D01*
X0172885Y0051965D01*
Y0047966D01*
X0173885Y0046966D01*
X0175884D01*
X0176884Y0047966D01*
Y0049966D01*
X0174884D01*
X0178883Y0052965D02*
Y0046966D01*
X0181882D01*
X0182882Y0047966D01*
Y0048966D01*
X0181882Y0049966D01*
X0178883D01*
X0181882D01*
X0182882Y0050965D01*
Y0051965D01*
X0181882Y0052965D01*
X0178883D01*
X0187880D02*
X0185881D01*
X0184881Y0051965D01*
Y0047966D01*
X0185881Y0046966D01*
X0187880D01*
X0188880Y0047966D01*
Y0051965D01*
X0187880Y0052965D01*
X0385149Y0046966D02*
X0381150D01*
X0385149Y0050965D01*
Y0051965D01*
X0384149Y0052965D01*
X0382150D01*
X0381150Y0051965D01*
X0387148Y0046966D02*
X0391147Y0050965D01*
X0397145Y0046966D02*
X0393146D01*
X0397145Y0050965D01*
Y0051965D01*
X0396145Y0052965D01*
X0394146D01*
X0393146Y0051965D01*
X0402143Y0046966D02*
Y0052965D01*
X0399144Y0049966D01*
X0403143D01*
X0405142Y0046966D02*
X0409141Y0050965D01*
X0415139Y0046966D02*
X0411140D01*
X0415139Y0050965D01*
Y0051965D01*
X0414139Y0052965D01*
X0412140D01*
X0411140Y0051965D01*
X0417138D02*
X0418138Y0052965D01*
X0420137D01*
X0421137Y0051965D01*
Y0047966D01*
X0420137Y0046966D01*
X0418138D01*
X0417138Y0047966D01*
Y0051965D01*
X0423136Y0046966D02*
X0425136D01*
X0424136D01*
Y0052965D01*
X0423136Y0051965D01*
X0431134Y0046966D02*
Y0052965D01*
X0428135Y0049966D01*
X0432133D01*
X0298199Y0051965D02*
X0297199Y0052965D01*
X0295200D01*
X0294200Y0051965D01*
Y0047966D01*
X0295200Y0046966D01*
X0297199D01*
X0298199Y0047966D01*
Y0049966D01*
X0296199D01*
X0304197Y0052965D02*
X0300198D01*
Y0046966D01*
X0304197D01*
X0300198Y0049966D02*
X0302197D01*
X0306196Y0046966D02*
Y0052965D01*
X0310195Y0046966D01*
Y0052965D01*
X0316193D02*
X0312194D01*
Y0046966D01*
X0316193D01*
X0312194Y0049966D02*
X0314194D01*
X0318192Y0046966D02*
Y0052965D01*
X0321191D01*
X0322191Y0051965D01*
Y0049966D01*
X0321191Y0048966D01*
X0318192D01*
X0320192D02*
X0322191Y0046966D01*
X0324190D02*
Y0050965D01*
X0326190Y0052965D01*
X0328189Y0050965D01*
Y0046966D01*
Y0049966D01*
X0324190D01*
X0330188Y0052965D02*
X0334187D01*
X0332188D01*
Y0046966D01*
X0340185Y0052965D02*
X0336186D01*
Y0046966D01*
X0340185D01*
X0336186Y0049966D02*
X0338186D01*
X0342184Y0052965D02*
Y0046966D01*
X0345183D01*
X0346183Y0047966D01*
Y0051965D01*
X0345183Y0052965D01*
X0342184D01*
X0372175Y0050965D02*
X0373175D01*
Y0049966D01*
X0372175D01*
Y0050965D01*
Y0047966D02*
X0373175D01*
Y0046966D01*
X0372175D01*
Y0047966D01*
X0046350Y0087833D02*
Y0091832D01*
X0048349Y0093831D01*
X0050349Y0091832D01*
Y0087833D01*
Y0090832D01*
X0046350D01*
X0052348Y0093831D02*
Y0087833D01*
X0056347D01*
X0058346Y0093831D02*
Y0087833D01*
X0062345D01*
X0070342D02*
Y0091832D01*
X0072342Y0093831D01*
X0074341Y0091832D01*
Y0087833D01*
Y0090832D01*
X0070342D01*
X0076340Y0087833D02*
Y0093831D01*
X0079339D01*
X0080339Y0092832D01*
Y0090832D01*
X0079339Y0089833D01*
X0076340D01*
X0078340D02*
X0080339Y0087833D01*
X0082338Y0093831D02*
X0086337D01*
X0084338D01*
Y0087833D01*
X0088336Y0093831D02*
Y0087833D01*
X0090336Y0089833D01*
X0092335Y0087833D01*
Y0093831D01*
X0097334D02*
X0095334D01*
X0094335Y0092832D01*
Y0088833D01*
X0095334Y0087833D01*
X0097334D01*
X0098333Y0088833D01*
Y0092832D01*
X0097334Y0093831D01*
X0100332Y0087833D02*
Y0093831D01*
X0103332D01*
X0104331Y0092832D01*
Y0090832D01*
X0103332Y0089833D01*
X0100332D01*
X0102332D02*
X0104331Y0087833D01*
X0106331Y0093831D02*
Y0087833D01*
Y0089833D01*
X0110329Y0093831D01*
X0107330Y0090832D01*
X0110329Y0087833D01*
X0118327Y0093831D02*
Y0089833D01*
X0120326Y0087833D01*
X0122325Y0089833D01*
Y0093831D01*
X0124325D02*
X0126324D01*
X0125324D01*
Y0087833D01*
X0124325D01*
X0126324D01*
X0133322Y0093831D02*
X0129323D01*
Y0087833D01*
X0133322D01*
X0129323Y0090832D02*
X0131323D01*
X0135321Y0093831D02*
Y0087833D01*
X0137321Y0089833D01*
X0139320Y0087833D01*
Y0093831D01*
X0145318D02*
X0141319D01*
Y0087833D01*
X0145318D01*
X0141319Y0090832D02*
X0143319D01*
X0147317Y0093831D02*
Y0087833D01*
X0150316D01*
X0151316Y0088833D01*
Y0092832D01*
X0150316Y0093831D01*
X0147317D01*
X0163312D02*
X0159313D01*
Y0090832D01*
X0161313D01*
X0159313D01*
Y0087833D01*
X0165312D02*
Y0093831D01*
X0168310D01*
X0169310Y0092832D01*
Y0090832D01*
X0168310Y0089833D01*
X0165312D01*
X0167311D02*
X0169310Y0087833D01*
X0174309Y0093831D02*
X0172309D01*
X0171310Y0092832D01*
Y0088833D01*
X0172309Y0087833D01*
X0174309D01*
X0175308Y0088833D01*
Y0092832D01*
X0174309Y0093831D01*
X0177308Y0087833D02*
Y0093831D01*
X0179307Y0091832D01*
X0181306Y0093831D01*
Y0087833D01*
X0189304Y0093831D02*
X0193303D01*
X0191303D01*
Y0087833D01*
X0198301Y0093831D02*
X0196301D01*
X0195302Y0092832D01*
Y0088833D01*
X0196301Y0087833D01*
X0198301D01*
X0199301Y0088833D01*
Y0092832D01*
X0198301Y0093831D01*
X0201300Y0087833D02*
Y0093831D01*
X0204299D01*
X0205299Y0092832D01*
Y0090832D01*
X0204299Y0089833D01*
X0201300D01*
X0217295Y0092832D02*
X0216295Y0093831D01*
X0214296D01*
X0213296Y0092832D01*
Y0091832D01*
X0214296Y0090832D01*
X0216295D01*
X0217295Y0089833D01*
Y0088833D01*
X0216295Y0087833D01*
X0214296D01*
X0213296Y0088833D01*
X0219294Y0093831D02*
X0221293D01*
X0220294D01*
Y0087833D01*
X0219294D01*
X0221293D01*
X0224292Y0093831D02*
Y0087833D01*
X0227291D01*
X0228291Y0088833D01*
Y0092832D01*
X0227291Y0093831D01*
X0224292D01*
X0234289D02*
X0230291D01*
Y0087833D01*
X0234289D01*
X0230291Y0090832D02*
X0232290D01*
X0466149Y0093831D02*
X0462150D01*
Y0087833D01*
X0466149D01*
X0462150Y0090832D02*
X0464149D01*
X0468148Y0087833D02*
X0470147D01*
X0469148D01*
Y0093831D01*
X0468148Y0092832D01*
X0348550Y0087833D02*
Y0093831D01*
X0351549D01*
X0352549Y0092832D01*
Y0090832D01*
X0351549Y0089833D01*
X0348550D01*
X0354548Y0087833D02*
Y0093831D01*
X0356547Y0091832D01*
X0358547Y0093831D01*
Y0087833D01*
X0360546D02*
Y0093831D01*
X0363545D01*
X0364545Y0092832D01*
Y0090832D01*
X0363545Y0089833D01*
X0360546D01*
X0366544Y0088833D02*
X0367544Y0087833D01*
X0369543D01*
X0370543Y0088833D01*
Y0092832D01*
X0369543Y0093831D01*
X0367544D01*
X0366544Y0092832D01*
Y0091832D01*
X0367544Y0090832D01*
X0370543D01*
X0376541Y0093831D02*
X0372542D01*
Y0090832D01*
X0374542Y0091832D01*
X0375541D01*
X0376541Y0090832D01*
Y0088833D01*
X0375541Y0087833D01*
X0373542D01*
X0372542Y0088833D01*
X0378540Y0087833D02*
X0380540D01*
X0379540D01*
Y0093831D01*
X0378540Y0092832D01*
X0383539Y0093831D02*
X0387537D01*
Y0092832D01*
X0383539Y0088833D01*
Y0087833D01*
X0294000Y0093831D02*
Y0087833D01*
X0296999D01*
X0297999Y0088833D01*
Y0089833D01*
X0296999Y0090832D01*
X0294000D01*
X0296999D01*
X0297999Y0091832D01*
Y0092832D01*
X0296999Y0093831D01*
X0294000D01*
X0302997D02*
X0300998D01*
X0299998Y0092832D01*
Y0088833D01*
X0300998Y0087833D01*
X0302997D01*
X0303997Y0088833D01*
Y0092832D01*
X0302997Y0093831D01*
X0305996Y0087833D02*
Y0091832D01*
X0307996Y0093831D01*
X0309995Y0091832D01*
Y0087833D01*
Y0090832D01*
X0305996D01*
X0311994Y0087833D02*
Y0093831D01*
X0314993D01*
X0315993Y0092832D01*
Y0090832D01*
X0314993Y0089833D01*
X0311994D01*
X0313994D02*
X0315993Y0087833D01*
X0317992Y0093831D02*
Y0087833D01*
X0320991D01*
X0321991Y0088833D01*
Y0092832D01*
X0320991Y0093831D01*
X0317992D01*
X0330988Y0087833D02*
Y0093831D01*
X0332987D02*
Y0087833D01*
X0329988Y0091832D02*
X0332987D01*
X0333987D01*
X0329988Y0089833D02*
X0333987D01*
X0335986Y0091832D02*
X0336986D01*
Y0090832D01*
X0335986D01*
Y0091832D01*
Y0088833D02*
X0336986D01*
Y0087833D01*
X0335986D01*
Y0088833D01*
X0046350Y0073549D02*
Y0067551D01*
X0050349D01*
X0052348D02*
Y0071549D01*
X0054347Y0073549D01*
X0056347Y0071549D01*
Y0067551D01*
Y0070550D01*
X0052348D01*
X0058346Y0073549D02*
Y0072549D01*
X0060346Y0070550D01*
X0062345Y0072549D01*
Y0073549D01*
X0060346Y0070550D02*
Y0067551D01*
X0068343Y0073549D02*
X0064344D01*
Y0067551D01*
X0068343D01*
X0064344Y0070550D02*
X0066343D01*
X0070342Y0067551D02*
Y0073549D01*
X0073341D01*
X0074341Y0072549D01*
Y0070550D01*
X0073341Y0069550D01*
X0070342D01*
X0072342D02*
X0074341Y0067551D01*
X0082338D02*
Y0073549D01*
X0086337Y0067551D01*
Y0073549D01*
X0088336Y0067551D02*
Y0071549D01*
X0090336Y0073549D01*
X0092335Y0071549D01*
Y0067551D01*
Y0070550D01*
X0088336D01*
X0094335Y0067551D02*
Y0073549D01*
X0096334Y0071549D01*
X0098333Y0073549D01*
Y0067551D01*
X0104331Y0073549D02*
X0100332D01*
Y0067551D01*
X0104331D01*
X0100332Y0070550D02*
X0102332D01*
X0112329Y0069550D02*
X0116327D01*
X0112329Y0071549D02*
X0116327D01*
X0046350Y0046966D02*
Y0052965D01*
X0049349D01*
X0050349Y0051965D01*
Y0049966D01*
X0049349Y0048966D01*
X0046350D01*
X0052348Y0052965D02*
Y0046966D01*
X0056347D01*
X0061345Y0052965D02*
X0059346D01*
X0058346Y0051965D01*
Y0047966D01*
X0059346Y0046966D01*
X0061345D01*
X0062345Y0047966D01*
Y0051965D01*
X0061345Y0052965D01*
X0064344D02*
X0068343D01*
X0066343D01*
Y0046966D01*
X0076340D02*
Y0052965D01*
X0080339Y0046966D01*
Y0052965D01*
X0082338Y0046966D02*
Y0050965D01*
X0084338Y0052965D01*
X0086337Y0050965D01*
Y0046966D01*
Y0049966D01*
X0082338D01*
X0088336Y0046966D02*
Y0052965D01*
X0090336Y0050965D01*
X0092335Y0052965D01*
Y0046966D01*
X0098333Y0052965D02*
X0094335D01*
Y0046966D01*
X0098333D01*
X0094335Y0049966D02*
X0096334D01*
X0106331Y0048966D02*
X0110329D01*
X0106331Y0050965D02*
X0110329D01*
X0454050Y0047966D02*
X0455050Y0046966D01*
X0457049D01*
X0458049Y0047966D01*
Y0051965D01*
X0457049Y0052965D01*
X0455050D01*
X0454050Y0051965D01*
Y0050965D01*
X0455050Y0049966D01*
X0458049D01*
X0460048Y0050965D02*
X0461048D01*
Y0049966D01*
X0460048D01*
Y0050965D01*
Y0047966D02*
X0461048D01*
Y0046966D01*
X0460048D01*
Y0047966D01*
X0465046Y0051965D02*
X0466046Y0052965D01*
X0468046D01*
X0469045Y0051965D01*
Y0050965D01*
X0468046Y0049966D01*
X0467046D01*
X0468046D01*
X0469045Y0048966D01*
Y0047966D01*
X0468046Y0046966D01*
X0466046D01*
X0465046Y0047966D01*
X0471044Y0052965D02*
X0475043D01*
Y0051965D01*
X0471044Y0047966D01*
Y0046966D01*
X0477043Y0050965D02*
X0478042D01*
Y0049966D01*
X0477043D01*
Y0050965D01*
Y0047966D02*
X0478042D01*
Y0046966D01*
X0477043D01*
Y0047966D01*
X0482041Y0051965D02*
X0483041Y0052965D01*
X0485040D01*
X0486040Y0051965D01*
Y0050965D01*
X0485040Y0049966D01*
X0484040D01*
X0485040D01*
X0486040Y0048966D01*
Y0047966D01*
X0485040Y0046966D01*
X0483041D01*
X0482041Y0047966D01*
X0491038Y0046966D02*
Y0052965D01*
X0488039Y0049966D01*
X0492038D01*
X0500035Y0046966D02*
Y0050965D01*
X0502035Y0052965D01*
X0504034Y0050965D01*
Y0046966D01*
Y0049966D01*
X0500035D01*
X0506033Y0046966D02*
Y0052965D01*
X0508033Y0050965D01*
X0510032Y0052965D01*
Y0046966D01*
X0580500Y0052965D02*
X0584499D01*
X0582499D01*
Y0046966D01*
X0590497Y0052965D02*
X0586498D01*
Y0046966D01*
X0590497D01*
X0586498Y0049966D02*
X0588497D01*
X0592496Y0052965D02*
X0596495Y0046966D01*
Y0052965D02*
X0592496Y0046966D01*
X0598494D02*
Y0050965D01*
X0600493Y0052965D01*
X0602493Y0050965D01*
Y0046966D01*
Y0049966D01*
X0598494D01*
X0608491Y0051965D02*
X0607491Y0052965D01*
X0605492D01*
X0604492Y0051965D01*
Y0050965D01*
X0605492Y0049966D01*
X0607491D01*
X0608491Y0048966D01*
Y0047966D01*
X0607491Y0046966D01*
X0605492D01*
X0604492Y0047966D01*
X0616488Y0052965D02*
X0618488D01*
X0617488D01*
Y0046966D01*
X0616488D01*
X0618488D01*
X0621487D02*
Y0052965D01*
X0625486Y0046966D01*
Y0052965D01*
X0631484Y0051965D02*
X0630484Y0052965D01*
X0628484D01*
X0627485Y0051965D01*
Y0050965D01*
X0628484Y0049966D01*
X0630484D01*
X0631484Y0048966D01*
Y0047966D01*
X0630484Y0046966D01*
X0628484D01*
X0627485Y0047966D01*
X0633483Y0052965D02*
X0637482D01*
X0635482D01*
Y0046966D01*
X0639481D02*
Y0052965D01*
X0642480D01*
X0643480Y0051965D01*
Y0049966D01*
X0642480Y0048966D01*
X0639481D01*
X0641480D02*
X0643480Y0046966D01*
X0645479Y0052965D02*
Y0047966D01*
X0646479Y0046966D01*
X0648478D01*
X0649478Y0047966D01*
Y0052965D01*
X0651477Y0046966D02*
Y0052965D01*
X0653476Y0050965D01*
X0655476Y0052965D01*
Y0046966D01*
X0661474Y0052965D02*
X0657475D01*
Y0046966D01*
X0661474D01*
X0657475Y0049966D02*
X0659474D01*
X0663473Y0046966D02*
Y0052965D01*
X0667472Y0046966D01*
Y0052965D01*
X0669471D02*
X0673470D01*
X0671471D01*
Y0046966D01*
X0679468Y0051965D02*
X0678468Y0052965D01*
X0676469D01*
X0675469Y0051965D01*
Y0050965D01*
X0676469Y0049966D01*
X0678468D01*
X0679468Y0048966D01*
Y0047966D01*
X0678468Y0046966D01*
X0676469D01*
X0675469Y0047966D01*
G54D14*
X0412113Y0340500D02*
Y0334502D01*
X0409114D01*
X0408115Y0335502D01*
Y0339501D01*
X0409114Y0340500D01*
X0412113D01*
X0402117D02*
X0406115D01*
Y0337501D01*
X0404116Y0338501D01*
X0403116D01*
X0402117Y0337501D01*
Y0335502D01*
X0403116Y0334502D01*
X0405116D01*
X0406115Y0335502D01*
X0321956Y0353400D02*
Y0359398D01*
X0318957D01*
X0317957Y0358398D01*
Y0356399D01*
X0318957Y0355399D01*
X0321956D01*
X0319957D02*
X0317957Y0353400D01*
X0315958Y0358398D02*
X0314958Y0359398D01*
X0312959D01*
X0311959Y0358398D01*
Y0357399D01*
X0312959Y0356399D01*
X0313959D01*
X0312959D01*
X0311959Y0355399D01*
Y0354400D01*
X0312959Y0353400D01*
X0314958D01*
X0315958Y0354400D01*
X0417232Y0310880D02*
X0411233D01*
Y0307881D01*
X0412233Y0306882D01*
X0414232D01*
X0415232Y0307881D01*
Y0310880D01*
Y0308881D02*
X0417232Y0306882D01*
Y0304882D02*
Y0302883D01*
Y0303883D01*
X0411233D01*
X0412233Y0304882D01*
X0417232Y0296885D02*
X0411233D01*
X0414232Y0299884D01*
Y0295885D01*
X0373338Y0289814D02*
X0369339D01*
X0433438Y0287865D02*
Y0293863D01*
X0430439D01*
X0429439Y0292863D01*
Y0290864D01*
X0430439Y0289864D01*
X0433438D01*
X0427440Y0287865D02*
Y0293863D01*
X0425440Y0291863D01*
X0423441Y0293863D01*
Y0287865D01*
X0421442D02*
Y0293863D01*
X0418443D01*
X0417443Y0292863D01*
Y0290864D01*
X0418443Y0289864D01*
X0421442D01*
X0415444Y0288864D02*
X0414444Y0287865D01*
X0412445D01*
X0411445Y0288864D01*
Y0292863D01*
X0412445Y0293863D01*
X0414444D01*
X0415444Y0292863D01*
Y0291863D01*
X0414444Y0290864D01*
X0411445D01*
X0405447Y0293863D02*
X0409446D01*
Y0290864D01*
X0407446Y0291863D01*
X0406447D01*
X0405447Y0290864D01*
Y0288864D01*
X0406447Y0287865D01*
X0408446D01*
X0409446Y0288864D01*
X0403447Y0287865D02*
X0401448D01*
X0402448D01*
Y0293863D01*
X0403447Y0292863D01*
X0398449Y0293863D02*
X0394450D01*
Y0292863D01*
X0398449Y0288864D01*
Y0287865D01*
X0384099Y0293256D02*
X0388098D01*
Y0287258D01*
X0384099D01*
X0388098Y0290257D02*
X0386098D01*
X0382100Y0287258D02*
X0380100D01*
X0381100D01*
Y0293256D01*
X0382100Y0292257D01*
X0270440Y0284336D02*
X0266504D01*
X0270440Y0274336D02*
X0266504D01*
X0268472Y0276304D02*
Y0272368D01*
X0279940Y0274304D02*
X0278956Y0275288D01*
X0276988D01*
X0276004Y0276272D01*
X0279940Y0283804D02*
X0278956Y0284788D01*
X0276988D01*
X0276004Y0285772D01*
X0497200Y0080717D02*
Y0101050D01*
X0413200Y0080717D02*
Y0101050D01*
X0040000Y0080717D02*
X0700200D01*
X0040000Y0060383D02*
X0700000D01*
X0040000Y0040050D02*
X0440500D01*
X0040050Y0101050D02*
X0700200D01*
X0040050Y0040050D02*
Y0101050D01*
Y0040050D02*
X0197600D01*
X0040000D02*
Y0101050D01*
X0286500Y0040050D02*
Y0101050D01*
X0700200Y0040050D02*
Y0101050D01*
X0440500Y0040050D02*
X0700200D01*
X0559400Y0039400D02*
Y0059683D01*
G54D45*
X0394477Y0305959D02*
Y0309959D01*
X0397877D01*
X0394477Y0301959D02*
Y0305959D01*
Y0301959D02*
X0397877D01*
X0405877Y0309959D02*
X0409277D01*
Y0305959D02*
Y0309959D01*
X0405877Y0301959D02*
X0409277D01*
Y0305959D01*
X0230775Y0356156D02*
Y0359699D01*
X0240302D01*
Y0356156D02*
Y0359699D01*
Y0340802D02*
Y0344345D01*
X0230775Y0340802D02*
X0240302D01*
X0230775D02*
Y0344345D01*
X0313521Y0375304D02*
Y0377902D01*
X0318967D01*
Y0375304D02*
Y0377902D01*
Y0365906D02*
Y0368504D01*
X0313521Y0365906D02*
X0318967D01*
X0313521D02*
Y0368504D01*
X0312084Y0375304D02*
Y0377902D01*
X0306638D02*
X0312084D01*
X0306638Y0375304D02*
Y0377902D01*
Y0365906D02*
Y0368504D01*
Y0365906D02*
X0312084D01*
Y0368504D01*
X0316694Y0379020D02*
X0319293D01*
Y0384467D01*
X0316694D02*
X0319293D01*
X0307296D02*
X0309894D01*
X0307296Y0379020D02*
Y0384467D01*
Y0379020D02*
X0309894D01*
X0335775Y0310880D02*
Y0314424D01*
X0326247D02*
X0335775D01*
X0326247Y0310880D02*
Y0314424D01*
Y0295526D02*
Y0299069D01*
Y0295526D02*
X0335775D01*
Y0299069D01*
X0283674Y0362820D02*
X0286272D01*
X0283674Y0357373D02*
Y0362820D01*
Y0357373D02*
X0286272D01*
X0293072D02*
X0295671D01*
Y0362820D01*
X0293072D02*
X0295671D01*
X0249381Y0315865D02*
X0252781D01*
Y0311865D02*
Y0315865D01*
Y0307865D02*
Y0311865D01*
X0249381Y0307865D02*
X0252781D01*
X0237981D02*
X0241381D01*
X0237981D02*
Y0311865D01*
Y0315865D01*
X0241381D01*
X0406861Y0318691D02*
X0410261D01*
Y0322691D01*
Y0326691D01*
X0406861D02*
X0410261D01*
X0395461D02*
X0398861D01*
X0395461Y0322691D02*
Y0326691D01*
Y0318691D02*
Y0322691D01*
Y0318691D02*
X0398861D01*
X0323964Y0295526D02*
Y0299069D01*
X0314436Y0295526D02*
X0323964D01*
X0314436D02*
Y0299069D01*
Y0310880D02*
Y0314424D01*
X0323964D01*
Y0310880D02*
Y0314424D01*
X0321995Y0348282D02*
Y0351825D01*
X0312468D02*
X0321995D01*
X0312468Y0348282D02*
Y0351825D01*
X0321995Y0332928D02*
Y0336471D01*
X0312468Y0332928D02*
Y0336471D01*
Y0332928D02*
X0321995D01*
X0249225Y0362288D02*
X0251824D01*
X0249225D02*
Y0367734D01*
X0251824D01*
X0258624D02*
X0261222D01*
Y0362288D02*
Y0367734D01*
X0258624Y0362288D02*
X0261222D01*
X0332008Y0332745D02*
Y0351270D01*
X0324108Y0332745D02*
Y0351270D01*
X0293343Y0365737D02*
X0305687D01*
X0293343D02*
Y0368907D01*
X0305687Y0365737D02*
Y0368907D01*
Y0380806D02*
Y0383977D01*
X0293343Y0380806D02*
Y0383977D01*
X0305687D01*
X0256440Y0269384D02*
X0272940D01*
X0256440D02*
Y0279384D01*
X0289440Y0269384D02*
Y0279384D01*
X0272940Y0269384D02*
X0289440D01*
X0272940Y0289384D02*
X0289440D01*
Y0279384D02*
Y0289384D01*
X0256440Y0279384D02*
Y0289384D01*
X0272940D01*
X0311621Y0330626D02*
Y0331526D01*
X0338321D01*
X0311621Y0315826D02*
X0338321D01*
X0311621D02*
Y0316725D01*
X0320855Y0365872D02*
Y0383372D01*
X0329356Y0365872D02*
Y0383372D01*
G54D46*
X0247743Y0336865D02*
Y0351825D01*
X0260735Y0336865D02*
Y0351825D01*
X0265460Y0336865D02*
Y0351825D01*
X0278452Y0336865D02*
Y0351825D01*
X0273334Y0364030D02*
X0280420D01*
X0273334D02*
Y0383715D01*
X0280420Y0364030D02*
Y0380959D01*
X0277665Y0383715D02*
X0280420Y0380959D01*
X0273334Y0383715D02*
X0277665D01*
G54D49*
X0278579Y0291844D02*
X0299979D01*
X0278579D02*
X0289279Y0310377D01*
X0299979Y0291844D01*
G54D50*
X0271562Y0379383D02*
Y0375166D01*
X0271281Y0374322D01*
X0270719Y0373760D01*
X0269875Y0373479D01*
X0269313D01*
X0268470Y0373760D01*
X0267907Y0374322D01*
X0267626Y0375166D01*
Y0379383D01*
X0265995Y0378258D02*
X0265433Y0378539D01*
X0264590Y0379383D01*
Y0373479D01*
X0352666Y0374266D02*
X0358570D01*
X0352666D02*
Y0371736D01*
X0352947Y0370892D01*
X0353228Y0370611D01*
X0353790Y0370330D01*
X0354353D01*
X0354915Y0370611D01*
X0355196Y0370892D01*
X0355477Y0371736D01*
Y0374266D01*
Y0372298D02*
X0358570Y0370330D01*
X0353790Y0369009D02*
X0353509Y0368446D01*
X0352666Y0367603D01*
X0358570D01*
X0353790Y0364679D02*
X0353509Y0364117D01*
X0352666Y0363273D01*
X0358570D01*
X0344792Y0375054D02*
X0350696D01*
X0344792D02*
Y0372523D01*
X0345073Y0371680D01*
X0345354Y0371398D01*
X0345916Y0371117D01*
X0346479D01*
X0347041Y0371398D01*
X0347322Y0371680D01*
X0347603Y0372523D01*
Y0375054D01*
Y0373085D02*
X0350696Y0371117D01*
X0345916Y0369796D02*
X0345635Y0369234D01*
X0344792Y0368390D01*
X0350696D01*
X0346198Y0365185D02*
X0345916D01*
X0345354Y0364904D01*
X0345073Y0364623D01*
X0344792Y0364060D01*
Y0362936D01*
X0345073Y0362373D01*
X0345354Y0362092D01*
X0345916Y0361811D01*
X0346479D01*
X0347041Y0362092D01*
X0347884Y0362655D01*
X0350696Y0365466D01*
Y0361530D01*
X0356995Y0384107D02*
Y0378203D01*
Y0384107D02*
X0354465D01*
X0353621Y0383826D01*
X0353340Y0383545D01*
X0353059Y0382983D01*
Y0382420D01*
X0353340Y0381858D01*
X0353621Y0381577D01*
X0354465Y0381296D01*
X0356995D01*
X0355027D02*
X0353059Y0378203D01*
X0348083Y0382139D02*
X0348364Y0381296D01*
X0348926Y0380733D01*
X0349770Y0380452D01*
X0350051D01*
X0350894Y0380733D01*
X0351456Y0381296D01*
X0351738Y0382139D01*
Y0382420D01*
X0351456Y0383264D01*
X0350894Y0383826D01*
X0350051Y0384107D01*
X0349770D01*
X0348926Y0383826D01*
X0348364Y0383264D01*
X0348083Y0382139D01*
Y0380733D01*
X0348364Y0379328D01*
X0348926Y0378484D01*
X0349770Y0378203D01*
X0350332D01*
X0351175Y0378484D01*
X0351456Y0379047D01*
X0351483Y0310485D02*
Y0304581D01*
Y0310485D02*
X0348953D01*
X0348110Y0310204D01*
X0347829Y0309923D01*
X0347547Y0309361D01*
Y0308798D01*
X0347829Y0308236D01*
X0348110Y0307955D01*
X0348953Y0307674D01*
X0351483D01*
X0349515D02*
X0347547Y0304581D01*
X0346226Y0309361D02*
X0345664Y0309642D01*
X0344820Y0310485D01*
Y0304581D01*
X0340209Y0310485D02*
X0341053Y0310204D01*
X0341615Y0309361D01*
X0341896Y0307955D01*
Y0307112D01*
X0341615Y0305706D01*
X0341053Y0304862D01*
X0340209Y0304581D01*
X0339647D01*
X0338803Y0304862D01*
X0338241Y0305706D01*
X0337960Y0307112D01*
Y0307955D01*
X0338241Y0309361D01*
X0338803Y0310204D01*
X0339647Y0310485D01*
X0340209D01*
X0239672Y0367966D02*
Y0362061D01*
Y0367966D02*
X0237142D01*
X0236299Y0367685D01*
X0236017Y0367403D01*
X0235736Y0366841D01*
Y0366279D01*
X0236017Y0365716D01*
X0236299Y0365435D01*
X0237142Y0365154D01*
X0239672D01*
X0237704D02*
X0235736Y0362061D01*
X0230479Y0367966D02*
X0233290Y0362061D01*
X0234415Y0367966D02*
X0230479D01*
X0299121Y0355761D02*
Y0349857D01*
Y0355761D02*
X0296591D01*
X0295747Y0355480D01*
X0295466Y0355199D01*
X0295185Y0354636D01*
Y0354074D01*
X0295466Y0353512D01*
X0295747Y0353231D01*
X0296591Y0352949D01*
X0299121D01*
X0297153D02*
X0295185Y0349857D01*
X0291052Y0355761D02*
X0293864Y0351825D01*
X0289646D01*
X0291052Y0355761D02*
Y0349857D01*
X0249909Y0305761D02*
Y0299857D01*
Y0305761D02*
X0247378D01*
X0246535Y0305480D01*
X0246254Y0305199D01*
X0245972Y0304636D01*
Y0304074D01*
X0246254Y0303512D01*
X0246535Y0303231D01*
X0247378Y0302949D01*
X0249909D01*
X0247941D02*
X0245972Y0299857D01*
X0244370Y0304355D02*
Y0304636D01*
X0244089Y0305199D01*
X0243808Y0305480D01*
X0243245Y0305761D01*
X0242121D01*
X0241558Y0305480D01*
X0241277Y0305199D01*
X0240996Y0304636D01*
Y0304074D01*
X0241277Y0303512D01*
X0241840Y0302668D01*
X0244651Y0299857D01*
X0240715D01*
X0425499Y0364422D02*
Y0358518D01*
Y0364422D02*
X0423531D01*
X0422688Y0364141D01*
X0422125Y0363579D01*
X0421844Y0363017D01*
X0421563Y0362173D01*
Y0360767D01*
X0421844Y0359924D01*
X0422125Y0359362D01*
X0422688Y0358799D01*
X0423531Y0358518D01*
X0425499D01*
X0416868Y0363579D02*
X0417149Y0364141D01*
X0417992Y0364422D01*
X0418555D01*
X0419398Y0364141D01*
X0419960Y0363298D01*
X0420242Y0361892D01*
Y0360486D01*
X0419960Y0359362D01*
X0419398Y0358799D01*
X0418555Y0358518D01*
X0418273D01*
X0417430Y0358799D01*
X0416868Y0359362D01*
X0416587Y0360205D01*
Y0360486D01*
X0416868Y0361330D01*
X0417430Y0361892D01*
X0418273Y0362173D01*
X0418555D01*
X0419398Y0361892D01*
X0419960Y0361330D01*
X0420242Y0360486D01*
X0342822Y0384501D02*
Y0378597D01*
Y0384501D02*
X0340854D01*
X0340010Y0384220D01*
X0339448Y0383658D01*
X0339167Y0383095D01*
X0338886Y0382252D01*
Y0380846D01*
X0339167Y0380003D01*
X0339448Y0379440D01*
X0340010Y0378878D01*
X0340854Y0378597D01*
X0342822D01*
X0337283Y0383095D02*
Y0383377D01*
X0337002Y0383939D01*
X0336721Y0384220D01*
X0336159Y0384501D01*
X0335034D01*
X0334472Y0384220D01*
X0334191Y0383939D01*
X0333910Y0383377D01*
Y0382814D01*
X0334191Y0382252D01*
X0334753Y0381408D01*
X0337564Y0378597D01*
X0333628D01*
X0351090Y0326627D02*
Y0320723D01*
Y0326627D02*
X0349122D01*
X0348278Y0326346D01*
X0347716Y0325784D01*
X0347435Y0325221D01*
X0347154Y0324378D01*
Y0322972D01*
X0347435Y0322129D01*
X0347716Y0321566D01*
X0348278Y0321004D01*
X0349122Y0320723D01*
X0351090D01*
X0345270Y0326627D02*
X0342177D01*
X0343864Y0324378D01*
X0343021D01*
X0342458Y0324097D01*
X0342177Y0323815D01*
X0341896Y0322972D01*
Y0322410D01*
X0342177Y0321566D01*
X0342740Y0321004D01*
X0343583Y0320723D01*
X0344426D01*
X0345270Y0321004D01*
X0345551Y0321285D01*
X0345832Y0321848D01*
X0268019Y0297099D02*
Y0291195D01*
Y0297099D02*
X0266051D01*
X0265207Y0296818D01*
X0264645Y0296256D01*
X0264364Y0295694D01*
X0264083Y0294850D01*
Y0293444D01*
X0264364Y0292601D01*
X0264645Y0292039D01*
X0265207Y0291476D01*
X0266051Y0291195D01*
X0268019D01*
X0262761Y0295975D02*
X0262199Y0296256D01*
X0261355Y0297099D01*
Y0291195D01*
X0418329Y0324237D02*
X0418610Y0324799D01*
X0419173Y0325362D01*
X0419735Y0325643D01*
X0420859D01*
X0421422Y0325362D01*
X0421984Y0324799D01*
X0422265Y0324237D01*
X0422546Y0323394D01*
Y0321988D01*
X0422265Y0321144D01*
X0421984Y0320582D01*
X0421422Y0320020D01*
X0420859Y0319739D01*
X0419735D01*
X0419173Y0320020D01*
X0418610Y0320582D01*
X0418329Y0321144D01*
X0413015Y0323675D02*
X0413297Y0322831D01*
X0413859Y0322269D01*
X0414702Y0321988D01*
X0414983D01*
X0415827Y0322269D01*
X0416389Y0322831D01*
X0416670Y0323675D01*
Y0323956D01*
X0416389Y0324799D01*
X0415827Y0325362D01*
X0414983Y0325643D01*
X0414702D01*
X0413859Y0325362D01*
X0413297Y0324799D01*
X0413015Y0323675D01*
Y0322269D01*
X0413297Y0320863D01*
X0413859Y0320020D01*
X0414702Y0319739D01*
X0415265D01*
X0416108Y0320020D01*
X0416389Y0320582D01*
X0303172Y0362623D02*
X0303453Y0363185D01*
X0304015Y0363748D01*
X0304577Y0364029D01*
X0305702D01*
X0306264Y0363748D01*
X0306827Y0363185D01*
X0307108Y0362623D01*
X0307389Y0361779D01*
Y0360374D01*
X0307108Y0359530D01*
X0306827Y0358968D01*
X0306264Y0358406D01*
X0305702Y0358124D01*
X0304577D01*
X0304015Y0358406D01*
X0303453Y0358968D01*
X0303172Y0359530D01*
X0300951Y0364029D02*
X0297858D01*
X0299545Y0361779D01*
X0298701D01*
X0298139Y0361498D01*
X0297858Y0361217D01*
X0297577Y0360374D01*
Y0359811D01*
X0297858Y0358968D01*
X0298420Y0358406D01*
X0299264Y0358124D01*
X0300107D01*
X0300951Y0358406D01*
X0301232Y0358687D01*
X0301513Y0359249D01*
X0307896Y0296875D02*
X0308177Y0297437D01*
X0308739Y0298000D01*
X0309302Y0298281D01*
X0310426D01*
X0310989Y0298000D01*
X0311551Y0297437D01*
X0311832Y0296875D01*
X0312113Y0296031D01*
Y0294626D01*
X0311832Y0293782D01*
X0311551Y0293220D01*
X0310989Y0292657D01*
X0310426Y0292376D01*
X0309302D01*
X0308739Y0292657D01*
X0308177Y0293220D01*
X0307896Y0293782D01*
X0303426Y0298281D02*
X0306237Y0294344D01*
X0302020D01*
X0303426Y0298281D02*
Y0292376D01*
X0344003Y0346312D02*
Y0340408D01*
Y0346312D02*
X0342035D01*
X0341192Y0346031D01*
X0340629Y0345469D01*
X0340348Y0344906D01*
X0340067Y0344063D01*
Y0342657D01*
X0340348Y0341814D01*
X0340629Y0341251D01*
X0341192Y0340689D01*
X0342035Y0340408D01*
X0344003D01*
X0335934Y0346312D02*
X0338746Y0342376D01*
X0334528D01*
X0335934Y0346312D02*
Y0340408D01*
X0258964Y0375840D02*
Y0369935D01*
Y0375840D02*
X0256433D01*
X0255590Y0375558D01*
X0255309Y0375277D01*
X0255028Y0374715D01*
Y0374153D01*
X0255309Y0373590D01*
X0255590Y0373309D01*
X0256433Y0373028D01*
X0258964D01*
X0256996D02*
X0255028Y0369935D01*
X0250332Y0375840D02*
X0253144D01*
X0253425Y0373309D01*
X0253144Y0373590D01*
X0252300Y0373872D01*
X0251457D01*
X0250613Y0373590D01*
X0250051Y0373028D01*
X0249770Y0372185D01*
Y0371622D01*
X0250051Y0370779D01*
X0250613Y0370217D01*
X0251457Y0369935D01*
X0252300D01*
X0253144Y0370217D01*
X0253425Y0370498D01*
X0253706Y0371060D01*
X0244791Y0336470D02*
Y0330565D01*
Y0336470D02*
X0242260D01*
X0241417Y0336189D01*
X0241136Y0335907D01*
X0240854Y0335345D01*
Y0334783D01*
X0241136Y0334220D01*
X0241417Y0333939D01*
X0242260Y0333658D01*
X0244791D01*
X0242823D02*
X0240854Y0330565D01*
X0236159Y0335626D02*
X0236440Y0336189D01*
X0237284Y0336470D01*
X0237846D01*
X0238689Y0336189D01*
X0239252Y0335345D01*
X0239533Y0333939D01*
Y0332533D01*
X0239252Y0331409D01*
X0238689Y0330847D01*
X0237846Y0330565D01*
X0237565D01*
X0236721Y0330847D01*
X0236159Y0331409D01*
X0235878Y0332252D01*
Y0332533D01*
X0236159Y0333377D01*
X0236721Y0333939D01*
X0237565Y0334220D01*
X0237846D01*
X0238689Y0333939D01*
X0239252Y0333377D01*
X0239533Y0332533D01*
X0279831Y0346707D02*
X0285735D01*
X0279831D02*
Y0344177D01*
X0280112Y0343333D01*
X0280394Y0343052D01*
X0280956Y0342771D01*
X0281518D01*
X0282080Y0343052D01*
X0282362Y0343333D01*
X0282643Y0344177D01*
Y0346707D01*
Y0344739D02*
X0285735Y0342771D01*
X0279831Y0340044D02*
X0280112Y0340887D01*
X0280675Y0341168D01*
X0281237D01*
X0281799Y0340887D01*
X0282080Y0340325D01*
X0282362Y0339200D01*
X0282643Y0338357D01*
X0283205Y0337794D01*
X0283767Y0337513D01*
X0284611D01*
X0285173Y0337794D01*
X0285454Y0338076D01*
X0285735Y0338919D01*
Y0340044D01*
X0285454Y0340887D01*
X0285173Y0341168D01*
X0284611Y0341449D01*
X0283767D01*
X0283205Y0341168D01*
X0282643Y0340606D01*
X0282362Y0339763D01*
X0282080Y0338638D01*
X0281799Y0338076D01*
X0281237Y0337794D01*
X0280675D01*
X0280112Y0338076D01*
X0279831Y0338919D01*
Y0340044D01*
X0435579Y0307483D02*
X0428831D01*
G54D85*
X0387310Y0363439D02*
X0408964D01*
X0387310Y0346904D02*
X0408964D01*
X0375499Y0328203D02*
X0397153D01*
X0375499Y0344739D02*
X0397153D01*
G54D86*
X0351838Y0291865D02*
D03*
G54D87*
X0328055Y0333146D02*
D03*
G54D88*
X0288432Y0288634D02*
D03*
G54D89*
X0338621Y0323675D02*
D03*
G54D90*
X0325106Y0383673D02*
D03*
M02*
