M48
;Layer_Color=9474304
;FILE_FORMAT=2:5
INCH
;TYPE=PLATED
T1F00S00C0.01968
T2F00S00C0.02756
T3F00S00C0.02953
T4F00S00C0.03346
T5F00S00C0.03500
T6F00S00C0.03543
T7F00S00C0.03622
T8F00S00C0.03937
T9F00S00C0.04724
T10F00S00C0.06300
T11F00S00C0.09055
T12F00S00C0.12598
;TYPE=NON_PLATED
T13F00S00C0.01968
T14F00S00C0.04724
%
T01
X0260145Y0269542
X0264082Y0268558
X0266050Y0272495
X0267035Y0338439
X0272940
X0260834
X0254239
X0274909Y0363046
X0292625Y0365014
X0325203Y0363046
X0368413Y0341392
Y0334502
T02
X0385145Y0368951
X0398924
X0418610Y0354187
Y0340408
T03
X0285735Y0333203
X0290735Y0343203
X0285735Y0353203
T04
X0333964Y0374857
X0363491
T05
X0245381Y0274463
Y0294148
X0275893Y0302022
Y0321707
T06
X0325106Y0281353
X0309358
T07
X0388491Y0314817
X0398334
X0406208
X0416050
T08
X0230617Y0321707
X0250302
T09
X0363491Y0306451
X0304436Y0303991
Y0323676
Y0333518
Y0353203
X0363491Y0350743
X0379239Y0349266
X0374318Y0358124
T10
X0335932Y0271510
X0298531
T11
X0376405Y0304148
X0428137
T12
X0470775Y0238046
X0189279
Y0415211
X0470775
T13
X0323137Y0261668
X0222743Y0324660
X0323137Y0387652
X0437310Y0324660
T14
X0304436Y0313833
Y0343361
M30
